<?xml version="1.0" encoding="UTF-8" standalone="no"?>
<!DOCTYPE svg PUBLIC "-//W3C//DTD SVG 1.1//EN"
 "http://www.w3.org/Graphics/SVG/1.1/DTD/svg11.dtd">
<!-- Generated by graphviz version 2.43.0 (0)
 -->
<!-- Title: NNSBackendCanisterCalls Pages: 1 -->
<svg width="1558pt" height="567pt"
 viewBox="0.00 0.00 1557.50 566.98" xmlns="http://www.w3.org/2000/svg" xmlns:xlink="http://www.w3.org/1999/xlink">
<g id="graph0" class="graph" transform="scale(1 1) rotate(0) translate(4 562.98)">
<title>NNSBackendCanisterCalls</title>
<polygon fill="white" stroke="transparent" points="-4,4 -4,-562.98 1553.5,-562.98 1553.5,4 -4,4"/>
<text text-anchor="middle" x="774.75" y="-546.18" font-family="Helvetica,sans-Serif" font-size="11.00">NNS backend canisters: inter&#45;canister call graph</text>
<text text-anchor="middle" x="774.75" y="-534.18" font-family="Helvetica,sans-Serif" font-size="11.00">Generated in Aug, 2026 with tons of help from Claude.</text>
<text text-anchor="middle" x="774.75" y="-522.18" font-family="Helvetica,sans-Serif" font-size="11.00">Reviewed by Daniel Wong.</text>
<!-- NodeRewards -->
<g id="node1" class="node">
<title>NodeRewards</title>
<path fill="#dfe9ff" stroke="#3b4b8c" d="M165.5,-340.98C165.5,-340.98 45.5,-340.98 45.5,-340.98 39.5,-340.98 33.5,-334.98 33.5,-328.98 33.5,-328.98 33.5,-316.98 33.5,-316.98 33.5,-310.98 39.5,-304.98 45.5,-304.98 45.5,-304.98 165.5,-304.98 165.5,-304.98 171.5,-304.98 177.5,-310.98 177.5,-316.98 177.5,-316.98 177.5,-328.98 177.5,-328.98 177.5,-334.98 171.5,-340.98 165.5,-340.98"/>
<text text-anchor="middle" x="105.5" y="-320.18" font-family="Helvetica,sans-Serif" font-size="11.00">Node Rewards canister</text>
</g>
<!-- ArbitraryCanister -->
<g id="node2" class="node">
<title>ArbitraryCanister</title>
<path fill="#dfe9ff" stroke="#3b4b8c" d="M199,-140.98C199,-140.98 12,-140.98 12,-140.98 6,-140.98 0,-134.98 0,-128.98 0,-128.98 0,-116.98 0,-116.98 0,-110.98 6,-104.98 12,-104.98 12,-104.98 199,-104.98 199,-104.98 205,-104.98 211,-110.98 211,-116.98 211,-116.98 211,-128.98 211,-128.98 211,-134.98 205,-140.98 199,-140.98"/>
<text text-anchor="middle" x="105.5" y="-126.18" font-family="Helvetica,sans-Serif" font-size="11.00">Bitcoin canister</text>
<text text-anchor="middle" x="105.5" y="-114.18" font-family="Helvetica,sans-Serif" font-size="11.00">(or other proposal&#45;specified target)</text>
</g>
<!-- NodeRewards&#45;&gt;ArbitraryCanister -->
<!-- SnsWasm -->
<g id="node3" class="node">
<title>SnsWasm</title>
<path fill="#dfe9ff" stroke="#3b4b8c" d="M462,-340.98C462,-340.98 409,-340.98 409,-340.98 403,-340.98 397,-334.98 397,-328.98 397,-328.98 397,-316.98 397,-316.98 397,-310.98 403,-304.98 409,-304.98 409,-304.98 462,-304.98 462,-304.98 468,-304.98 474,-310.98 474,-316.98 474,-316.98 474,-328.98 474,-328.98 474,-334.98 468,-340.98 462,-340.98"/>
<text text-anchor="middle" x="435.5" y="-320.18" font-family="Helvetica,sans-Serif" font-size="11.00">SNS&#45;WASM</text>
</g>
<!-- Root -->
<g id="node4" class="node">
<title>Root</title>
<path fill="#dfe9ff" stroke="#3b4b8c" d="M586.5,-232.98C586.5,-232.98 556.5,-232.98 556.5,-232.98 550.5,-232.98 544.5,-226.98 544.5,-220.98 544.5,-220.98 544.5,-208.98 544.5,-208.98 544.5,-202.98 550.5,-196.98 556.5,-196.98 556.5,-196.98 586.5,-196.98 586.5,-196.98 592.5,-196.98 598.5,-202.98 598.5,-208.98 598.5,-208.98 598.5,-220.98 598.5,-220.98 598.5,-226.98 592.5,-232.98 586.5,-232.98"/>
<text text-anchor="middle" x="571.5" y="-212.18" font-family="Helvetica,sans-Serif" font-size="11.00">Root</text>
</g>
<!-- SnsWasm&#45;&gt;Root -->
<g id="edge15" class="edge">
<title>SnsWasm&#45;&gt;Root</title>
<path fill="none" stroke="#555555" d="M457.35,-304.95C480.02,-287.29 515.64,-259.52 541.06,-239.71"/>
<polygon fill="#555555" stroke="#555555" points="543.52,-242.23 549.25,-233.32 539.21,-236.71 543.52,-242.23"/>
<text text-anchor="middle" x="478" y="-271.78" font-family="Helvetica,sans-Serif" font-size="9.00">checks/transfers control</text>
<text text-anchor="middle" x="478" y="-261.78" font-family="Helvetica,sans-Serif" font-size="9.00">of SNS canisters</text>
</g>
<!-- IcManagement -->
<g id="node8" class="node">
<title>IcManagement</title>
<path fill="#ffe9cc" stroke="#b06a00" d="M687.67,-21.11C687.67,-21.11 687.67,-27.87 687.67,-27.87 687.67,-31.25 684.36,-35.33 681.06,-36.03 681.06,-36.03 626.24,-47.58 626.24,-47.58 622.93,-48.28 616.24,-48.98 612.86,-48.98 612.86,-48.98 530.14,-48.98 530.14,-48.98 526.76,-48.98 520.07,-48.28 516.76,-47.58 516.76,-47.58 461.94,-36.03 461.94,-36.03 458.64,-35.33 455.33,-31.25 455.33,-27.87 455.33,-27.87 455.33,-21.11 455.33,-21.11 455.33,-17.73 458.64,-13.65 461.94,-12.96 461.94,-12.96 516.76,-1.4 516.76,-1.4 520.07,-0.71 526.76,-0.01 530.14,-0.01 530.14,-0.01 612.86,-0.01 612.86,-0.01 616.24,-0.01 622.93,-0.71 626.24,-1.4 626.24,-1.4 681.06,-12.96 681.06,-12.96 684.36,-13.65 687.67,-17.73 687.67,-21.11"/>
<text text-anchor="middle" x="571.5" y="-27.69" font-family="Helvetica,sans-Serif" font-size="11.00">IC Management Canister</text>
<text text-anchor="middle" x="571.5" y="-15.69" font-family="Helvetica,sans-Serif" font-size="11.00">(ic00 / aaaaa&#45;aa)</text>
</g>
<!-- SnsWasm&#45;&gt;IcManagement -->
<g id="edge14" class="edge">
<title>SnsWasm&#45;&gt;IcManagement</title>
<path fill="none" stroke="#555555" d="M448.02,-304.81C477.45,-262.11 548.5,-158.98 548.5,-158.98 548.5,-158.98 558.77,-98.9 565.59,-59.05"/>
<polygon fill="#555555" stroke="#555555" points="569.05,-59.61 567.28,-49.16 562.15,-58.43 569.05,-59.61"/>
<text text-anchor="middle" x="493" y="-171.78" font-family="Helvetica,sans-Serif" font-size="9.00">creates and installs</text>
<text text-anchor="middle" x="493" y="-161.78" font-family="Helvetica,sans-Serif" font-size="9.00">candidate SNS canisters</text>
</g>
<!-- Root&#45;&gt;ArbitraryCanister -->
<g id="edge12" class="edge">
<title>Root&#45;&gt;ArbitraryCanister</title>
<path fill="none" stroke="#555555" d="M544.43,-208.76C479.44,-196.2 311.98,-163.86 203.7,-142.95"/>
<polygon fill="#555555" stroke="#555555" points="204.22,-139.49 193.74,-141.03 202.89,-146.36 204.22,-139.49"/>
<text text-anchor="middle" x="219.5" y="-171.78" font-family="Helvetica,sans-Serif" font-size="9.00">configures Bitcoin integration</text>
<text text-anchor="middle" x="219.5" y="-161.78" font-family="Helvetica,sans-Serif" font-size="9.00">(or other proposal&#45;specified target)</text>
</g>
<!-- Registry -->
<g id="node7" class="node">
<title>Registry</title>
<path fill="#dfe9ff" stroke="#3b4b8c" d="M590.5,-140.98C590.5,-140.98 552.5,-140.98 552.5,-140.98 546.5,-140.98 540.5,-134.98 540.5,-128.98 540.5,-128.98 540.5,-116.98 540.5,-116.98 540.5,-110.98 546.5,-104.98 552.5,-104.98 552.5,-104.98 590.5,-104.98 590.5,-104.98 596.5,-104.98 602.5,-110.98 602.5,-116.98 602.5,-116.98 602.5,-128.98 602.5,-128.98 602.5,-134.98 596.5,-140.98 590.5,-140.98"/>
<text text-anchor="middle" x="571.5" y="-120.18" font-family="Helvetica,sans-Serif" font-size="11.00">Registry</text>
</g>
<!-- Root&#45;&gt;Registry -->
<g id="edge11" class="edge">
<title>Root&#45;&gt;Registry</title>
<path fill="none" stroke="#555555" d="M571.5,-196.63C571.5,-183.81 571.5,-166.09 571.5,-151.36"/>
<polygon fill="#555555" stroke="#555555" points="575,-151.28 571.5,-141.28 568,-151.28 575,-151.28"/>
<text text-anchor="middle" x="630.5" y="-166.78" font-family="Helvetica,sans-Serif" font-size="9.00">looks up canister&#39;s subnet</text>
</g>
<!-- Root&#45;&gt;IcManagement -->
<g id="edge10" class="edge">
<title>Root&#45;&gt;IcManagement</title>
<path fill="none" stroke="#555555" d="M549.44,-196.98C513.56,-167.7 446.5,-112.98 446.5,-112.98 446.5,-112.98 492.09,-80.71 528.21,-55.14"/>
<polygon fill="#555555" stroke="#555555" points="530.54,-57.78 536.68,-49.14 526.5,-52.06 530.54,-57.78"/>
<text text-anchor="middle" x="380" y="-125.78" font-family="Helvetica,sans-Serif" font-size="9.00">installs/upgrades/stops/starts</text>
<text text-anchor="middle" x="380" y="-115.78" font-family="Helvetica,sans-Serif" font-size="9.00">NNS canisters</text>
</g>
<!-- Gtc -->
<g id="node5" class="node">
<title>Gtc</title>
<path fill="#dfe9ff" stroke="#3b4b8c" d="M636,-514.98C636,-514.98 507,-514.98 507,-514.98 501,-514.98 495,-508.98 495,-502.98 495,-502.98 495,-490.98 495,-490.98 495,-484.98 501,-478.98 507,-478.98 507,-478.98 636,-478.98 636,-478.98 642,-478.98 648,-484.98 648,-490.98 648,-490.98 648,-502.98 648,-502.98 648,-508.98 642,-514.98 636,-514.98"/>
<text text-anchor="middle" x="571.5" y="-500.18" font-family="Helvetica,sans-Serif" font-size="11.00">GTC</text>
<text text-anchor="middle" x="571.5" y="-488.18" font-family="Helvetica,sans-Serif" font-size="11.00">(Genesis Token Canister)</text>
</g>
<!-- Governance -->
<g id="node6" class="node">
<title>Governance</title>
<path fill="#dfe9ff" stroke="#3b4b8c" d="M601,-432.98C601,-432.98 542,-432.98 542,-432.98 536,-432.98 530,-426.98 530,-420.98 530,-420.98 530,-408.98 530,-408.98 530,-402.98 536,-396.98 542,-396.98 542,-396.98 601,-396.98 601,-396.98 607,-396.98 613,-402.98 613,-408.98 613,-408.98 613,-420.98 613,-420.98 613,-426.98 607,-432.98 601,-432.98"/>
<text text-anchor="middle" x="571.5" y="-412.18" font-family="Helvetica,sans-Serif" font-size="11.00">Governance</text>
</g>
<!-- Gtc&#45;&gt;Governance -->
<g id="edge16" class="edge">
<title>Gtc&#45;&gt;Governance</title>
<path fill="none" stroke="#555555" d="M571.5,-478.62C571.5,-468.28 571.5,-454.92 571.5,-443.2"/>
<polygon fill="#555555" stroke="#555555" points="575,-443.03 571.5,-433.03 568,-443.03 575,-443.03"/>
<text text-anchor="middle" x="646" y="-453.78" font-family="Helvetica,sans-Serif" font-size="9.00">claims/transfers Genesis neurons</text>
</g>
<!-- Governance&#45;&gt;NodeRewards -->
<g id="edge8" class="edge">
<title>Governance&#45;&gt;NodeRewards</title>
<path fill="none" stroke="#555555" d="M529.74,-405.92C452.85,-391.07 287.62,-359.16 187.57,-339.83"/>
<polygon fill="#555555" stroke="#555555" points="187.98,-336.35 177.5,-337.89 186.66,-343.22 187.98,-336.35"/>
<text text-anchor="middle" x="362" y="-366.78" font-family="Helvetica,sans-Serif" font-size="9.00">queries node provider rewards</text>
</g>
<!-- Governance&#45;&gt;SnsWasm -->
<g id="edge3" class="edge">
<title>Governance&#45;&gt;SnsWasm</title>
<path fill="none" stroke="#555555" d="M545.6,-396.84C524.14,-382.64 493.46,-362.34 469.94,-346.77"/>
<polygon fill="#555555" stroke="#555555" points="471.58,-343.66 461.3,-341.06 467.71,-349.5 471.58,-343.66"/>
<text text-anchor="middle" x="497" y="-371.78" font-family="Helvetica,sans-Serif" font-size="9.00">manages SNS deployment</text>
<text text-anchor="middle" x="497" y="-361.78" font-family="Helvetica,sans-Serif" font-size="9.00">and upgrade path</text>
</g>
<!-- Governance&#45;&gt;Root -->
<g id="edge1" class="edge">
<title>Governance&#45;&gt;Root</title>
<path fill="none" stroke="#555555" d="M571.5,-396.79C571.5,-372.63 571.5,-332.98 571.5,-332.98 571.5,-332.98 571.5,-278.19 571.5,-243.28"/>
<polygon fill="#555555" stroke="#555555" points="575,-243.16 571.5,-233.16 568,-243.16 575,-243.16"/>
<text text-anchor="middle" x="659" y="-325.78" font-family="Helvetica,sans-Serif" font-size="9.00">manages NNS canister lifecycle</text>
<text text-anchor="middle" x="659" y="-315.78" font-family="Helvetica,sans-Serif" font-size="9.00">(install, upgrade, stop/start, snapshot)</text>
</g>
<!-- Governance&#45;&gt;Registry -->
<g id="edge2" class="edge">
<title>Governance&#45;&gt;Registry</title>
<path fill="none" stroke="#555555" d="M603.5,-396.92C669.06,-359.93 812.5,-278.98 812.5,-278.98 812.5,-278.98 675.75,-190.46 608.27,-146.78"/>
<polygon fill="#555555" stroke="#555555" points="609.91,-143.68 599.62,-141.18 606.11,-149.56 609.91,-143.68"/>
<text text-anchor="middle" x="888" y="-271.78" font-family="Helvetica,sans-Serif" font-size="9.00">manages network topology</text>
<text text-anchor="middle" x="888" y="-261.78" font-family="Helvetica,sans-Serif" font-size="9.00">(subnets, nodes, rewards config)</text>
</g>
<!-- Governance&#45;&gt;IcManagement -->
<g id="edge9" class="edge">
<title>Governance&#45;&gt;IcManagement</title>
<path fill="none" stroke="#555555" d="M582.43,-396.77C610.96,-349.21 685.5,-224.98 685.5,-224.98 685.5,-224.98 623.06,-115.18 590.61,-58.09"/>
<polygon fill="#555555" stroke="#555555" points="593.46,-56.04 585.48,-49.08 587.38,-59.5 593.46,-56.04"/>
<text text-anchor="middle" x="735" y="-217.78" font-family="Helvetica,sans-Serif" font-size="9.00">gets randomness and</text>
<text text-anchor="middle" x="735" y="-207.78" font-family="Helvetica,sans-Serif" font-size="9.00">canister metadata</text>
</g>
<!-- Cmc -->
<g id="node9" class="node">
<title>Cmc</title>
<path fill="#dfe9ff" stroke="#3b4b8c" d="M1367,-340.98C1367,-340.98 1236,-340.98 1236,-340.98 1230,-340.98 1224,-334.98 1224,-328.98 1224,-328.98 1224,-316.98 1224,-316.98 1224,-310.98 1230,-304.98 1236,-304.98 1236,-304.98 1367,-304.98 1367,-304.98 1373,-304.98 1379,-310.98 1379,-316.98 1379,-316.98 1379,-328.98 1379,-328.98 1379,-334.98 1373,-340.98 1367,-340.98"/>
<text text-anchor="middle" x="1301.5" y="-326.18" font-family="Helvetica,sans-Serif" font-size="11.00">CMC</text>
<text text-anchor="middle" x="1301.5" y="-314.18" font-family="Helvetica,sans-Serif" font-size="11.00">(Cycles Minting Canister)</text>
</g>
<!-- Governance&#45;&gt;Cmc -->
<g id="edge4" class="edge">
<title>Governance&#45;&gt;Cmc</title>
<path fill="none" stroke="#555555" d="M613.1,-408.85C728.69,-394.6 1055.55,-354.31 1213.67,-334.81"/>
<polygon fill="#555555" stroke="#555555" points="1214.34,-338.26 1223.84,-333.56 1213.49,-331.31 1214.34,-338.26"/>
<text text-anchor="middle" x="1205.5" y="-371.78" font-family="Helvetica,sans-Serif" font-size="9.00">manages ICP/XDR rate</text>
<text text-anchor="middle" x="1205.5" y="-361.78" font-family="Helvetica,sans-Serif" font-size="9.00">and subnet cycle policy</text>
</g>
<!-- Ledger -->
<g id="node10" class="node">
<title>Ledger</title>
<path fill="#dfe9ff" stroke="#3b4b8c" d="M1121,-232.98C1121,-232.98 1070,-232.98 1070,-232.98 1064,-232.98 1058,-226.98 1058,-220.98 1058,-220.98 1058,-208.98 1058,-208.98 1058,-202.98 1064,-196.98 1070,-196.98 1070,-196.98 1121,-196.98 1121,-196.98 1127,-196.98 1133,-202.98 1133,-208.98 1133,-208.98 1133,-220.98 1133,-220.98 1133,-226.98 1127,-232.98 1121,-232.98"/>
<text text-anchor="middle" x="1095.5" y="-212.18" font-family="Helvetica,sans-Serif" font-size="11.00">ICP Ledger</text>
</g>
<!-- Governance&#45;&gt;Ledger -->
<g id="edge5" class="edge">
<title>Governance&#45;&gt;Ledger</title>
<path fill="none" stroke="#555555" d="M613.36,-407.49C731.24,-386.39 1057.5,-327.98 1057.5,-327.98 1057.5,-327.98 1074.87,-276.32 1086.13,-242.86"/>
<polygon fill="#555555" stroke="#555555" points="1089.52,-243.73 1089.39,-233.14 1082.89,-241.5 1089.52,-243.73"/>
<text text-anchor="middle" x="1131.5" y="-320.78" font-family="Helvetica,sans-Serif" font-size="9.00">moves ICP for neuron operations</text>
</g>
<!-- Migration -->
<g id="node11" class="node">
<title>Migration</title>
<path fill="#dfe9ff" stroke="#3b4b8c" d="M1018,-232.98C1018,-232.98 915,-232.98 915,-232.98 909,-232.98 903,-226.98 903,-220.98 903,-220.98 903,-208.98 903,-208.98 903,-202.98 909,-196.98 915,-196.98 915,-196.98 1018,-196.98 1018,-196.98 1024,-196.98 1030,-202.98 1030,-208.98 1030,-208.98 1030,-220.98 1030,-220.98 1030,-226.98 1024,-232.98 1018,-232.98"/>
<text text-anchor="middle" x="966.5" y="-212.18" font-family="Helvetica,sans-Serif" font-size="11.00">(Canister) Migration</text>
</g>
<!-- Governance&#45;&gt;Migration -->
<g id="edge7" class="edge">
<title>Governance&#45;&gt;Migration</title>
<path fill="none" stroke="#555555" d="M613.23,-402.33C692.83,-378.2 858.5,-327.98 858.5,-327.98 858.5,-327.98 910.03,-274.07 941.9,-240.72"/>
<polygon fill="#555555" stroke="#555555" points="944.77,-242.79 949.15,-233.14 939.71,-237.95 944.77,-242.79"/>
<text text-anchor="middle" x="940" y="-320.78" font-family="Helvetica,sans-Serif" font-size="9.00">pauses/resumes canister migrations</text>
</g>
<!-- Lifeline -->
<g id="node12" class="node">
<title>Lifeline</title>
<path fill="#dfe9ff" stroke="#3b4b8c" d="M1419.5,-286.98C1419.5,-286.98 1387.5,-286.98 1387.5,-286.98 1381.5,-286.98 1375.5,-280.98 1375.5,-274.98 1375.5,-274.98 1375.5,-262.98 1375.5,-262.98 1375.5,-256.98 1381.5,-250.98 1387.5,-250.98 1387.5,-250.98 1419.5,-250.98 1419.5,-250.98 1425.5,-250.98 1431.5,-256.98 1431.5,-262.98 1431.5,-262.98 1431.5,-274.98 1431.5,-274.98 1431.5,-280.98 1425.5,-286.98 1419.5,-286.98"/>
<text text-anchor="middle" x="1403.5" y="-266.18" font-family="Helvetica,sans-Serif" font-size="11.00">Lifeline</text>
</g>
<!-- Governance&#45;&gt;Lifeline -->
<g id="edge6" class="edge">
<title>Governance&#45;&gt;Lifeline</title>
<path fill="none" stroke="#555555" d="M613.24,-412.94C782.35,-404.64 1407.5,-373.98 1407.5,-373.98 1407.5,-373.98 1405.77,-328.67 1404.59,-297.58"/>
<polygon fill="#555555" stroke="#555555" points="1408.07,-297.13 1404.2,-287.27 1401.08,-297.4 1408.07,-297.13"/>
<text text-anchor="middle" x="1478.5" y="-366.78" font-family="Helvetica,sans-Serif" font-size="9.00">triggers Root upgrade/recovery</text>
</g>
<!-- Registry&#45;&gt;IcManagement -->
<g id="edge21" class="edge">
<title>Registry&#45;&gt;IcManagement</title>
<path fill="none" stroke="#555555" d="M571.5,-104.73C571.5,-92.14 571.5,-74.65 571.5,-59.31"/>
<polygon fill="#555555" stroke="#555555" points="575,-59.12 571.5,-49.12 568,-59.12 575,-59.12"/>
<text text-anchor="middle" x="613.5" y="-79.78" font-family="Helvetica,sans-Serif" font-size="9.00">runs subnet DKG /</text>
<text text-anchor="middle" x="613.5" y="-69.78" font-family="Helvetica,sans-Serif" font-size="9.00">key operations</text>
</g>
<!-- Cmc&#45;&gt;IcManagement -->
<g id="edge17" class="edge">
<title>Cmc&#45;&gt;IcManagement</title>
<path fill="none" stroke="#555555" d="M1293.77,-304.75C1277.36,-266 1240.5,-178.98 1240.5,-178.98 1240.5,-178.98 841.86,-86.93 660.02,-44.93"/>
<polygon fill="#555555" stroke="#555555" points="660.74,-41.51 650.21,-42.67 659.17,-48.33 660.74,-41.51"/>
<text text-anchor="middle" x="1289" y="-171.78" font-family="Helvetica,sans-Serif" font-size="9.00">creates canisters and</text>
<text text-anchor="middle" x="1289" y="-161.78" font-family="Helvetica,sans-Serif" font-size="9.00">manages cycles</text>
</g>
<!-- Cmc&#45;&gt;Ledger -->
<g id="edge18" class="edge">
<title>Cmc&#45;&gt;Ledger</title>
<path fill="none" stroke="#555555" d="M1268.4,-304.95C1232.92,-286.69 1176.48,-257.65 1137.8,-237.75"/>
<polygon fill="#555555" stroke="#555555" points="1139.35,-234.61 1128.86,-233.15 1136.15,-240.84 1139.35,-234.61"/>
<text text-anchor="middle" x="1164.5" y="-266.78" font-family="Helvetica,sans-Serif" font-size="9.00">burns ICP for cycle minting</text>
</g>
<!-- Migration&#45;&gt;Registry -->
<g id="edge20" class="edge">
<title>Migration&#45;&gt;Registry</title>
<path fill="none" stroke="#555555" d="M902.6,-199.42C820.98,-180.83 682.05,-149.17 613,-133.44"/>
<polygon fill="#555555" stroke="#555555" points="613.46,-129.96 602.94,-131.15 611.91,-136.78 613.46,-129.96"/>
<text text-anchor="middle" x="899.5" y="-171.78" font-family="Helvetica,sans-Serif" font-size="9.00">changes which subnet</text>
<text text-anchor="middle" x="899.5" y="-161.78" font-family="Helvetica,sans-Serif" font-size="9.00">canisters are hosted on</text>
</g>
<!-- Migration&#45;&gt;IcManagement -->
<g id="edge19" class="edge">
<title>Migration&#45;&gt;IcManagement</title>
<path fill="none" stroke="#555555" d="M966.5,-196.96C966.5,-171.47 966.5,-127.98 966.5,-127.98 966.5,-127.98 770.68,-76.68 654.79,-46.31"/>
<polygon fill="#555555" stroke="#555555" points="655.43,-42.86 644.87,-43.72 653.66,-49.64 655.43,-42.86"/>
<text text-anchor="middle" x="1042" y="-120.78" font-family="Helvetica,sans-Serif" font-size="9.00">adjusts settings during migration</text>
</g>
<!-- Lifeline&#45;&gt;IcManagement -->
<g id="edge13" class="edge">
<title>Lifeline&#45;&gt;IcManagement</title>
<path fill="none" stroke="#555555" d="M1400.8,-250.67C1396.73,-223.06 1389.5,-173.98 1389.5,-173.98 1389.5,-173.98 887.4,-82.22 669.95,-42.48"/>
<polygon fill="#555555" stroke="#555555" points="670.28,-38.99 659.82,-40.63 669.03,-45.87 670.28,-38.99"/>
<text text-anchor="middle" x="1443.5" y="-166.78" font-family="Helvetica,sans-Serif" font-size="9.00">upgrades/recovers Root</text>
</g>
</g>
</svg>
