<svg xmlns="http://www.w3.org/2000/svg" xmlns:xlink="http://www.w3.org/1999/xlink" xmlns:lucid="lucid" width="1148.2" height="396.07"><g transform="translate(1075 0.06709943805265794)" lucid:page-tab-id="A8xVW8inbU26"><path d="M-1015.98 194.1c0 10.15-8.73 18.4-19.5 18.4-10.78 0-19.52-8.25-19.52-18.4 0-10.17 8.74-18.4 19.5-18.4 10.8 0 19.52 8.23 19.52 18.4z" stroke="#000"/><path d="M-475.22 19.93c-11.5 0-20.83 9.33-20.83 20.83v62.5c0 11.5 9.33 20.82 20.83 20.82h86.55c11.5 0 20.83-9.32 20.83-20.83v-62.5c0-11.5-9.33-20.82-20.83-20.82z" stroke="#282c33" fill="#29abe2" fill-opacity=".7"/><use xlink:href="#a" transform="matrix(1,0,0,1,-488.0502425146791,27.932900561947342) translate(18.52469135802469 37.388888888888886)"/><use xlink:href="#b" transform="matrix(1,0,0,1,-488.0502425146791,27.932900561947342) translate(73.78395061728395 37.388888888888886)"/><use xlink:href="#c" transform="matrix(1,0,0,1,-488.0502425146791,27.932900561947342) translate(19.48765432098765 58.72222222222222)"/><path d="M-627.84 33.15a8 8 0 0 1 8-8h4a8 8 0 0 1 8 8V363.6a8 8 0 0 1-8 8h-4a8 8 0 0 1-8-8zM-155 33.18a8 8 0 0 1 8-8h4.3a8 8 0 0 1 8 8V363.6a8 8 0 0 1-8 8h-4.3a8 8 0 0 1-8-8z" stroke="#333"/><path d="M-115 60H36.9l16.3 16.3v65.23H-115z" stroke="#333" fill="#fff"/><path d="M36.9 60.48V76.3H52.7" stroke="#333" fill="#fff"/><use xlink:href="#d" transform="matrix(1,0,0,1,-110,65) translate(11.699999999999996 18.9)"/><use xlink:href="#e" transform="matrix(1,0,0,1,-110,65) translate(39.65 18.9)"/><use xlink:href="#f" transform="matrix(1,0,0,1,-110,65) translate(93.30000000000001 18.9)"/><use xlink:href="#g" transform="matrix(1,0,0,1,-110,65) translate(0.09999999999999432 40.5)"/><use xlink:href="#h" transform="matrix(1,0,0,1,-110,65) translate(30.099999999999994 40.5)"/><use xlink:href="#i" transform="matrix(1,0,0,1,-110,65) translate(102 40.5)"/><use xlink:href="#j" transform="matrix(1,0,0,1,-110,65) translate(27.574999999999996 62.1)"/><use xlink:href="#k" transform="matrix(1,0,0,1,-110,65) translate(66.525 62.1)"/><use xlink:href="#l" transform="matrix(1,0,0,1,-110,65) translate(97.475 62.1)"/><path d="M-347 141.95c-11.5 0-20.84 9.33-20.84 20.83v62.5c0 11.5 9.32 20.82 20.83 20.82h110.12c11.5 0 20.83-9.33 20.83-20.83v-62.5c0-11.5-9.33-20.82-20.83-20.82z" stroke="#282c33" fill="#fbb03b" fill-opacity=".7"/><use xlink:href="#a" transform="matrix(1,0,0,1,-359.8408072256616,149.94924059821474) translate(0.024691358024682586 37.388888888888886)"/><use xlink:href="#m" transform="matrix(1,0,0,1,-359.8408072256616,149.94924059821474) translate(55.28395061728394 37.388888888888886)"/><use xlink:href="#n" transform="matrix(1,0,0,1,-359.8408072256616,149.94924059821474) translate(80.91358024691357 37.388888888888886)"/><use xlink:href="#o" transform="matrix(1,0,0,1,-359.8408072256616,149.94924059821474) translate(36.395061728395056 58.72222222222222)"/><path d="M-538.8 141.95c-11.5 0-20.83 9.33-20.83 20.83v62.5c0 11.5 9.32 20.82 20.83 20.82h110.13c11.5 0 20.83-9.33 20.83-20.83v-62.5c0-11.5-9.33-20.82-20.83-20.82z" stroke="#282c33" fill="#ed1e79" fill-opacity=".7"/><use xlink:href="#a" transform="matrix(1,0,0,1,-551.6313719366444,149.94924059821474) translate(9.308641975308646 37.388888888888886)"/><use xlink:href="#m" transform="matrix(1,0,0,1,-551.6313719366444,149.94924059821474) translate(64.5679012345679 37.388888888888886)"/><use xlink:href="#p" transform="matrix(1,0,0,1,-551.6313719366444,149.94924059821474) translate(90.19753086419753 37.388888888888886)"/><use xlink:href="#q" transform="matrix(1,0,0,1,-551.6313719366444,149.94924059821474) translate(6.271604938271601 58.72222222222222)"/><use xlink:href="#r" transform="matrix(1,0,0,1,-551.6313719366444,149.94924059821474) translate(62.567901234567906 58.72222222222222)"/><path d="M-606.84 194.02h30.33" stroke="#333" fill="none"/><path d="M-606.83 194.52h-.5v-1h.5z" stroke="#333" stroke-width=".05" fill="#333"/><path d="M-561.75 194.02l-14.26 4.64v-9.27z" stroke="#333" fill="#333"/><path d="M-606.84 72h93.9" stroke="#333" fill="none"/><path d="M-606.83 72.5h-.5v-1h.5z" stroke="#333" stroke-width=".05" fill="#333"/><path d="M-498.17 72l-14.26 4.64v-9.27z" stroke="#333" fill="#333"/><path d="M-171.88 71.54v1l-43.3-.02v-1zm-194.96.97v-1h28.87v1z" stroke="#333" stroke-width=".05" fill="#333"/><path d="M-366.83 72.5h-.5v-1h.5z" fill="#333"/><path d="M-366.8 72.53h-.57v-1.05h.57zm-.52-1v.95h.47v-.95z" stroke="#333" stroke-width=".05" fill="#333"/><path d="M-157.12 72.04l-14.26 4.63V67.4z" fill="#333"/><path d="M-155.5 72.04l-16.38 5.32V66.7zm-15.38 3.94l12.14-3.94-12.14-3.95z" stroke="#333" stroke-width=".05" fill="#333"/><use xlink:href="#s" transform="matrix(1,0,0,1,-337.97384109883205,61.20752096862864) translate(0.005000000000002558 14.4)"/><use xlink:href="#t" transform="matrix(1,0,0,1,-337.97384109883205,61.20752096862864) translate(58.90500000000001 14.4)"/><path d="M-215.05 194.02h43.17" stroke="#333" fill="none"/><path d="M-215.04 194.52h-.5v-1h.5z" stroke="#333" stroke-width=".05" fill="#333"/><path d="M-157.12 194.02l-14.26 4.64v-9.27z" stroke="#333" fill="#333"/><path d="M-406.84 194.02h22.1" stroke="#333" fill="none"/><path d="M-406.83 194.52h-.5v-1h.5z" stroke="#333" stroke-width=".05" fill="#333"/><path d="M-369.96 194.02l-14.27 4.64v-9.27z" stroke="#333" fill="#333"/><path d="M-1014.98 194.1h23.1" stroke="#333" fill="none"/><path d="M-1014.96 194.6h-.57l.05-.48v-.53h.52z" stroke="#333" stroke-width=".05" fill="#333"/><path d="M-977.12 194.1l-14.26 4.63v-9.27z" stroke="#333" fill="#333"/><path d="M-644.73 194.6h-8.25l-1.82.13-1.75.43-1.67.7-1.54.93-1.37 1.16-1.17 1.37-.95 1.54-.7 1.67-.4 1.75-.15 1.8V378l.14 1.82.42 1.75.7 1.67.94 1.54 1.17 1.37 1.37 1.17 1.54.94 1.67.7 1.75.42 1.82.14h565.96l1.82-.14 1.75-.42 1.67-.7 1.54-.94 1.37-1.17 1.17-1.37.95-1.54.7-1.67.4-1.75.15-1.82V270.7h1v107.32l-.15 1.94-.46 1.9-.76 1.82-1.03 1.67-1.26 1.5-1.5 1.26-1.66 1.04-1.82.75-1.9.45-1.94.15h-566.04l-1.94-.15-1.9-.46-1.82-.76-1.67-1.03-1.5-1.26-1.26-1.5-1.04-1.66-.75-1.82-.45-1.9-.15-1.94V206.07l.15-1.93.46-1.9.76-1.82 1.03-1.68 1.26-1.5 1.5-1.26 1.66-1.03 1.82-.75 1.9-.46 1.94-.15h8.3zm559.7-.86l1.9.46 1.8.75 1.68 1.03 1.5 1.27 1.26 1.5 1.04 1.67.75 1.8.45 1.92.15 1.93v43.03h-1v-43l-.14-1.8-.42-1.76-.7-1.67-.94-1.54-1.17-1.37-1.37-1.17-1.54-.95-1.67-.7-1.75-.42-1.82-.14h-46.7v-1h46.74z" stroke="#333" stroke-width=".05" fill="#333"/><path d="M-133.7 194.6h-.5v-1h.5z" fill="#333"/><path d="M-133.68 194.62h-.56v-1.05h.56zm-.5-1v.95h.45v-.95z" stroke="#333" stroke-width=".05" fill="#333"/><path d="M-629.96 194.1l-14.26 4.63v-9.27z" fill="#333"/><path d="M-628.34 194.1l-16.38 5.3v-10.63zm-15.38 3.94l12.14-3.95-12.14-3.96z" stroke="#333" stroke-width=".05" fill="#333"/><use xlink:href="#u" transform="matrix(1,0,0,1,-124.92500000000001,249.0983585987439) translate(0.005000000000002558 14.4)"/><path d="M-115.7 101.22l-2.04 4.52m-2.03 4.52l-4.07 9.04m-2.03 4.52l-4.07 9.03m-2.03 4.52l-2.04 4.52" stroke="#333" fill="none"/><path d="M-115.5 101.33l-.67-.3.67-1.48zM-133.55 142.1l-.66 1.47v-1.78z" stroke="#333" stroke-width=".05" fill="#333"/><path d="M-3.74 194.02c0 11.05-8.96 20-20 20-11.05 0-20-8.95-20-20 0-11.04 8.95-20 20-20 11.04 0 20 8.96 20 20z" stroke="#333" fill="#fff"/><path d="M-11.74 194.02c0 6.63-5.37 12-12 12s-12-5.37-12-12c0-6.62 5.37-12 12-12s12 5.38 12 12z" stroke="#333"/><path d="M-133.7 194.14h73.07" stroke="#333" fill="none"/><path d="M-133.7 194.64h-.5v-1h.5z" stroke="#333" stroke-width=".05" fill="#333"/><path d="M-45.86 194.14l-14.26 4.64v-9.28z" stroke="#333" fill="#333"/><path d="M-954.17 142.02c-11.5 0-20.83 9.32-20.83 20.83v62.5c0 11.5 9.33 20.82 20.83 20.82h86.55c11.5 0 20.83-9.33 20.83-20.83v-62.5c0-11.5-9.32-20.82-20.82-20.82z" stroke="#282c33" fill="#522785" fill-opacity=".5"/><g><use xlink:href="#v" transform="matrix(1,0,0,1,-967,150.01670225904934) translate(6.228395061728385 26.72222222222222)"/><use xlink:href="#w" transform="matrix(1,0,0,1,-967,150.01670225904934) translate(48.648148148148145 26.72222222222222)"/><use xlink:href="#x" transform="matrix(1,0,0,1,-967,150.01670225904934) translate(20.05555555555555 48.05555555555556)"/><use xlink:href="#y" transform="matrix(1,0,0,1,-967,150.01670225904934) translate(24.94444444444444 69.3888888888889)"/></g><path d="M-845.8 194.1h13.92" stroke="#333" fill="none"/><path d="M-845.78 194.6h-.5v-1h.5z" stroke="#333" stroke-width=".05" fill="#333"/><path d="M-817.12 194.1l-14.26 4.63v-9.27z" stroke="#333" fill="#333"/><path d="M-474.17 263.97c-11.5 0-20.83 9.32-20.83 20.82v62.5c0 11.5 9.33 20.8 20.83 20.8h108.5c11.5 0 20.84-9.3 20.84-20.8v-62.5c0-11.5-9.33-20.83-20.83-20.83z" stroke="#282c33" fill="#f15a24" fill-opacity=".7"/><g><use xlink:href="#a" transform="matrix(1,0,0,1,-486.9999999999999,271.96558063460384) translate(13.228395061728392 37.388888888888886)"/><use xlink:href="#m" transform="matrix(1,0,0,1,-486.9999999999999,271.96558063460384) translate(68.48765432098764 37.388888888888886)"/><use xlink:href="#z" transform="matrix(1,0,0,1,-486.9999999999999,271.96558063460384) translate(94.11728395061728 37.388888888888886)"/><use xlink:href="#A" transform="matrix(1,0,0,1,-486.9999999999999,271.96558063460384) translate(33.4753086419753 58.72222222222222)"/></g><path d="M-606.34 316.04h94.45M-606.33 316.04h-.5" stroke="#333" fill="none"/><path d="M-497.12 316.04l-14.26 4.63v-9.27z" stroke="#333" fill="#333"/><path d="M-343.83 316.04h171.95" stroke="#333" fill="none"/><path d="M-343.82 316.54h-.5v-1h.5z" stroke="#333" stroke-width=".05" fill="#333"/><path d="M-157.12 316.04l-14.26 4.63v-9.27z" stroke="#333" fill="#333"/><path d="M-794.17 141.53c-11.5 0-20.83 9.33-20.83 20.83v62.5c0 11.5 9.33 20.82 20.83 20.82h86.55c11.5 0 20.83-9.32 20.83-20.83v-62.5c0-11.5-9.32-20.82-20.82-20.82z" stroke="#282c33" fill-opacity="0"/><g><use xlink:href="#B" transform="matrix(1,0,0,1,-807,149.53290056194732) translate(37.75925925925925 26.72222222222222)"/><use xlink:href="#C" transform="matrix(1,0,0,1,-807,149.53290056194732) translate(9.166666666666671 48.05555555555556)"/><use xlink:href="#D" transform="matrix(1,0,0,1,-807,149.53290056194732) translate(14.54938271604938 69.3888888888889)"/></g><path d="M-685.8 193.6h41.07" stroke="#000" fill="none"/><path d="M-685.78 194.1h-.5v-1h.5z" stroke="#000" stroke-width=".05"/><path d="M-629.96 193.6l-14.26 4.64v-9.27z" stroke="#000"/><defs><path fill="#333" d="M212-179c-10-28-35-45-73-45-59 0-87 40-87 99 0 60 29 101 89 101 43 0 62-24 78-52l27 14C228-24 195 4 139 4 59 4 22-46 18-125c-6-104 99-153 187-111 19 9 31 26 39 46" id="E"/><path fill="#333" d="M106-169C34-169 62-67 57 0H25v-261h32l-1 103c12-21 28-36 61-36 89 0 53 116 60 194h-32v-121c2-32-8-49-39-48" id="F"/><path fill="#333" d="M100-194c63 0 86 42 84 106H49c0 40 14 67 53 68 26 1 43-12 49-29l28 8c-11 28-37 45-77 45C44 4 14-33 15-96c1-61 26-98 85-98zm52 81c6-60-76-77-97-28-3 7-6 17-6 28h103" id="G"/><path fill="#333" d="M96-169c-40 0-48 33-48 73s9 75 48 75c24 0 41-14 43-38l32 2c-6 37-31 61-74 61-59 0-76-41-82-99-10-93 101-131 147-64 4 7 5 14 7 22l-32 3c-4-21-16-35-41-35" id="H"/><path fill="#333" d="M143 0L79-87 56-68V0H24v-261h32v163l83-92h37l-77 82L181 0h-38" id="I"/><g id="a"><use transform="matrix(0.04938271604938272,0,0,0.04938271604938272,0,0)" xlink:href="#E"/><use transform="matrix(0.04938271604938272,0,0,0.04938271604938272,12.790123456790125,0)" xlink:href="#F"/><use transform="matrix(0.04938271604938272,0,0,0.04938271604938272,22.66666666666667,0)" xlink:href="#G"/><use transform="matrix(0.04938271604938272,0,0,0.04938271604938272,32.543209876543216,0)" xlink:href="#H"/><use transform="matrix(0.04938271604938272,0,0,0.04938271604938272,41.4320987654321,0)" xlink:href="#I"/></g><path fill="#333" d="M101-234c-31-9-42 10-38 44h38v23H63V0H32v-167H5v-23h27c-7-52 17-82 69-68v24" id="J"/><path fill="#333" d="M100-194c62-1 85 37 85 99 1 63-27 99-86 99S16-35 15-95c0-66 28-99 85-99zM99-20c44 1 53-31 53-75 0-43-8-75-51-75s-53 32-53 75 10 74 51 75" id="K"/><path fill="#333" d="M114-163C36-179 61-72 57 0H25l-1-190h30c1 12-1 29 2 39 6-27 23-49 58-41v29" id="L"/><g id="b"><use transform="matrix(0.04938271604938272,0,0,0.04938271604938272,0,0)" xlink:href="#J"/><use transform="matrix(0.04938271604938272,0,0,0.04938271604938272,4.938271604938272,0)" xlink:href="#K"/><use transform="matrix(0.04938271604938272,0,0,0.04938271604938272,14.814814814814817,0)" xlink:href="#L"/></g><path fill="#333" d="M84 4C-5 8 30-112 23-190h32v120c0 31 7 50 39 49 72-2 45-101 50-169h31l1 190h-30c-1-10 1-25-2-33-11 22-28 36-60 37" id="M"/><path fill="#333" d="M115-194c55 1 70 41 70 98S169 2 115 4C84 4 66-9 55-30l1 105H24l-1-265h31l2 30c10-21 28-34 59-34zm-8 174c40 0 45-34 45-75s-6-73-45-74c-42 0-51 32-51 76 0 43 10 73 51 73" id="N"/><path fill="#333" d="M177-190C167-65 218 103 67 71c-23-6-38-20-44-43l32-5c15 47 100 32 89-28v-30C133-14 115 1 83 1 29 1 15-40 15-95c0-56 16-97 71-98 29-1 48 16 59 35 1-10 0-23 2-32h30zM94-22c36 0 50-32 50-73 0-42-14-75-50-75-39 0-46 34-46 75s6 73 46 73" id="O"/><path fill="#333" d="M141-36C126-15 110 5 73 4 37 3 15-17 15-53c-1-64 63-63 125-63 3-35-9-54-41-54-24 1-41 7-42 31l-33-3c5-37 33-52 76-52 45 0 72 20 72 64v82c-1 20 7 32 28 27v20c-31 9-61-2-59-35zM48-53c0 20 12 33 32 33 41-3 63-29 60-74-43 2-92-5-92 41" id="P"/><path fill="#333" d="M85-194c31 0 48 13 60 33l-1-100h32l1 261h-30c-2-10 0-23-3-31C134-8 116 4 85 4 32 4 16-35 15-94c0-66 23-100 70-100zm9 24c-40 0-46 34-46 75 0 40 6 74 45 74 42 0 51-32 51-76 0-42-9-74-50-73" id="Q"/><path fill="#333" d="M135-143c-3-34-86-38-87 0 15 53 115 12 119 90S17 21 10-45l28-5c4 36 97 45 98 0-10-56-113-15-118-90-4-57 82-63 122-42 12 7 21 19 24 35" id="R"/><g id="c"><use transform="matrix(0.04938271604938272,0,0,0.04938271604938272,0,0)" xlink:href="#M"/><use transform="matrix(0.04938271604938272,0,0,0.04938271604938272,9.876543209876544,0)" xlink:href="#N"/><use transform="matrix(0.04938271604938272,0,0,0.04938271604938272,19.75308641975309,0)" xlink:href="#O"/><use transform="matrix(0.04938271604938272,0,0,0.04938271604938272,29.629629629629633,0)" xlink:href="#L"/><use transform="matrix(0.04938271604938272,0,0,0.04938271604938272,35.50617283950618,0)" xlink:href="#P"/><use transform="matrix(0.04938271604938272,0,0,0.04938271604938272,45.38271604938272,0)" xlink:href="#Q"/><use transform="matrix(0.04938271604938272,0,0,0.04938271604938272,55.25925925925927,0)" xlink:href="#G"/><use transform="matrix(0.04938271604938272,0,0,0.04938271604938272,65.13580246913581,0)" xlink:href="#R"/></g><path fill="#333" d="M190 0L58-211 59 0H30v-248h39L202-35l-2-213h31V0h-41" id="S"/><g id="d"><use transform="matrix(0.05,0,0,0.05,0,0)" xlink:href="#S"/><use transform="matrix(0.05,0,0,0.05,12.950000000000001,0)" xlink:href="#K"/></g><path fill="#333" d="M109-170H84l-4-78h32zm-65 0H19l-4-78h33" id="T"/><g id="e"><use transform="matrix(0.05,0,0,0.05,0,0)" xlink:href="#T"/><use transform="matrix(0.05,0,0,0.05,6.3500000000000005,0)" xlink:href="#F"/><use transform="matrix(0.05,0,0,0.05,16.35,0)" xlink:href="#P"/><use transform="matrix(0.05,0,0,0.05,26.35,0)" xlink:href="#L"/><use transform="matrix(0.05,0,0,0.05,32.300000000000004,0)" xlink:href="#Q"/><use transform="matrix(0.05,0,0,0.05,42.300000000000004,0)" xlink:href="#T"/></g><path fill="#333" d="M179-190L93 31C79 59 56 82 12 73V49c39 6 53-20 64-50L1-190h34L92-34l54-156h33" id="U"/><path fill="#333" d="M117-194c89-4 53 116 60 194h-32v-121c0-31-8-49-39-48C34-167 62-67 57 0H25l-1-190h30c1 10-1 24 2 32 11-22 29-35 61-36" id="V"/><path fill="#333" d="M33 0v-38h34V0H33" id="W"/><g id="f"><use transform="matrix(0.05,0,0,0.05,0,0)" xlink:href="#R"/><use transform="matrix(0.05,0,0,0.05,9,0)" xlink:href="#U"/><use transform="matrix(0.05,0,0,0.05,18,0)" xlink:href="#V"/><use transform="matrix(0.05,0,0,0.05,28,0)" xlink:href="#H"/><use transform="matrix(0.05,0,0,0.05,37,0)" xlink:href="#W"/></g><path fill="#333" d="M115-194c53 0 69 39 70 98 0 66-23 100-70 100C84 3 66-7 56-30L54 0H23l1-261h32v101c10-23 28-34 59-34zm-8 174c40 0 45-34 45-75 0-40-5-75-45-74-42 0-51 32-51 76 0 43 10 73 51 73" id="X"/><path fill="#333" d="M59-47c-2 24 18 29 38 22v24C64 9 27 4 27-40v-127H5v-23h24l9-43h21v43h35v23H59v120" id="Y"/><g id="g"><use transform="matrix(0.05,0,0,0.05,0,0)" xlink:href="#X"/><use transform="matrix(0.05,0,0,0.05,10,0)" xlink:href="#M"/><use transform="matrix(0.05,0,0,0.05,20,0)" xlink:href="#Y"/></g><path fill="#333" d="M24 0v-261h32V0H24" id="Z"/><path fill="#333" d="M24-231v-30h32v30H24zM24 0v-190h32V0H24" id="aa"/><g id="h"><use transform="matrix(0.05,0,0,0.05,0,0)" xlink:href="#R"/><use transform="matrix(0.05,0,0,0.05,9,0)" xlink:href="#Z"/><use transform="matrix(0.05,0,0,0.05,12.949999999999998,0)" xlink:href="#G"/><use transform="matrix(0.05,0,0,0.05,22.95,0)" xlink:href="#G"/><use transform="matrix(0.05,0,0,0.05,32.95,0)" xlink:href="#N"/><use transform="matrix(0.05,0,0,0.05,42.95,0)" xlink:href="#aa"/><use transform="matrix(0.05,0,0,0.05,46.900000000000006,0)" xlink:href="#V"/><use transform="matrix(0.05,0,0,0.05,56.900000000000006,0)" xlink:href="#O"/></g><path fill="#333" d="M145-31C134-9 116 4 85 4 32 4 16-35 15-94c0-59 17-99 70-100 32-1 48 14 60 33 0-11-1-24 2-32h30l-1 268h-32zM93-21c41 0 51-33 51-76s-8-73-50-73c-40 0-46 35-46 75s5 74 45 74" id="ab"/><g id="i"><use transform="matrix(0.05,0,0,0.05,0,0)" xlink:href="#G"/><use transform="matrix(0.05,0,0,0.05,10,0)" xlink:href="#ab"/><use transform="matrix(0.05,0,0,0.05,20,0)" xlink:href="#M"/><use transform="matrix(0.05,0,0,0.05,30,0)" xlink:href="#P"/><use transform="matrix(0.05,0,0,0.05,40,0)" xlink:href="#Z"/><use transform="matrix(0.05,0,0,0.05,43.95,0)" xlink:href="#Z"/><use transform="matrix(0.05,0,0,0.05,47.900000000000006,0)" xlink:href="#U"/></g><g id="j"><use transform="matrix(0.05,0,0,0.05,0,0)" xlink:href="#Z"/><use transform="matrix(0.05,0,0,0.05,3.95,0)" xlink:href="#K"/><use transform="matrix(0.05,0,0,0.05,13.949999999999998,0)" xlink:href="#V"/><use transform="matrix(0.05,0,0,0.05,23.95,0)" xlink:href="#O"/></g><path fill="#333" d="M87 75C49 33 22-17 22-94c0-76 28-126 65-167h31c-38 41-64 92-64 168S80 34 118 75H87" id="ac"/><path fill="#333" d="M27 0v-27h64v-190l-56 39v-29l58-41h29v221h61V0H27" id="ad"/><path fill="#333" d="M101-251c68 0 85 55 85 127S166 4 100 4C33 4 14-52 14-124c0-73 17-127 87-127zm-1 229c47 0 54-49 54-102s-4-102-53-102c-51 0-55 48-55 102 0 53 5 102 54 102" id="ae"/><g id="k"><use transform="matrix(0.05,0,0,0.05,0,0)" xlink:href="#ac"/><use transform="matrix(0.05,0,0,0.05,5.95,0)" xlink:href="#ad"/><use transform="matrix(0.05,0,0,0.05,15.949999999999998,0)" xlink:href="#ae"/></g><path fill="#333" d="M33-261c38 41 65 92 65 168S71 34 33 75H2C39 34 66-17 66-93S39-220 2-261h31" id="af"/><g id="l"><use transform="matrix(0.05,0,0,0.05,0,0)" xlink:href="#R"/><use transform="matrix(0.05,0,0,0.05,9,0)" xlink:href="#G"/><use transform="matrix(0.05,0,0,0.05,19,0)" xlink:href="#H"/><use transform="matrix(0.05,0,0,0.05,28,0)" xlink:href="#af"/></g><g id="m"><use transform="matrix(0.04938271604938272,0,0,0.04938271604938272,0,0)" xlink:href="#J"/><use transform="matrix(0.04938271604938272,0,0,0.04938271604938272,4.938271604938272,0)" xlink:href="#K"/><use transform="matrix(0.04938271604938272,0,0,0.04938271604938272,14.814814814814817,0)" xlink:href="#L"/></g><path fill="#333" d="M206 0h-36l-40-164L89 0H53L-1-190h32L70-26l43-164h34l41 164 42-164h31" id="ag"/><g id="n"><use transform="matrix(0.04938271604938272,0,0,0.04938271604938272,0,0)" xlink:href="#J"/><use transform="matrix(0.04938271604938272,0,0,0.04938271604938272,4.938271604938272,0)" xlink:href="#aa"/><use transform="matrix(0.04938271604938272,0,0,0.04938271604938272,8.839506172839506,0)" xlink:href="#L"/><use transform="matrix(0.04938271604938272,0,0,0.04938271604938272,14.71604938271605,0)" xlink:href="#G"/><use transform="matrix(0.04938271604938272,0,0,0.04938271604938272,24.592592592592595,0)" xlink:href="#ag"/><use transform="matrix(0.04938271604938272,0,0,0.04938271604938272,37.38271604938272,0)" xlink:href="#P"/><use transform="matrix(0.04938271604938272,0,0,0.04938271604938272,47.25925925925927,0)" xlink:href="#Z"/><use transform="matrix(0.04938271604938272,0,0,0.04938271604938272,51.1604938271605,0)" xlink:href="#Z"/></g><g id="o"><use transform="matrix(0.04938271604938272,0,0,0.04938271604938272,0,0)" xlink:href="#M"/><use transform="matrix(0.04938271604938272,0,0,0.04938271604938272,9.876543209876544,0)" xlink:href="#N"/><use transform="matrix(0.04938271604938272,0,0,0.04938271604938272,19.75308641975309,0)" xlink:href="#Q"/><use transform="matrix(0.04938271604938272,0,0,0.04938271604938272,29.629629629629633,0)" xlink:href="#P"/><use transform="matrix(0.04938271604938272,0,0,0.04938271604938272,39.50617283950618,0)" xlink:href="#Y"/><use transform="matrix(0.04938271604938272,0,0,0.04938271604938272,44.44444444444445,0)" xlink:href="#G"/><use transform="matrix(0.04938271604938272,0,0,0.04938271604938272,54.320987654320994,0)" xlink:href="#R"/></g><path fill="#333" d="M185-189c-5-48-123-54-124 2 14 75 158 14 163 119 3 78-121 87-175 55-17-10-28-26-33-46l33-7c5 56 141 63 141-1 0-78-155-14-162-118-5-82 145-84 179-34 5 7 8 16 11 25" id="ah"/><path fill="#333" d="M197 0v-115H63V0H30v-248h33v105h134v-105h34V0h-34" id="ai"/><g id="p"><use transform="matrix(0.04938271604938272,0,0,0.04938271604938272,0,0)" xlink:href="#ah"/><use transform="matrix(0.04938271604938272,0,0,0.04938271604938272,11.851851851851853,0)" xlink:href="#ah"/><use transform="matrix(0.04938271604938272,0,0,0.04938271604938272,23.703703703703706,0)" xlink:href="#ai"/></g><g id="q"><use transform="matrix(0.04938271604938272,0,0,0.04938271604938272,0,0)" xlink:href="#I"/><use transform="matrix(0.04938271604938272,0,0,0.04938271604938272,8.88888888888889,0)" xlink:href="#G"/><use transform="matrix(0.04938271604938272,0,0,0.04938271604938272,18.765432098765434,0)" xlink:href="#U"/><use transform="matrix(0.04938271604938272,0,0,0.04938271604938272,27.654320987654323,0)" xlink:href="#R"/><use transform="matrix(0.04938271604938272,0,0,0.04938271604938272,36.543209876543216,0)" xlink:href="#G"/><use transform="matrix(0.04938271604938272,0,0,0.04938271604938272,46.41975308641976,0)" xlink:href="#Y"/></g><g id="r"><use transform="matrix(0.04938271604938272,0,0,0.04938271604938272,0,0)" xlink:href="#H"/><use transform="matrix(0.04938271604938272,0,0,0.04938271604938272,8.88888888888889,0)" xlink:href="#F"/><use transform="matrix(0.04938271604938272,0,0,0.04938271604938272,18.765432098765434,0)" xlink:href="#P"/><use transform="matrix(0.04938271604938272,0,0,0.04938271604938272,28.641975308641978,0)" xlink:href="#V"/><use transform="matrix(0.04938271604938272,0,0,0.04938271604938272,38.51851851851852,0)" xlink:href="#O"/><use transform="matrix(0.04938271604938272,0,0,0.04938271604938272,48.39506172839506,0)" xlink:href="#G"/><use transform="matrix(0.04938271604938272,0,0,0.04938271604938272,58.27160493827161,0)" xlink:href="#R"/></g><path fill="#333" d="M26 75v-336h71v23H56V52h41v23H26" id="aj"/><path fill="#333" d="M54-142c48-35 137-8 131 61C196 18 31 33 14-55l32-4c7 23 22 37 52 37 35-1 51-22 54-58 4-55-73-65-99-34H22l8-134h141v27H59" id="ak"/><path fill="#333" d="M210-169c-67 3-38 105-44 169h-31v-121c0-29-5-50-35-48C34-165 62-65 56 0H25l-1-190h30c1 10-1 24 2 32 10-44 99-50 107 0 11-21 27-35 58-36 85-2 47 119 55 194h-31v-121c0-29-5-49-35-48" id="al"/><g id="s"><use transform="matrix(0.05,0,0,0.05,0,0)" xlink:href="#aj"/><use transform="matrix(0.05,0,0,0.05,5,0)" xlink:href="#ad"/><use transform="matrix(0.05,0,0,0.05,15,0)" xlink:href="#ak"/><use transform="matrix(0.05,0,0,0.05,25,0)" xlink:href="#al"/><use transform="matrix(0.05,0,0,0.05,39.95,0)" xlink:href="#aa"/><use transform="matrix(0.05,0,0,0.05,43.900000000000006,0)" xlink:href="#V"/></g><path fill="#333" d="M3 75V52h41v-290H3v-23h71V75H3" id="am"/><g id="t"><use transform="matrix(0.05,0,0,0.05,0,0)" xlink:href="#Y"/><use transform="matrix(0.05,0,0,0.05,5,0)" xlink:href="#aa"/><use transform="matrix(0.05,0,0,0.05,8.95,0)" xlink:href="#al"/><use transform="matrix(0.05,0,0,0.05,23.9,0)" xlink:href="#G"/><use transform="matrix(0.05,0,0,0.05,33.9,0)" xlink:href="#K"/><use transform="matrix(0.05,0,0,0.05,43.9,0)" xlink:href="#M"/><use transform="matrix(0.05,0,0,0.05,53.900000000000006,0)" xlink:href="#Y"/><use transform="matrix(0.05,0,0,0.05,58.900000000000006,0)" xlink:href="#am"/></g><path fill="#333" d="M63-70H37l-4-178h34zM33 0v-35h34V0H33" id="an"/><path fill="#333" d="M141 0L90-78 38 0H4l68-98-65-92h35l48 74 47-74h35l-64 92 68 98h-35" id="ao"/><path fill="#333" d="M-5 72V49h209v23H-5" id="ap"/><g id="u"><use transform="matrix(0.05,0,0,0.05,0,0)" xlink:href="#aj"/><use transform="matrix(0.05,0,0,0.05,5,0)" xlink:href="#an"/><use transform="matrix(0.05,0,0,0.05,10,0)" xlink:href="#G"/><use transform="matrix(0.05,0,0,0.05,20,0)" xlink:href="#ao"/><use transform="matrix(0.05,0,0,0.05,29,0)" xlink:href="#aa"/><use transform="matrix(0.05,0,0,0.05,32.95,0)" xlink:href="#Y"/><use transform="matrix(0.05,0,0,0.05,37.95,0)" xlink:href="#ap"/><use transform="matrix(0.05,0,0,0.05,47.95,0)" xlink:href="#R"/><use transform="matrix(0.05,0,0,0.05,56.95,0)" xlink:href="#aa"/><use transform="matrix(0.05,0,0,0.05,60.900000000000006,0)" xlink:href="#O"/><use transform="matrix(0.05,0,0,0.05,70.9,0)" xlink:href="#V"/><use transform="matrix(0.05,0,0,0.05,80.9,0)" xlink:href="#P"/><use transform="matrix(0.05,0,0,0.05,90.9,0)" xlink:href="#Z"/><use transform="matrix(0.05,0,0,0.05,94.85000000000001,0)" xlink:href="#am"/></g><g id="v"><use transform="matrix(0.04938271604938272,0,0,0.04938271604938272,0,0)" xlink:href="#ah"/><use transform="matrix(0.04938271604938272,0,0,0.04938271604938272,11.851851851851853,0)" xlink:href="#Y"/><use transform="matrix(0.04938271604938272,0,0,0.04938271604938272,16.790123456790127,0)" xlink:href="#P"/><use transform="matrix(0.04938271604938272,0,0,0.04938271604938272,26.666666666666668,0)" xlink:href="#L"/><use transform="matrix(0.04938271604938272,0,0,0.04938271604938272,32.543209876543216,0)" xlink:href="#Y"/></g><g id="w"><use transform="matrix(0.04938271604938272,0,0,0.04938271604938272,0,0)" xlink:href="#L"/><use transform="matrix(0.04938271604938272,0,0,0.04938271604938272,5.8765432098765435,0)" xlink:href="#G"/><use transform="matrix(0.04938271604938272,0,0,0.04938271604938272,15.753086419753087,0)" xlink:href="#O"/><use transform="matrix(0.04938271604938272,0,0,0.04938271604938272,25.629629629629633,0)" xlink:href="#aa"/><use transform="matrix(0.04938271604938272,0,0,0.04938271604938272,29.530864197530867,0)" xlink:href="#R"/><use transform="matrix(0.04938271604938272,0,0,0.04938271604938272,38.41975308641976,0)" xlink:href="#Y"/><use transform="matrix(0.04938271604938272,0,0,0.04938271604938272,43.35802469135803,0)" xlink:href="#L"/><use transform="matrix(0.04938271604938272,0,0,0.04938271604938272,49.23456790123458,0)" xlink:href="#U"/></g><g id="x"><use transform="matrix(0.04938271604938272,0,0,0.04938271604938272,0,0)" xlink:href="#L"/><use transform="matrix(0.04938271604938272,0,0,0.04938271604938272,5.8765432098765435,0)" xlink:href="#G"/><use transform="matrix(0.04938271604938272,0,0,0.04938271604938272,15.753086419753087,0)" xlink:href="#N"/><use transform="matrix(0.04938271604938272,0,0,0.04938271604938272,25.629629629629633,0)" xlink:href="#Z"/><use transform="matrix(0.04938271604938272,0,0,0.04938271604938272,29.530864197530867,0)" xlink:href="#aa"/><use transform="matrix(0.04938271604938272,0,0,0.04938271604938272,33.4320987654321,0)" xlink:href="#H"/><use transform="matrix(0.04938271604938272,0,0,0.04938271604938272,42.32098765432099,0)" xlink:href="#P"/><use transform="matrix(0.04938271604938272,0,0,0.04938271604938272,52.19753086419754,0)" xlink:href="#Y"/><use transform="matrix(0.04938271604938272,0,0,0.04938271604938272,57.135802469135804,0)" xlink:href="#K"/><use transform="matrix(0.04938271604938272,0,0,0.04938271604938272,67.01234567901236,0)" xlink:href="#L"/></g><g id="y"><use transform="matrix(0.04938271604938272,0,0,0.04938271604938272,0,0)" xlink:href="#ac"/><use transform="matrix(0.04938271604938272,0,0,0.04938271604938272,5.8765432098765435,0)" xlink:href="#P"/><use transform="matrix(0.04938271604938272,0,0,0.04938271604938272,15.753086419753087,0)" xlink:href="#R"/><use transform="matrix(0.04938271604938272,0,0,0.04938271604938272,24.641975308641978,0)" xlink:href="#U"/><use transform="matrix(0.04938271604938272,0,0,0.04938271604938272,33.53086419753087,0)" xlink:href="#V"/><use transform="matrix(0.04938271604938272,0,0,0.04938271604938272,43.40740740740741,0)" xlink:href="#H"/><use transform="matrix(0.04938271604938272,0,0,0.04938271604938272,52.2962962962963,0)" xlink:href="#W"/><use transform="matrix(0.04938271604938272,0,0,0.04938271604938272,57.23456790123457,0)" xlink:href="#af"/></g><g id="z"><use transform="matrix(0.04938271604938272,0,0,0.04938271604938272,0,0)" xlink:href="#I"/><use transform="matrix(0.04938271604938272,0,0,0.04938271604938272,8.88888888888889,0)" xlink:href="#G"/><use transform="matrix(0.04938271604938272,0,0,0.04938271604938272,18.765432098765434,0)" xlink:href="#U"/></g><g id="A"><use transform="matrix(0.04938271604938272,0,0,0.04938271604938272,0,0)" xlink:href="#L"/><use transform="matrix(0.04938271604938272,0,0,0.04938271604938272,5.8765432098765435,0)" xlink:href="#K"/><use transform="matrix(0.04938271604938272,0,0,0.04938271604938272,15.753086419753087,0)" xlink:href="#Y"/><use transform="matrix(0.04938271604938272,0,0,0.04938271604938272,20.69135802469136,0)" xlink:href="#P"/><use transform="matrix(0.04938271604938272,0,0,0.04938271604938272,30.567901234567906,0)" xlink:href="#Y"/><use transform="matrix(0.04938271604938272,0,0,0.04938271604938272,35.50617283950618,0)" xlink:href="#aa"/><use transform="matrix(0.04938271604938272,0,0,0.04938271604938272,39.40740740740741,0)" xlink:href="#K"/><use transform="matrix(0.04938271604938272,0,0,0.04938271604938272,49.283950617283956,0)" xlink:href="#V"/><use transform="matrix(0.04938271604938272,0,0,0.04938271604938272,59.1604938271605,0)" xlink:href="#R"/></g><g id="B"><use transform="matrix(0.04938271604938272,0,0,0.04938271604938272,0,0)" xlink:href="#ah"/><use transform="matrix(0.04938271604938272,0,0,0.04938271604938272,11.851851851851853,0)" xlink:href="#Y"/><use transform="matrix(0.04938271604938272,0,0,0.04938271604938272,16.790123456790127,0)" xlink:href="#P"/><use transform="matrix(0.04938271604938272,0,0,0.04938271604938272,26.666666666666668,0)" xlink:href="#L"/><use transform="matrix(0.04938271604938272,0,0,0.04938271604938272,32.543209876543216,0)" xlink:href="#Y"/></g><g id="C"><use transform="matrix(0.04938271604938272,0,0,0.04938271604938272,0,0)" xlink:href="#K"/><use transform="matrix(0.04938271604938272,0,0,0.04938271604938272,9.876543209876544,0)" xlink:href="#L"/><use transform="matrix(0.04938271604938272,0,0,0.04938271604938272,15.753086419753087,0)" xlink:href="#H"/><use transform="matrix(0.04938271604938272,0,0,0.04938271604938272,24.641975308641978,0)" xlink:href="#F"/><use transform="matrix(0.04938271604938272,0,0,0.04938271604938272,34.51851851851852,0)" xlink:href="#G"/><use transform="matrix(0.04938271604938272,0,0,0.04938271604938272,44.39506172839506,0)" xlink:href="#R"/><use transform="matrix(0.04938271604938272,0,0,0.04938271604938272,53.28395061728394,0)" xlink:href="#Y"/><use transform="matrix(0.04938271604938272,0,0,0.04938271604938272,58.222222222222214,0)" xlink:href="#L"/><use transform="matrix(0.04938271604938272,0,0,0.04938271604938272,64.09876543209876,0)" xlink:href="#P"/><use transform="matrix(0.04938271604938272,0,0,0.04938271604938272,73.9753086419753,0)" xlink:href="#Y"/><use transform="matrix(0.04938271604938272,0,0,0.04938271604938272,78.91358024691357,0)" xlink:href="#K"/><use transform="matrix(0.04938271604938272,0,0,0.04938271604938272,88.79012345679011,0)" xlink:href="#L"/></g><g id="D"><use transform="matrix(0.04938271604938272,0,0,0.04938271604938272,0,0)" xlink:href="#Q"/><use transform="matrix(0.04938271604938272,0,0,0.04938271604938272,9.876543209876544,0)" xlink:href="#P"/><use transform="matrix(0.04938271604938272,0,0,0.04938271604938272,19.75308641975309,0)" xlink:href="#R"/><use transform="matrix(0.04938271604938272,0,0,0.04938271604938272,28.641975308641978,0)" xlink:href="#F"/><use transform="matrix(0.04938271604938272,0,0,0.04938271604938272,38.51851851851852,0)" xlink:href="#X"/><use transform="matrix(0.04938271604938272,0,0,0.04938271604938272,48.39506172839506,0)" xlink:href="#K"/><use transform="matrix(0.04938271604938272,0,0,0.04938271604938272,58.27160493827161,0)" xlink:href="#P"/><use transform="matrix(0.04938271604938272,0,0,0.04938271604938272,68.14814814814815,0)" xlink:href="#L"/><use transform="matrix(0.04938271604938272,0,0,0.04938271604938272,74.0246913580247,0)" xlink:href="#Q"/></g></defs></g></svg>