<svg xmlns="http://www.w3.org/2000/svg" xmlns:xlink="http://www.w3.org/1999/xlink" xmlns:lucid="lucid" width="1346.32" height="327.63"><g transform="translate(1261 14)" lucid:page-tab-id="t9xVQgvJ4D26"><path d="M-921 144.9c0-4.42 3.58-8 8-8h144c4.42 0 8 3.58 8 8v8.15c0 4.42-3.58 8-8 8h-144c-4.42 0-8-3.58-8-8z" stroke="#fff" fill="#fff"/><path d="M-1137.43 6c-11.5 0-20.83 9.33-20.83 20.83v62.5c0 11.5 9.32 20.82 20.83 20.82h126.55c11.5 0 20.83-9.33 20.83-20.83v-62.5c0-11.5-9.33-20.82-20.83-20.82z" stroke="#282c33" fill="#fff"/><use xlink:href="#a" transform="matrix(1,0,0,1,-1150.263778961319,14) translate(11.932098765432087 37.388888888888886)"/><use xlink:href="#b" transform="matrix(1,0,0,1,-1150.263778961319,14) translate(45.51234567901234 37.388888888888886)"/><use xlink:href="#c" transform="matrix(1,0,0,1,-1150.263778961319,14) translate(92.87037037037037 37.388888888888886)"/><use xlink:href="#d" transform="matrix(1,0,0,1,-1150.263778961319,14) translate(16.37654320987653 58.72222222222222)"/><use xlink:href="#e" transform="matrix(1,0,0,1,-1150.263778961319,14) translate(79.43827160493828 58.72222222222222)"/><path d="M-818.56 6.9c-11.5 0-20.83 9.33-20.83 20.83v62.5c0 11.5 9.33 20.82 20.84 20.82H-692c11.5 0 20.82-9.33 20.82-20.83v-62.5c0-11.5-9.33-20.82-20.83-20.82z" stroke="#282c33" fill="#fff"/><use xlink:href="#f" transform="matrix(1,0,0,1,-831.3943449195967,14.900172006941489) translate(27.191358024691354 37.388888888888886)"/><use xlink:href="#g" transform="matrix(1,0,0,1,-831.3943449195967,14.900172006941489) translate(89.3641975308642 37.388888888888886)"/><use xlink:href="#e" transform="matrix(1,0,0,1,-831.3943449195967,14.900172006941489) translate(47.907407407407405 58.72222222222222)"/><path d="M-989.05 58.97H-856.28" stroke="#333" fill="none"/><path d="M-989.04 59.47h-.5v-1h.5z" stroke="#333" stroke-width=".05" fill="#333"/><path d="M-841.5 58.97l-14.28 4.64v-9.26z" stroke="#333" fill="#333"/><use xlink:href="#h" transform="matrix(1,0,0,1,-976.3721090775183,11.774792306010717) translate(1.6049999999999969 14.4)"/><use xlink:href="#i" transform="matrix(1,0,0,1,-976.3721090775183,11.774792306010717) translate(48.505 14.4)"/><use xlink:href="#j" transform="matrix(1,0,0,1,-976.3721090775183,11.774792306010717) translate(0.005000000000002558 36)"/><use xlink:href="#k" transform="matrix(1,0,0,1,-976.3721090775183,11.774792306010717) translate(34.005 36)"/><path d="M-173.85 106.83c-11.5 0-20.83 9.33-20.83 20.83v62.5c0 11.5 9.32 20.82 20.83 20.82H-47.3c11.5 0 20.83-9.32 20.83-20.83v-62.5c0-11.5-9.33-20.82-20.83-20.82z" stroke="#282c33" fill="#fff"/><use xlink:href="#l" transform="matrix(1,0,0,1,-186.68187736637913,114.83231488903743) translate(30.203703703703695 26.72222222222222)"/><use xlink:href="#m" transform="matrix(1,0,0,1,-186.68187736637913,114.83231488903743) translate(64.67283950617283 26.72222222222222)"/><use xlink:href="#n" transform="matrix(1,0,0,1,-186.68187736637913,114.83231488903743) translate(9.907407407407405 48.05555555555556)"/><use xlink:href="#o" transform="matrix(1,0,0,1,-186.68187736637913,114.83231488903743) translate(80.91975308641976 48.05555555555556)"/><use xlink:href="#p" transform="matrix(1,0,0,1,-186.68187736637913,114.83231488903743) translate(128.27777777777777 48.05555555555556)"/><use xlink:href="#q" transform="matrix(1,0,0,1,-186.68187736637913,114.83231488903743) translate(36.08024691358024 69.3888888888889)"/><use xlink:href="#r" transform="matrix(1,0,0,1,-186.68187736637913,114.83231488903743) translate(77.46296296296296 69.3888888888889)"/><path d="M-1073.66 284.8l.4 3.02 1.14 2.75 1.83 2.4 2.4 1.83 2.76 1.14 3 .4h58.9v1h-58.95l-3.2-.43-3-1.23-2.6-2-2-2.6-1.24-3-.42-3.2V111.14h1zm963.58.06l-.42 3.22-1.24 3-2 2.6-2.6 2-3 1.23-3.2.43h-781.7v-1h781.63l3-.4 2.76-1.13 2.4-1.84 1.83-2.4 1.13-2.74.4-3.02v-56.93h1z" stroke="#333" stroke-width=".05" fill="#333"/><path d="M-1073.66 111.16h-1v-.5h1z" fill="#333"/><path d="M-1073.63 111.2h-1.05v-.58h1.05zm-1-.53v.47h.95v-.47z" stroke="#333" stroke-width=".05" fill="#333"/><path d="M-105.94 227.37h-9.27l4.62-14.27z" fill="#333"/><path d="M-105.25 227.87h-10.65l5.32-16.4zm-9.27-1h7.9l-3.96-12.15z" stroke="#333" stroke-width=".05" fill="#333"/><use xlink:href="#s" transform="matrix(1,0,0,1,-1003.2279356264612,286.0323148890375) translate(0.005000000000002558 14.4)"/><path d="M-700.17 163.96c-11.5 0-20.83 9.32-20.83 20.83v62.48c0 11.5 9.33 20.83 20.83 20.83h126.55c11.5 0 20.83-9.32 20.83-20.82v-62.5c0-11.5-9.32-20.82-20.82-20.82z" stroke="#282c33" fill="#fff"/><use xlink:href="#t" transform="matrix(1,0,0,1,-713,171.95634788727162) translate(29.166666666666657 26.72222222222222)"/><use xlink:href="#m" transform="matrix(1,0,0,1,-713,171.95634788727162) translate(65.70987654320987 26.72222222222222)"/><use xlink:href="#u" transform="matrix(1,0,0,1,-713,171.95634788727162) translate(3.462962962962962 48.05555555555556)"/><use xlink:href="#v" transform="matrix(1,0,0,1,-713,171.95634788727162) translate(90.32716049382717 48.05555555555556)"/><use xlink:href="#w" transform="matrix(1,0,0,1,-713,171.95634788727162) translate(134.72222222222223 48.05555555555556)"/><use xlink:href="#x" transform="matrix(1,0,0,1,-713,171.95634788727162) translate(39.0432098765432 69.3888888888889)"/><use xlink:href="#y" transform="matrix(1,0,0,1,-713,171.95634788727162) translate(76.52469135802468 69.3888888888889)"/><path d="M-754.8 204l.4 3 1.15 2.77 1.83 2.4 2.4 1.82 2.75 1.14 3 .4h5.4v1h-5.45l-3.2-.43-3-1.23-2.6-2-2-2.6-1.25-3-.42-3.2v-51h1zm0-72.53h-1v-19.42h1z" stroke="#333" stroke-width=".05" fill="#333"/><path d="M-754.8 112.06h-1v-.5h1z" fill="#333"/><path d="M-754.76 112.1h-1.05v-.58h1.04zm-1-.53v.47h.95v-.47z" stroke="#333" stroke-width=".05" fill="#333"/><path d="M-723.12 216.03l-14.26 4.64v-9.27z" fill="#333"/><path d="M-721.5 216.03l-16.38 5.32V210.7zm-15.38 3.95l12.14-3.95-12.14-3.95z" stroke="#333" stroke-width=".05" fill="#333"/><use xlink:href="#z" transform="matrix(1,0,0,1,-915.6396273598094,131.47188577377545) translate(0.0049999999999954525 14.4)"/><use xlink:href="#A" transform="matrix(1,0,0,1,-915.6396273598094,131.47188577377545) translate(183.755 14.4)"/><use xlink:href="#B" transform="matrix(1,0,0,1,-915.6396273598094,131.47188577377545) translate(212.755 14.4)"/><path d="M-670.18 58.97h72.3" stroke="#333" fill="none"/><path d="M-670.17 59.47h-.5v-1h.5z" stroke="#333" stroke-width=".05" fill="#333"/><path d="M-583.12 58.97l-14.26 4.64v-9.26z" stroke="#333" fill="#333"/><path d="M-411.8 58.97h289.22c6.63 0 12 5.38 12 12v18.98" stroke="#333" fill="none"/><path d="M-411.78 59.47h-.5v-1h.5z" stroke="#333" stroke-width=".05" fill="#333"/><path d="M-110.58 104.7l-4.63-14.25h9.26z" stroke="#333" fill="#333"/><path d="M-480.17 163.96c-11.5 0-20.83 9.32-20.83 20.83v62.48c0 11.5 9.33 20.83 20.83 20.83h126.55c11.5 0 20.83-9.32 20.83-20.82v-62.5c0-11.5-9.32-20.82-20.82-20.82z" stroke="#282c33" fill="#fff"/><g><use xlink:href="#C" transform="matrix(1,0,0,1,-493,171.95634788727162) translate(5.932098765432102 48.05555555555555)"/><use xlink:href="#D" transform="matrix(1,0,0,1,-493,171.95634788727162) translate(40.45061728395062 48.05555555555555)"/><use xlink:href="#E" transform="matrix(1,0,0,1,-493,171.95634788727162) translate(84.89506172839506 48.05555555555555)"/></g><path d="M-551.8 216.03h33.92" stroke="#333" fill="none"/><path d="M-551.78 216.53h-.5v-1h.5z" stroke="#333" stroke-width=".05" fill="#333"/><path d="M-503.12 216.03l-14.26 4.64v-9.27z" stroke="#333" fill="#333"/><path d="M-301 188.62c0-4.42 3.58-8 8-8h64c4.42 0 8 3.58 8 8v64c0 4.42-3.58 8-8 8h-64c-4.42 0-8-3.58-8-8z" fill="none"/><path d="M-293 188.62l64 64m0-64l-64 64" stroke="#333" stroke-width="8" fill="none"/><path d="M-331.8 220.62h48.76" stroke="#333" fill="none"/><path d="M-331.78 221.12h-.5v-1h.5z" stroke="#333" stroke-width=".05" fill="#333"/><path d="M-268.28 220.62l-14.26 4.64V216z" stroke="#333" fill="#333"/><path d="M-1200 58.07h24.85" stroke="#333" fill="none"/><path d="M-1200 58.57h-.56l.06-.47-.02-.53h.53z" stroke="#333" stroke-width=".05" fill="#333"/><path d="M-1160.38 58.07l-14.27 4.64v-9.26z" stroke="#333" fill="#333"/><path d="M-560.17 6.9c-11.5 0-20.83 9.33-20.83 20.83v62.5c0 11.5 9.33 20.82 20.83 20.82h126.55c11.5 0 20.83-9.33 20.83-20.83v-62.5c0-11.5-9.32-20.82-20.82-20.82z" stroke="#282c33" fill="#fff"/><g><use xlink:href="#F" transform="matrix(1,0,0,1,-572.9999999999999,14.900172101026328) translate(48.895061728395056 26.72222222222222)"/><use xlink:href="#G" transform="matrix(1,0,0,1,-572.9999999999999,14.900172101026328) translate(10.969135802469125 48.05555555555556)"/><use xlink:href="#H" transform="matrix(1,0,0,1,-572.9999999999999,14.900172101026328) translate(42.45061728395061 69.3888888888889)"/></g><path d="M-25.47 158.9H8.68" stroke="#333" fill="none"/><path d="M-25.46 159.4h-.5v-1h.5z" stroke="#333" stroke-width=".05" fill="#333"/><path d="M23.45 158.9l-14.27 4.64v-9.27z" stroke="#333" fill="#333"/><path d="M-1201 58.07c0 11.05-8.95 20-20 20s-20-8.95-20-20c0-11.04 8.95-20 20-20s20 8.96 20 20z" stroke="#333" fill="#f15a24" fill-opacity=".7"/><path d="M65.32 161.72c0 11.05-8.96 20-20 20-11.05 0-20-8.95-20-20 0-11.04 8.95-20 20-20 11.04 0 20 8.96 20 20z" stroke="#333" stroke-width="1.2" fill="#fff"/><path d="M57.92 161.47c0 6.96-5.64 12.6-12.6 12.6s-12.6-5.64-12.6-12.6c0-6.95 5.64-12.6 12.6-12.6s12.6 5.65 12.6 12.6z" stroke="#333" fill="#f15a24" fill-opacity=".7"/><defs><path fill="#333" d="M143 4C61 4 22-44 18-125c-5-107 100-154 193-111 17 8 29 25 37 43l-32 9c-13-25-37-40-76-40-61 0-88 39-88 99 0 61 29 100 91 101 35 0 62-11 79-27v-45h-74v-28h105v86C228-13 192 4 143 4" id="I"/><path fill="#333" d="M100-194c63 0 86 42 84 106H49c0 40 14 67 53 68 26 1 43-12 49-29l28 8c-11 28-37 45-77 45C44 4 14-33 15-96c1-61 26-98 85-98zm52 81c6-60-76-77-97-28-3 7-6 17-6 28h103" id="J"/><path fill="#333" d="M59-47c-2 24 18 29 38 22v24C64 9 27 4 27-40v-127H5v-23h24l9-43h21v43h35v23H59v120" id="K"/><g id="a"><use transform="matrix(0.04938271604938272,0,0,0.04938271604938272,0,0)" xlink:href="#I"/><use transform="matrix(0.04938271604938272,0,0,0.04938271604938272,13.827160493827162,0)" xlink:href="#J"/><use transform="matrix(0.04938271604938272,0,0,0.04938271604938272,23.703703703703706,0)" xlink:href="#K"/></g><path fill="#333" d="M24 0v-261h32V0H24" id="L"/><path fill="#333" d="M141-36C126-15 110 5 73 4 37 3 15-17 15-53c-1-64 63-63 125-63 3-35-9-54-41-54-24 1-41 7-42 31l-33-3c5-37 33-52 76-52 45 0 72 20 72 64v82c-1 20 7 32 28 27v20c-31 9-61-2-59-35zM48-53c0 20 12 33 32 33 41-3 63-29 60-74-43 2-92-5-92 41" id="M"/><path fill="#333" d="M135-143c-3-34-86-38-87 0 15 53 115 12 119 90S17 21 10-45l28-5c4 36 97 45 98 0-10-56-113-15-118-90-4-57 82-63 122-42 12 7 21 19 24 35" id="N"/><g id="b"><use transform="matrix(0.04938271604938272,0,0,0.04938271604938272,0,0)" xlink:href="#L"/><use transform="matrix(0.04938271604938272,0,0,0.04938271604938272,3.901234567901235,0)" xlink:href="#M"/><use transform="matrix(0.04938271604938272,0,0,0.04938271604938272,13.777777777777779,0)" xlink:href="#K"/><use transform="matrix(0.04938271604938272,0,0,0.04938271604938272,18.71604938271605,0)" xlink:href="#J"/><use transform="matrix(0.04938271604938272,0,0,0.04938271604938272,28.592592592592595,0)" xlink:href="#N"/><use transform="matrix(0.04938271604938272,0,0,0.04938271604938272,37.48148148148148,0)" xlink:href="#K"/></g><path fill="#333" d="M87 75C49 33 22-17 22-94c0-76 28-126 65-167h31c-38 41-64 92-64 168S80 34 118 75H87" id="O"/><path fill="#333" d="M100-194c62-1 85 37 85 99 1 63-27 99-86 99S16-35 15-95c0-66 28-99 85-99zM99-20c44 1 53-31 53-75 0-43-8-75-51-75s-53 32-53 75 10 74 51 75" id="P"/><path fill="#333" d="M96-169c-40 0-48 33-48 73s9 75 48 75c24 0 41-14 43-38l32 2c-6 37-31 61-74 61-59 0-76-41-82-99-10-93 101-131 147-64 4 7 5 14 7 22l-32 3c-4-21-16-35-41-35" id="Q"/><path fill="#333" d="M33-261c38 41 65 92 65 168S71 34 33 75H2C39 34 66-17 66-93S39-220 2-261h31" id="R"/><g id="c"><use transform="matrix(0.04938271604938272,0,0,0.04938271604938272,0,0)" xlink:href="#O"/><use transform="matrix(0.04938271604938272,0,0,0.04938271604938272,5.8765432098765435,0)" xlink:href="#L"/><use transform="matrix(0.04938271604938272,0,0,0.04938271604938272,9.777777777777779,0)" xlink:href="#P"/><use transform="matrix(0.04938271604938272,0,0,0.04938271604938272,19.654320987654323,0)" xlink:href="#Q"/><use transform="matrix(0.04938271604938272,0,0,0.04938271604938272,28.543209876543212,0)" xlink:href="#M"/><use transform="matrix(0.04938271604938272,0,0,0.04938271604938272,38.41975308641976,0)" xlink:href="#L"/><use transform="matrix(0.04938271604938272,0,0,0.04938271604938272,42.320987654320994,0)" xlink:href="#R"/></g><path fill="#333" d="M114-163C36-179 61-72 57 0H25l-1-190h30c1 12-1 29 2 39 6-27 23-49 58-41v29" id="S"/><path fill="#333" d="M177-190C167-65 218 103 67 71c-23-6-38-20-44-43l32-5c15 47 100 32 89-28v-30C133-14 115 1 83 1 29 1 15-40 15-95c0-56 16-97 71-98 29-1 48 16 59 35 1-10 0-23 2-32h30zM94-22c36 0 50-32 50-73 0-42-14-75-50-75-39 0-46 34-46 75s6 73 46 73" id="T"/><path fill="#333" d="M24-231v-30h32v30H24zM24 0v-190h32V0H24" id="U"/><path fill="#333" d="M179-190L93 31C79 59 56 82 12 73V49c39 6 53-20 64-50L1-190h34L92-34l54-156h33" id="V"/><g id="d"><use transform="matrix(0.04938271604938272,0,0,0.04938271604938272,0,0)" xlink:href="#S"/><use transform="matrix(0.04938271604938272,0,0,0.04938271604938272,5.8765432098765435,0)" xlink:href="#J"/><use transform="matrix(0.04938271604938272,0,0,0.04938271604938272,15.753086419753087,0)" xlink:href="#T"/><use transform="matrix(0.04938271604938272,0,0,0.04938271604938272,25.629629629629633,0)" xlink:href="#U"/><use transform="matrix(0.04938271604938272,0,0,0.04938271604938272,29.530864197530867,0)" xlink:href="#N"/><use transform="matrix(0.04938271604938272,0,0,0.04938271604938272,38.41975308641976,0)" xlink:href="#K"/><use transform="matrix(0.04938271604938272,0,0,0.04938271604938272,43.35802469135803,0)" xlink:href="#S"/><use transform="matrix(0.04938271604938272,0,0,0.04938271604938272,49.23456790123458,0)" xlink:href="#V"/></g><path fill="#333" d="M108 0H70L1-190h34L89-25l56-165h34" id="W"/><path fill="#333" d="M117-194c89-4 53 116 60 194h-32v-121c0-31-8-49-39-48C34-167 62-67 57 0H25l-1-190h30c1 10-1 24 2 32 11-22 29-35 61-36" id="X"/><g id="e"><use transform="matrix(0.04938271604938272,0,0,0.04938271604938272,0,0)" xlink:href="#W"/><use transform="matrix(0.04938271604938272,0,0,0.04938271604938272,8.88888888888889,0)" xlink:href="#J"/><use transform="matrix(0.04938271604938272,0,0,0.04938271604938272,18.765432098765434,0)" xlink:href="#S"/><use transform="matrix(0.04938271604938272,0,0,0.04938271604938272,24.641975308641978,0)" xlink:href="#N"/><use transform="matrix(0.04938271604938272,0,0,0.04938271604938272,33.53086419753087,0)" xlink:href="#U"/><use transform="matrix(0.04938271604938272,0,0,0.04938271604938272,37.4320987654321,0)" xlink:href="#P"/><use transform="matrix(0.04938271604938272,0,0,0.04938271604938272,47.308641975308646,0)" xlink:href="#X"/></g><path fill="#333" d="M232-93c-1 65-40 97-104 97C67 4 28-28 28-90v-158h33c8 89-33 224 67 224 102 0 64-133 71-224h33v155" id="Y"/><path fill="#333" d="M115-194c55 1 70 41 70 98S169 2 115 4C84 4 66-9 55-30l1 105H24l-1-265h31l2 30c10-21 28-34 59-34zm-8 174c40 0 45-34 45-75s-6-73-45-74c-42 0-51 32-51 76 0 43 10 73 51 73" id="Z"/><path fill="#333" d="M85-194c31 0 48 13 60 33l-1-100h32l1 261h-30c-2-10 0-23-3-31C134-8 116 4 85 4 32 4 16-35 15-94c0-66 23-100 70-100zm9 24c-40 0-46 34-46 75 0 40 6 74 45 74 42 0 51-32 51-76 0-42-9-74-50-73" id="aa"/><g id="f"><use transform="matrix(0.04938271604938272,0,0,0.04938271604938272,0,0)" xlink:href="#Y"/><use transform="matrix(0.04938271604938272,0,0,0.04938271604938272,12.790123456790125,0)" xlink:href="#Z"/><use transform="matrix(0.04938271604938272,0,0,0.04938271604938272,22.66666666666667,0)" xlink:href="#aa"/><use transform="matrix(0.04938271604938272,0,0,0.04938271604938272,32.543209876543216,0)" xlink:href="#M"/><use transform="matrix(0.04938271604938272,0,0,0.04938271604938272,42.41975308641976,0)" xlink:href="#K"/><use transform="matrix(0.04938271604938272,0,0,0.04938271604938272,47.35802469135803,0)" xlink:href="#J"/></g><g id="g"><use transform="matrix(0.04938271604938272,0,0,0.04938271604938272,0,0)" xlink:href="#L"/><use transform="matrix(0.04938271604938272,0,0,0.04938271604938272,3.901234567901235,0)" xlink:href="#P"/><use transform="matrix(0.04938271604938272,0,0,0.04938271604938272,13.777777777777779,0)" xlink:href="#Q"/><use transform="matrix(0.04938271604938272,0,0,0.04938271604938272,22.666666666666668,0)" xlink:href="#M"/><use transform="matrix(0.04938271604938272,0,0,0.04938271604938272,32.543209876543216,0)" xlink:href="#L"/></g><path fill="#333" d="M26 75v-336h71v23H56V52h41v23H26" id="ab"/><g id="h"><use transform="matrix(0.05,0,0,0.05,0,0)" xlink:href="#ab"/><use transform="matrix(0.05,0,0,0.05,5,0)" xlink:href="#L"/><use transform="matrix(0.05,0,0,0.05,8.95,0)" xlink:href="#P"/><use transform="matrix(0.05,0,0,0.05,18.95,0)" xlink:href="#Q"/><use transform="matrix(0.05,0,0,0.05,27.950000000000003,0)" xlink:href="#M"/><use transform="matrix(0.05,0,0,0.05,37.95,0)" xlink:href="#L"/></g><g id="i"><use transform="matrix(0.05,0,0,0.05,0,0)" xlink:href="#W"/><use transform="matrix(0.05,0,0,0.05,9,0)" xlink:href="#J"/><use transform="matrix(0.05,0,0,0.05,19,0)" xlink:href="#S"/><use transform="matrix(0.05,0,0,0.05,24.95,0)" xlink:href="#N"/><use transform="matrix(0.05,0,0,0.05,33.95,0)" xlink:href="#U"/><use transform="matrix(0.05,0,0,0.05,37.900000000000006,0)" xlink:href="#P"/><use transform="matrix(0.05,0,0,0.05,47.900000000000006,0)" xlink:href="#X"/></g><path fill="#333" d="M106-169C34-169 62-67 57 0H25v-261h32l-1 103c12-21 28-36 61-36 89 0 53 116 60 194h-32v-121c2-32-8-49-39-48" id="ac"/><g id="j"><use transform="matrix(0.05,0,0,0.05,0,0)" xlink:href="#ac"/><use transform="matrix(0.05,0,0,0.05,10,0)" xlink:href="#M"/><use transform="matrix(0.05,0,0,0.05,20,0)" xlink:href="#N"/></g><path fill="#333" d="M3 75V52h41v-290H3v-23h71V75H3" id="ad"/><g id="k"><use transform="matrix(0.05,0,0,0.05,0,0)" xlink:href="#Q"/><use transform="matrix(0.05,0,0,0.05,9,0)" xlink:href="#ac"/><use transform="matrix(0.05,0,0,0.05,19,0)" xlink:href="#M"/><use transform="matrix(0.05,0,0,0.05,29,0)" xlink:href="#X"/><use transform="matrix(0.05,0,0,0.05,39,0)" xlink:href="#T"/><use transform="matrix(0.05,0,0,0.05,49,0)" xlink:href="#J"/><use transform="matrix(0.05,0,0,0.05,59,0)" xlink:href="#aa"/><use transform="matrix(0.05,0,0,0.05,69,0)" xlink:href="#ad"/></g><path fill="#333" d="M30-248c87 1 191-15 191 75 0 78-77 80-158 76V0H30v-248zm33 125c57 0 124 11 124-50 0-59-68-47-124-48v98" id="ae"/><g id="l"><use transform="matrix(0.04938271604938272,0,0,0.04938271604938272,0,0)" xlink:href="#ae"/><use transform="matrix(0.04938271604938272,0,0,0.04938271604938272,11.851851851851853,0)" xlink:href="#P"/><use transform="matrix(0.04938271604938272,0,0,0.04938271604938272,21.7283950617284,0)" xlink:href="#L"/><use transform="matrix(0.04938271604938272,0,0,0.04938271604938272,25.629629629629633,0)" xlink:href="#L"/></g><g id="m"><use transform="matrix(0.04938271604938272,0,0,0.04938271604938272,0,0)" xlink:href="#S"/><use transform="matrix(0.04938271604938272,0,0,0.04938271604938272,5.8765432098765435,0)" xlink:href="#J"/><use transform="matrix(0.04938271604938272,0,0,0.04938271604938272,15.753086419753087,0)" xlink:href="#T"/><use transform="matrix(0.04938271604938272,0,0,0.04938271604938272,25.629629629629633,0)" xlink:href="#U"/><use transform="matrix(0.04938271604938272,0,0,0.04938271604938272,29.530864197530867,0)" xlink:href="#N"/><use transform="matrix(0.04938271604938272,0,0,0.04938271604938272,38.41975308641976,0)" xlink:href="#K"/><use transform="matrix(0.04938271604938272,0,0,0.04938271604938272,43.35802469135803,0)" xlink:href="#S"/><use transform="matrix(0.04938271604938272,0,0,0.04938271604938272,49.23456790123458,0)" xlink:href="#V"/></g><path fill="#333" d="M68-38c1 34 0 65-14 84H32c9-13 17-26 17-46H33v-38h35" id="af"/><g id="n"><use transform="matrix(0.04938271604938272,0,0,0.04938271604938272,0,0)" xlink:href="#Q"/><use transform="matrix(0.04938271604938272,0,0,0.04938271604938272,8.88888888888889,0)" xlink:href="#M"/><use transform="matrix(0.04938271604938272,0,0,0.04938271604938272,18.765432098765434,0)" xlink:href="#X"/><use transform="matrix(0.04938271604938272,0,0,0.04938271604938272,28.641975308641978,0)" xlink:href="#U"/><use transform="matrix(0.04938271604938272,0,0,0.04938271604938272,32.543209876543216,0)" xlink:href="#N"/><use transform="matrix(0.04938271604938272,0,0,0.04938271604938272,41.4320987654321,0)" xlink:href="#K"/><use transform="matrix(0.04938271604938272,0,0,0.04938271604938272,46.370370370370374,0)" xlink:href="#J"/><use transform="matrix(0.04938271604938272,0,0,0.04938271604938272,56.24691358024692,0)" xlink:href="#S"/><use transform="matrix(0.04938271604938272,0,0,0.04938271604938272,61.13580246913581,0)" xlink:href="#af"/></g><g id="o"><use transform="matrix(0.04938271604938272,0,0,0.04938271604938272,0,0)" xlink:href="#M"/><use transform="matrix(0.04938271604938272,0,0,0.04938271604938272,9.876543209876544,0)" xlink:href="#Z"/><use transform="matrix(0.04938271604938272,0,0,0.04938271604938272,19.75308641975309,0)" xlink:href="#Z"/><use transform="matrix(0.04938271604938272,0,0,0.04938271604938272,29.629629629629633,0)" xlink:href="#L"/><use transform="matrix(0.04938271604938272,0,0,0.04938271604938272,33.53086419753087,0)" xlink:href="#V"/></g><g id="p"><use transform="matrix(0.04938271604938272,0,0,0.04938271604938272,0,0)" xlink:href="#K"/><use transform="matrix(0.04938271604938272,0,0,0.04938271604938272,4.938271604938272,0)" xlink:href="#P"/></g><g id="q"><use transform="matrix(0.04938271604938272,0,0,0.04938271604938272,0,0)" xlink:href="#L"/><use transform="matrix(0.04938271604938272,0,0,0.04938271604938272,3.901234567901235,0)" xlink:href="#P"/><use transform="matrix(0.04938271604938272,0,0,0.04938271604938272,13.777777777777779,0)" xlink:href="#Q"/><use transform="matrix(0.04938271604938272,0,0,0.04938271604938272,22.666666666666668,0)" xlink:href="#M"/><use transform="matrix(0.04938271604938272,0,0,0.04938271604938272,32.543209876543216,0)" xlink:href="#L"/></g><g id="r"><use transform="matrix(0.04938271604938272,0,0,0.04938271604938272,0,0)" xlink:href="#N"/><use transform="matrix(0.04938271604938272,0,0,0.04938271604938272,8.88888888888889,0)" xlink:href="#K"/><use transform="matrix(0.04938271604938272,0,0,0.04938271604938272,13.827160493827162,0)" xlink:href="#P"/><use transform="matrix(0.04938271604938272,0,0,0.04938271604938272,23.703703703703706,0)" xlink:href="#S"/><use transform="matrix(0.04938271604938272,0,0,0.04938271604938272,29.58024691358025,0)" xlink:href="#J"/></g><path fill="#333" d="M84 4C-5 8 30-112 23-190h32v120c0 31 7 50 39 49 72-2 45-101 50-169h31l1 190h-30c-1-10 1-25-2-33-11 22-28 36-60 37" id="ag"/><g id="s"><use transform="matrix(0.05,0,0,0.05,0,0)" xlink:href="#ab"/><use transform="matrix(0.05,0,0,0.05,5,0)" xlink:href="#ag"/><use transform="matrix(0.05,0,0,0.05,15,0)" xlink:href="#X"/><use transform="matrix(0.05,0,0,0.05,25,0)" xlink:href="#Q"/><use transform="matrix(0.05,0,0,0.05,34,0)" xlink:href="#ac"/><use transform="matrix(0.05,0,0,0.05,44,0)" xlink:href="#M"/><use transform="matrix(0.05,0,0,0.05,54,0)" xlink:href="#X"/><use transform="matrix(0.05,0,0,0.05,64,0)" xlink:href="#T"/><use transform="matrix(0.05,0,0,0.05,74,0)" xlink:href="#J"/><use transform="matrix(0.05,0,0,0.05,84,0)" xlink:href="#aa"/><use transform="matrix(0.05,0,0,0.05,94,0)" xlink:href="#ad"/></g><path fill="#333" d="M205 0l-28-72H64L36 0H1l101-248h38L239 0h-34zm-38-99l-47-123c-12 45-31 82-46 123h93" id="ah"/><g id="t"><use transform="matrix(0.04938271604938272,0,0,0.04938271604938272,0,0)" xlink:href="#ah"/><use transform="matrix(0.04938271604938272,0,0,0.04938271604938272,11.851851851851853,0)" xlink:href="#aa"/><use transform="matrix(0.04938271604938272,0,0,0.04938271604938272,21.7283950617284,0)" xlink:href="#aa"/></g><g id="u"><use transform="matrix(0.04938271604938272,0,0,0.04938271604938272,0,0)" xlink:href="#Q"/><use transform="matrix(0.04938271604938272,0,0,0.04938271604938272,8.88888888888889,0)" xlink:href="#ac"/><use transform="matrix(0.04938271604938272,0,0,0.04938271604938272,18.765432098765434,0)" xlink:href="#M"/><use transform="matrix(0.04938271604938272,0,0,0.04938271604938272,28.641975308641978,0)" xlink:href="#X"/><use transform="matrix(0.04938271604938272,0,0,0.04938271604938272,38.51851851851852,0)" xlink:href="#T"/><use transform="matrix(0.04938271604938272,0,0,0.04938271604938272,48.39506172839506,0)" xlink:href="#J"/><use transform="matrix(0.04938271604938272,0,0,0.04938271604938272,58.27160493827161,0)" xlink:href="#L"/><use transform="matrix(0.04938271604938272,0,0,0.04938271604938272,62.17283950617284,0)" xlink:href="#P"/><use transform="matrix(0.04938271604938272,0,0,0.04938271604938272,72.0493827160494,0)" xlink:href="#T"/></g><g id="v"><use transform="matrix(0.04938271604938272,0,0,0.04938271604938272,0,0)" xlink:href="#J"/><use transform="matrix(0.04938271604938272,0,0,0.04938271604938272,9.876543209876544,0)" xlink:href="#X"/><use transform="matrix(0.04938271604938272,0,0,0.04938271604938272,19.75308641975309,0)" xlink:href="#K"/><use transform="matrix(0.04938271604938272,0,0,0.04938271604938272,24.69135802469136,0)" xlink:href="#S"/><use transform="matrix(0.04938271604938272,0,0,0.04938271604938272,30.567901234567906,0)" xlink:href="#V"/></g><path fill="#333" d="M101-234c-31-9-42 10-38 44h38v23H63V0H32v-167H5v-23h27c-7-52 17-82 69-68v24" id="ai"/><g id="w"><use transform="matrix(0.04938271604938272,0,0,0.04938271604938272,0,0)" xlink:href="#P"/><use transform="matrix(0.04938271604938272,0,0,0.04938271604938272,9.876543209876544,0)" xlink:href="#ai"/></g><path fill="#333" d="M206 0h-36l-40-164L89 0H53L-1-190h32L70-26l43-164h34l41 164 42-164h31" id="aj"/><g id="x"><use transform="matrix(0.04938271604938272,0,0,0.04938271604938272,0,0)" xlink:href="#X"/><use transform="matrix(0.04938271604938272,0,0,0.04938271604938272,9.876543209876544,0)" xlink:href="#J"/><use transform="matrix(0.04938271604938272,0,0,0.04938271604938272,19.75308641975309,0)" xlink:href="#aj"/></g><path fill="#333" d="M190 0L58-211 59 0H30v-248h39L202-35l-2-213h31V0h-41" id="ak"/><path fill="#333" d="M185-189c-5-48-123-54-124 2 14 75 158 14 163 119 3 78-121 87-175 55-17-10-28-26-33-46l33-7c5 56 141 63 141-1 0-78-155-14-162-118-5-82 145-84 179-34 5 7 8 16 11 25" id="al"/><g id="y"><use transform="matrix(0.04938271604938272,0,0,0.04938271604938272,0,0)" xlink:href="#ak"/><use transform="matrix(0.04938271604938272,0,0,0.04938271604938272,12.790123456790125,0)" xlink:href="#ak"/><use transform="matrix(0.04938271604938272,0,0,0.04938271604938272,25.58024691358025,0)" xlink:href="#al"/></g><path fill="#333" d="M210-169c-67 3-38 105-44 169h-31v-121c0-29-5-50-35-48C34-165 62-65 56 0H25l-1-190h30c1 10-1 24 2 32 10-44 99-50 107 0 11-21 27-35 58-36 85-2 47 119 55 194h-31v-121c0-29-5-49-35-48" id="am"/><path fill="#333" d="M115-194c53 0 69 39 70 98 0 66-23 100-70 100C84 3 66-7 56-30L54 0H23l1-261h32v101c10-23 28-34 59-34zm-8 174c40 0 45-34 45-75 0-40-5-75-45-74-42 0-51 32-51 76 0 43 10 73 51 73" id="an"/><path fill="#333" d="M-5 72V49h209v23H-5" id="ao"/><g id="z"><use transform="matrix(0.05,0,0,0.05,0,0)" xlink:href="#ab"/><use transform="matrix(0.05,0,0,0.05,5,0)" xlink:href="#al"/><use transform="matrix(0.05,0,0,0.05,17,0)" xlink:href="#P"/><use transform="matrix(0.05,0,0,0.05,27,0)" xlink:href="#am"/><use transform="matrix(0.05,0,0,0.05,41.95,0)" xlink:href="#J"/><use transform="matrix(0.05,0,0,0.05,51.95,0)" xlink:href="#O"/><use transform="matrix(0.05,0,0,0.05,57.900000000000006,0)" xlink:href="#N"/><use transform="matrix(0.05,0,0,0.05,66.9,0)" xlink:href="#ag"/><use transform="matrix(0.05,0,0,0.05,76.9,0)" xlink:href="#an"/><use transform="matrix(0.05,0,0,0.05,86.9,0)" xlink:href="#X"/><use transform="matrix(0.05,0,0,0.05,96.9,0)" xlink:href="#J"/><use transform="matrix(0.05,0,0,0.05,106.9,0)" xlink:href="#K"/><use transform="matrix(0.05,0,0,0.05,111.9,0)" xlink:href="#ao"/><use transform="matrix(0.05,0,0,0.05,121.9,0)" xlink:href="#S"/><use transform="matrix(0.05,0,0,0.05,127.85000000000001,0)" xlink:href="#J"/><use transform="matrix(0.05,0,0,0.05,137.85000000000002,0)" xlink:href="#Q"/><use transform="matrix(0.05,0,0,0.05,146.85000000000002,0)" xlink:href="#P"/><use transform="matrix(0.05,0,0,0.05,156.85000000000002,0)" xlink:href="#S"/><use transform="matrix(0.05,0,0,0.05,162.8,0)" xlink:href="#aa"/><use transform="matrix(0.05,0,0,0.05,172.8,0)" xlink:href="#R"/></g><path fill="#333" d="M234-2c-28 10-62 0-77-18C117 19 8 12 13-65c3-43 29-61 60-76-25-40-17-114 47-108 35 3 59 15 59 50 0 44-40 53-71 69 14 26 32 50 51 72 14-21 24-43 30-72l26 8c-9 33-21 57-38 82 13 13 33 22 57 15v23zM97-151c25-10 52-18 56-48-1-18-13-29-33-29-42 0-39 50-23 77zM42-66c-3 51 71 58 98 28-20-24-41-51-56-80-23 10-40 24-42 52" id="ap"/><g id="A"><use transform="matrix(0.05,0,0,0.05,0,0)" xlink:href="#ap"/><use transform="matrix(0.05,0,0,0.05,12,0)" xlink:href="#ap"/></g><g id="B"><use transform="matrix(0.05,0,0,0.05,0,0)" xlink:href="#N"/><use transform="matrix(0.05,0,0,0.05,9,0)" xlink:href="#K"/><use transform="matrix(0.05,0,0,0.05,14,0)" xlink:href="#M"/><use transform="matrix(0.05,0,0,0.05,24,0)" xlink:href="#S"/><use transform="matrix(0.05,0,0,0.05,29.950000000000003,0)" xlink:href="#K"/><use transform="matrix(0.05,0,0,0.05,34.95,0)" xlink:href="#ao"/><use transform="matrix(0.05,0,0,0.05,44.95,0)" xlink:href="#M"/><use transform="matrix(0.05,0,0,0.05,54.95,0)" xlink:href="#N"/><use transform="matrix(0.05,0,0,0.05,63.95,0)" xlink:href="#ao"/><use transform="matrix(0.05,0,0,0.05,73.95,0)" xlink:href="#X"/><use transform="matrix(0.05,0,0,0.05,83.95,0)" xlink:href="#X"/><use transform="matrix(0.05,0,0,0.05,93.95,0)" xlink:href="#N"/><use transform="matrix(0.05,0,0,0.05,102.95,0)" xlink:href="#ad"/></g><path fill="#333" d="M30 0v-248h187v28H63v79h144v27H63v87h162V0H30" id="aq"/><path fill="#333" d="M141 0L90-78 38 0H4l68-98-65-92h35l48 74 47-74h35l-64 92 68 98h-35" id="ar"/><g id="C"><use transform="matrix(0.04938271604938272,0,0,0.04938271604938272,0,0)" xlink:href="#aq"/><use transform="matrix(0.04938271604938272,0,0,0.04938271604938272,11.851851851851853,0)" xlink:href="#ar"/><use transform="matrix(0.04938271604938272,0,0,0.04938271604938272,20.74074074074074,0)" xlink:href="#U"/><use transform="matrix(0.04938271604938272,0,0,0.04938271604938272,24.641975308641975,0)" xlink:href="#K"/></g><g id="D"><use transform="matrix(0.04938271604938272,0,0,0.04938271604938272,0,0)" xlink:href="#X"/><use transform="matrix(0.04938271604938272,0,0,0.04938271604938272,9.876543209876544,0)" xlink:href="#P"/><use transform="matrix(0.04938271604938272,0,0,0.04938271604938272,19.75308641975309,0)" xlink:href="#aa"/><use transform="matrix(0.04938271604938272,0,0,0.04938271604938272,29.629629629629633,0)" xlink:href="#J"/></g><g id="E"><use transform="matrix(0.04938271604938272,0,0,0.04938271604938272,0,0)" xlink:href="#Z"/><use transform="matrix(0.04938271604938272,0,0,0.04938271604938272,9.876543209876544,0)" xlink:href="#S"/><use transform="matrix(0.04938271604938272,0,0,0.04938271604938272,15.753086419753087,0)" xlink:href="#P"/><use transform="matrix(0.04938271604938272,0,0,0.04938271604938272,25.629629629629633,0)" xlink:href="#Q"/><use transform="matrix(0.04938271604938272,0,0,0.04938271604938272,34.51851851851852,0)" xlink:href="#J"/><use transform="matrix(0.04938271604938272,0,0,0.04938271604938272,44.39506172839506,0)" xlink:href="#N"/><use transform="matrix(0.04938271604938272,0,0,0.04938271604938272,53.28395061728394,0)" xlink:href="#N"/></g><path fill="#333" d="M233-177c-1 41-23 64-60 70L243 0h-38l-65-103H63V0H30v-248c88 3 205-21 203 71zM63-129c60-2 137 13 137-47 0-61-80-42-137-45v92" id="as"/><g id="F"><use transform="matrix(0.04938271604938272,0,0,0.04938271604938272,0,0)" xlink:href="#as"/><use transform="matrix(0.04938271604938272,0,0,0.04938271604938272,12.790123456790125,0)" xlink:href="#J"/><use transform="matrix(0.04938271604938272,0,0,0.04938271604938272,22.66666666666667,0)" xlink:href="#X"/><use transform="matrix(0.04938271604938272,0,0,0.04938271604938272,32.543209876543216,0)" xlink:href="#J"/><use transform="matrix(0.04938271604938272,0,0,0.04938271604938272,42.41975308641976,0)" xlink:href="#aj"/></g><path fill="#333" d="M212-179c-10-28-35-45-73-45-59 0-87 40-87 99 0 60 29 101 89 101 43 0 62-24 78-52l27 14C228-24 195 4 139 4 59 4 22-46 18-125c-6-104 99-153 187-111 19 9 31 26 39 46" id="at"/><g id="G"><use transform="matrix(0.04938271604938272,0,0,0.04938271604938272,0,0)" xlink:href="#as"/><use transform="matrix(0.04938271604938272,0,0,0.04938271604938272,12.790123456790125,0)" xlink:href="#J"/><use transform="matrix(0.04938271604938272,0,0,0.04938271604938272,22.66666666666667,0)" xlink:href="#T"/><use transform="matrix(0.04938271604938272,0,0,0.04938271604938272,32.543209876543216,0)" xlink:href="#U"/><use transform="matrix(0.04938271604938272,0,0,0.04938271604938272,36.44444444444445,0)" xlink:href="#N"/><use transform="matrix(0.04938271604938272,0,0,0.04938271604938272,45.33333333333334,0)" xlink:href="#K"/><use transform="matrix(0.04938271604938272,0,0,0.04938271604938272,50.271604938271615,0)" xlink:href="#S"/><use transform="matrix(0.04938271604938272,0,0,0.04938271604938272,56.14814814814817,0)" xlink:href="#V"/><use transform="matrix(0.04938271604938272,0,0,0.04938271604938272,65.03703703703705,0)" xlink:href="#at"/><use transform="matrix(0.04938271604938272,0,0,0.04938271604938272,77.82716049382718,0)" xlink:href="#M"/><use transform="matrix(0.04938271604938272,0,0,0.04938271604938272,87.70370370370372,0)" xlink:href="#X"/><use transform="matrix(0.04938271604938272,0,0,0.04938271604938272,97.58024691358027,0)" xlink:href="#U"/><use transform="matrix(0.04938271604938272,0,0,0.04938271604938272,101.48148148148151,0)" xlink:href="#N"/><use transform="matrix(0.04938271604938272,0,0,0.04938271604938272,110.3703703703704,0)" xlink:href="#K"/><use transform="matrix(0.04938271604938272,0,0,0.04938271604938272,115.30864197530865,0)" xlink:href="#J"/><use transform="matrix(0.04938271604938272,0,0,0.04938271604938272,125.18518518518519,0)" xlink:href="#S"/></g><g id="H"><use transform="matrix(0.04938271604938272,0,0,0.04938271604938272,0,0)" xlink:href="#J"/><use transform="matrix(0.04938271604938272,0,0,0.04938271604938272,9.876543209876544,0)" xlink:href="#X"/><use transform="matrix(0.04938271604938272,0,0,0.04938271604938272,19.75308641975309,0)" xlink:href="#aa"/><use transform="matrix(0.04938271604938272,0,0,0.04938271604938272,29.629629629629633,0)" xlink:href="#Z"/><use transform="matrix(0.04938271604938272,0,0,0.04938271604938272,39.50617283950618,0)" xlink:href="#P"/><use transform="matrix(0.04938271604938272,0,0,0.04938271604938272,49.38271604938272,0)" xlink:href="#U"/><use transform="matrix(0.04938271604938272,0,0,0.04938271604938272,53.283950617283956,0)" xlink:href="#X"/><use transform="matrix(0.04938271604938272,0,0,0.04938271604938272,63.1604938271605,0)" xlink:href="#K"/></g></defs></g></svg>