<svg xmlns="http://www.w3.org/2000/svg" xmlns:xlink="http://www.w3.org/1999/xlink" xmlns:lucid="lucid" width="1258.93" height="223.88"><g transform="translate(2393 15)" lucid:page-tab-id="-8xV09.l9bm4"><path d="M-2271.2 7.7c-11.5 0-20.82 9.32-20.82 20.82v62.5c0 11.5 9.32 20.82 20.82 20.82h126.55c11.5 0 20.83-9.32 20.83-20.83V28.53c0-11.5-9.32-20.83-20.83-20.83z" stroke="#282c33" fill="#fff"/><use xlink:href="#a" transform="matrix(1,0,0,1,-2284.0249111668913,15.694702455815438) translate(18.35185185185184 26.72222222222222)"/><use xlink:href="#b" transform="matrix(1,0,0,1,-2284.0249111668913,15.694702455815438) translate(76.52469135802468 26.72222222222222)"/><use xlink:href="#c" transform="matrix(1,0,0,1,-2284.0249111668913,15.694702455815438) translate(12.401234567901213 48.05555555555556)"/><use xlink:href="#d" transform="matrix(1,0,0,1,-2284.0249111668913,15.694702455815438) translate(53.783950617283935 48.05555555555556)"/><use xlink:href="#e" transform="matrix(1,0,0,1,-2284.0249111668913,15.694702455815438) translate(98.17901234567901 48.05555555555556)"/><use xlink:href="#f" transform="matrix(1,0,0,1,-2284.0249111668913,15.694702455815438) translate(52.82098765432099 69.3888888888889)"/><path d="M-2062 7.7c-11.5 0-20.84 9.32-20.84 20.82v62.5c0 11.5 9.33 20.82 20.83 20.82h126.54c11.5 0 20.83-9.32 20.83-20.83V28.53c0-11.5-9.33-20.83-20.83-20.83z" stroke="#282c33" fill="#fff"/><use xlink:href="#g" transform="matrix(1,0,0,1,-2074.840387044765,15.694702455815438) translate(21.29012345679012 26.72222222222222)"/><use xlink:href="#h" transform="matrix(1,0,0,1,-2074.840387044765,15.694702455815438) translate(63.70987654320988 26.72222222222222)"/><use xlink:href="#i" transform="matrix(1,0,0,1,-2074.840387044765,15.694702455815438) translate(119.85802469135803 26.72222222222222)"/><use xlink:href="#j" transform="matrix(1,0,0,1,-2074.840387044765,15.694702455815438) translate(3.018518518518505 48.05555555555556)"/><use xlink:href="#c" transform="matrix(1,0,0,1,-2074.840387044765,15.694702455815438) translate(69.14197530864197 48.05555555555556)"/><use xlink:href="#k" transform="matrix(1,0,0,1,-2074.840387044765,15.694702455815438) translate(110.5246913580247 48.05555555555556)"/><use xlink:href="#l" transform="matrix(1,0,0,1,-2074.840387044765,15.694702455815438) translate(15.46296296296294 69.3888888888889)"/><path d="M-1531.98 7.5c-11.5 0-20.83 9.3-20.83 20.82v62.5c0 11.5 9.3 20.82 20.82 20.82h126.55c11.5 0 20.83-9.33 20.83-20.83V28.33c0-11.5-9.33-20.83-20.83-20.83z" stroke="#282c33" fill="#f15a24" fill-opacity=".7"/><use xlink:href="#m" transform="matrix(1,0,0,1,-1544.810954708796,15.486152204383863) translate(4.993827160493822 26.72222222222222)"/><use xlink:href="#c" transform="matrix(1,0,0,1,-1544.810954708796,15.486152204383863) translate(67.16666666666667 26.72222222222222)"/><use xlink:href="#k" transform="matrix(1,0,0,1,-1544.810954708796,15.486152204383863) translate(108.5493827160494 26.72222222222222)"/><use xlink:href="#n" transform="matrix(1,0,0,1,-1544.810954708796,15.486152204383863) translate(39.04320987654321 48.05555555555556)"/><use xlink:href="#o" transform="matrix(1,0,0,1,-1544.810954708796,15.486152204383863) translate(62.74691358024691 48.05555555555556)"/><use xlink:href="#p" transform="matrix(1,0,0,1,-1544.810954708796,15.486152204383863) translate(10.969135802469125 69.3888888888889)"/><path d="M-2122.82 59.77h23.1" stroke="#333" fill="none"/><path d="M-2122.8 60.27h-.52v-1h.52z" stroke="#333" stroke-width=".05" fill="#333"/><path d="M-2084.96 59.77l-14.26 4.63v-9.27z" stroke="#333" fill="#333"/><path d="M-1913.63 59.77h22.8" stroke="#333" fill="none"/><path d="M-1913.62 60.27h-.5v-1h.5z" stroke="#333" stroke-width=".05" fill="#333"/><path d="M-1876.06 59.77l-14.27 4.63v-9.27z" stroke="#333" fill="#333"/><path d="M-1321.17 7.7c-11.5 0-20.83 9.32-20.83 20.82v62.5c0 11.5 9.33 20.82 20.83 20.82h126.55c11.5 0 20.83-9.32 20.83-20.83V28.53c0-11.5-9.3-20.83-20.82-20.83z" stroke="#282c33" fill="#fff"/><use xlink:href="#q" transform="matrix(1,0,0,1,-1333.9954788309224,15.694702455815438) translate(40.99382716049382 37.388888888888886)"/><use xlink:href="#r" transform="matrix(1,0,0,1,-1333.9954788309224,15.694702455815438) translate(91.31481481481481 37.388888888888886)"/><use xlink:href="#s" transform="matrix(1,0,0,1,-1333.9954788309224,15.694702455815438) translate(36.574074074074076 58.72222222222222)"/><path d="M-1468.2 151.8l.4 3.03 1.13 2.75 1.83 2.4 2.4 1.83 2.75 1.15 3.03.4h79.75v1h-79.82l-3.2-.42-3-1.25-2.6-2-2-2.6-1.25-3-.4-3.2v-23.36h1zm319.37-92.1l3 1.23 2.6 2 2 2.6 1.23 3 .43 3.2v80.15l-.43 3.2-1.24 3-2 2.6-2.6 2-3 1.25-3.2.42h-133.98v-1h133.9l3.03-.4 2.76-1.14 2.4-1.83 1.83-2.38 1.13-2.77.4-3.02v-80l-.4-3-1.14-2.77-1.85-2.4-2.4-1.82-2.74-1.14-3-.4h-20.7v-1h20.76z" stroke="#333" stroke-width=".05" fill="#333"/><path d="M-1172.77 60.27h-.52v-1h.53z" fill="#333"/><path d="M-1172.75 60.3h-.56v-1.06h.55zm-.5-1v.94h.45v-.95z" stroke="#333" stroke-width=".05" fill="#333"/><path d="M-1464.07 128.02h-9.27l4.63-14.27z" fill="#333"/><path d="M-1463.38 128.52h-10.65l5.32-16.38zm-9.27-1h7.9l-3.96-12.15z" stroke="#333" stroke-width=".05" fill="#333"/><use xlink:href="#t" transform="matrix(1,0,0,1,-1376.9212780595535,153.04603627858907) translate(0.005000000000002558 14.4)"/><path d="M-1383.6 59.56h20.2c.05 0 .1.05.1.1 0 .06.05.1.1.1h4.32" stroke="#333" fill="none"/><path d="M-1383.6 60.06h-.5v-1h.5z" stroke="#333" stroke-width=".05" fill="#333"/><path d="M-1344.1 59.77l-14.28 4.63v-9.27z" stroke="#333" fill="#333"/><path d="M-1631.2 13c0-4.42 3.58-8 8-8h3.02c4.42 0 8 3.58 8 8v167.88c0 4.42-3.58 8-8 8h-3.03c-4.42 0-8-3.58-8-8z" stroke="#333"/><path d="M-1569.8 168H-1611.18" stroke="#333" fill="none"/><path d="M-1555.03 168l-14.27 4.63v-9.27z" stroke="#333" fill="#333"/><path d="M-1611.17 168.5h-.5v-1h.5z" stroke="#333" stroke-width=".05" fill="#333"/><path d="M-1853.1 7.7c-11.52 0-20.84 9.32-20.84 20.82v62.5c0 11.5 9.32 20.82 20.83 20.82h126.54c11.5 0 20.83-9.32 20.83-20.83V28.53c0-11.5-9.33-20.83-20.83-20.83z" stroke="#282c33" fill="#fff"/><use xlink:href="#u" transform="matrix(1,0,0,1,-1865.941906753561,15.694702455815438) translate(3.5617283950617207 26.72222222222222)"/><use xlink:href="#c" transform="matrix(1,0,0,1,-1865.941906753561,15.694702455815438) translate(32.154320987654316 26.72222222222222)"/><use xlink:href="#d" transform="matrix(1,0,0,1,-1865.941906753561,15.694702455815438) translate(73.53703703703704 26.72222222222222)"/><use xlink:href="#v" transform="matrix(1,0,0,1,-1865.941906753561,15.694702455815438) translate(117.9320987654321 26.72222222222222)"/><use xlink:href="#w" transform="matrix(1,0,0,1,-1865.941906753561,15.694702455815438) translate(10.969135802469125 48.05555555555556)"/><use xlink:href="#x" transform="matrix(1,0,0,1,-1865.941906753561,15.694702455815438) translate(35.53703703703703 69.3888888888889)"/><path d="M-1789.34 151.12l.4 3 1.14 2.77 1.83 2.38 2.4 1.83 2.75 1.16 3.02.4h14.62v1h-14.7l-3.2-.43-3-1.24-2.6-2-2-2.6-1.24-3-.42-3.22v-22.45h1zM-1674 59.7l3 1.23 2.6 2 2 2.6 1.25 3 .42 3.2v79.45l-.42 3.2-1.25 3-2 2.6-2.6 2-3 1.25-3.2.42h-27.03v-1h26.96l3.02-.4 2.76-1.14 2.4-1.82 1.83-2.4 1.14-2.75.4-3V71.8l-.4-3-1.14-2.77-1.83-2.4-2.4-1.82-2.75-1.14-3.02-.4h-27.46v-1h27.53z" stroke="#333" stroke-width=".05" fill="#333"/><path d="M-1704.72 60.27h-.5v-1h.5z" fill="#333"/><path d="M-1704.7 60.3h-.56v-1.06h.57zm-.5-1v.94h.46v-.95z" stroke="#333" stroke-width=".05" fill="#333"/><path d="M-1785.2 128.23h-9.27l4.63-14.27z" fill="#333"/><path d="M-1784.5 128.73h-10.66l5.32-16.4zm-9.28-1h7.9l-3.96-12.15z" stroke="#333" stroke-width=".05" fill="#333"/><g><use xlink:href="#y" transform="matrix(1,0,0,1,-1763.179768941981,152.35031140430485) translate(0.004999999999999005 14.4)"/></g><path d="M-1704.73 59.77h56.64" stroke="#333" fill="none"/><path d="M-1704.72 60.27h-.5v-1h.5z" stroke="#333" stroke-width=".05" fill="#333"/><path d="M-1633.32 59.77l-14.27 4.63v-9.27z" stroke="#333" fill="#333"/><path d="M-1569.7 59.56H-1611.17" stroke="#333" fill="none"/><path d="M-1554.93 59.56l-14.26 4.64v-9.27z" stroke="#333" fill="#333"/><path d="M-1611.17 60.06h-.5v-1h.5z" stroke="#333" stroke-width=".05" fill="#333"/><path d="M-2332 59.77h23.1" stroke="#333" fill="none"/><path d="M-2332 60.27h-.56l.06-.48-.02-.53h.53z" stroke="#333" stroke-width=".05" fill="#333"/><path d="M-2294.14 59.77l-14.27 4.63v-9.27z" stroke="#333" fill="#333"/><path d="M-2333 59.77c0 11.05-8.95 20-20 20s-20-8.95-20-20 8.95-20 20-20 20 8.95 20 20z" stroke="#333" fill="#522785" fill-opacity=".5"/><path d="M-1512.8 168c0 11.04-8.97 20-20 20-11.06 0-20-8.96-20-20 0-11.05 8.94-20 20-20 11.03 0 20 8.95 20 20z" stroke="#333" stroke-width="1.2" fill="#fff"/><path d="M-1520.2 167.74c0 6.96-5.65 12.6-12.6 12.6-6.97 0-12.6-5.64-12.6-12.6 0-6.95 5.63-12.6 12.6-12.6 6.95 0 12.6 5.65 12.6 12.6z" stroke="#333" fill="#522785" fill-opacity=".5"/><defs><path fill="#333" d="M212-179c-10-28-35-45-73-45-59 0-87 40-87 99 0 60 29 101 89 101 43 0 62-24 78-52l27 14C228-24 195 4 139 4 59 4 22-46 18-125c-6-104 99-153 187-111 19 9 31 26 39 46" id="z"/><path fill="#333" d="M114-163C36-179 61-72 57 0H25l-1-190h30c1 12-1 29 2 39 6-27 23-49 58-41v29" id="A"/><path fill="#333" d="M100-194c63 0 86 42 84 106H49c0 40 14 67 53 68 26 1 43-12 49-29l28 8c-11 28-37 45-77 45C44 4 14-33 15-96c1-61 26-98 85-98zm52 81c6-60-76-77-97-28-3 7-6 17-6 28h103" id="B"/><path fill="#333" d="M141-36C126-15 110 5 73 4 37 3 15-17 15-53c-1-64 63-63 125-63 3-35-9-54-41-54-24 1-41 7-42 31l-33-3c5-37 33-52 76-52 45 0 72 20 72 64v82c-1 20 7 32 28 27v20c-31 9-61-2-59-35zM48-53c0 20 12 33 32 33 41-3 63-29 60-74-43 2-92-5-92 41" id="C"/><path fill="#333" d="M59-47c-2 24 18 29 38 22v24C64 9 27 4 27-40v-127H5v-23h24l9-43h21v43h35v23H59v120" id="D"/><g id="a"><use transform="matrix(0.04938271604938272,0,0,0.04938271604938272,0,0)" xlink:href="#z"/><use transform="matrix(0.04938271604938272,0,0,0.04938271604938272,12.790123456790125,0)" xlink:href="#A"/><use transform="matrix(0.04938271604938272,0,0,0.04938271604938272,18.666666666666668,0)" xlink:href="#B"/><use transform="matrix(0.04938271604938272,0,0,0.04938271604938272,28.543209876543212,0)" xlink:href="#C"/><use transform="matrix(0.04938271604938272,0,0,0.04938271604938272,38.41975308641976,0)" xlink:href="#D"/><use transform="matrix(0.04938271604938272,0,0,0.04938271604938272,43.35802469135803,0)" xlink:href="#B"/></g><path fill="#333" d="M177-190C167-65 218 103 67 71c-23-6-38-20-44-43l32-5c15 47 100 32 89-28v-30C133-14 115 1 83 1 29 1 15-40 15-95c0-56 16-97 71-98 29-1 48 16 59 35 1-10 0-23 2-32h30zM94-22c36 0 50-32 50-73 0-42-14-75-50-75-39 0-46 34-46 75s6 73 46 73" id="E"/><path fill="#333" d="M24-231v-30h32v30H24zM24 0v-190h32V0H24" id="F"/><path fill="#333" d="M135-143c-3-34-86-38-87 0 15 53 115 12 119 90S17 21 10-45l28-5c4 36 97 45 98 0-10-56-113-15-118-90-4-57 82-63 122-42 12 7 21 19 24 35" id="G"/><path fill="#333" d="M179-190L93 31C79 59 56 82 12 73V49c39 6 53-20 64-50L1-190h34L92-34l54-156h33" id="H"/><g id="b"><use transform="matrix(0.04938271604938272,0,0,0.04938271604938272,0,0)" xlink:href="#A"/><use transform="matrix(0.04938271604938272,0,0,0.04938271604938272,5.8765432098765435,0)" xlink:href="#B"/><use transform="matrix(0.04938271604938272,0,0,0.04938271604938272,15.753086419753087,0)" xlink:href="#E"/><use transform="matrix(0.04938271604938272,0,0,0.04938271604938272,25.629629629629633,0)" xlink:href="#F"/><use transform="matrix(0.04938271604938272,0,0,0.04938271604938272,29.530864197530867,0)" xlink:href="#G"/><use transform="matrix(0.04938271604938272,0,0,0.04938271604938272,38.41975308641976,0)" xlink:href="#D"/><use transform="matrix(0.04938271604938272,0,0,0.04938271604938272,43.35802469135803,0)" xlink:href="#A"/><use transform="matrix(0.04938271604938272,0,0,0.04938271604938272,49.23456790123458,0)" xlink:href="#H"/></g><path fill="#333" d="M24 0v-261h32V0H24" id="I"/><path fill="#333" d="M100-194c62-1 85 37 85 99 1 63-27 99-86 99S16-35 15-95c0-66 28-99 85-99zM99-20c44 1 53-31 53-75 0-43-8-75-51-75s-53 32-53 75 10 74 51 75" id="J"/><path fill="#333" d="M96-169c-40 0-48 33-48 73s9 75 48 75c24 0 41-14 43-38l32 2c-6 37-31 61-74 61-59 0-76-41-82-99-10-93 101-131 147-64 4 7 5 14 7 22l-32 3c-4-21-16-35-41-35" id="K"/><g id="c"><use transform="matrix(0.04938271604938272,0,0,0.04938271604938272,0,0)" xlink:href="#I"/><use transform="matrix(0.04938271604938272,0,0,0.04938271604938272,3.901234567901235,0)" xlink:href="#J"/><use transform="matrix(0.04938271604938272,0,0,0.04938271604938272,13.777777777777779,0)" xlink:href="#K"/><use transform="matrix(0.04938271604938272,0,0,0.04938271604938272,22.666666666666668,0)" xlink:href="#C"/><use transform="matrix(0.04938271604938272,0,0,0.04938271604938272,32.543209876543216,0)" xlink:href="#I"/></g><g id="d"><use transform="matrix(0.04938271604938272,0,0,0.04938271604938272,0,0)" xlink:href="#G"/><use transform="matrix(0.04938271604938272,0,0,0.04938271604938272,8.88888888888889,0)" xlink:href="#D"/><use transform="matrix(0.04938271604938272,0,0,0.04938271604938272,13.827160493827162,0)" xlink:href="#J"/><use transform="matrix(0.04938271604938272,0,0,0.04938271604938272,23.703703703703706,0)" xlink:href="#A"/><use transform="matrix(0.04938271604938272,0,0,0.04938271604938272,29.58024691358025,0)" xlink:href="#B"/></g><path fill="#333" d="M84 4C-5 8 30-112 23-190h32v120c0 31 7 50 39 49 72-2 45-101 50-169h31l1 190h-30c-1-10 1-25-2-33-11 22-28 36-60 37" id="L"/><path fill="#333" d="M117-194c89-4 53 116 60 194h-32v-121c0-31-8-49-39-48C34-167 62-67 57 0H25l-1-190h30c1 10-1 24 2 32 11-22 29-35 61-36" id="M"/><g id="e"><use transform="matrix(0.04938271604938272,0,0,0.04938271604938272,0,0)" xlink:href="#L"/><use transform="matrix(0.04938271604938272,0,0,0.04938271604938272,9.876543209876544,0)" xlink:href="#G"/><use transform="matrix(0.04938271604938272,0,0,0.04938271604938272,18.765432098765434,0)" xlink:href="#F"/><use transform="matrix(0.04938271604938272,0,0,0.04938271604938272,22.666666666666668,0)" xlink:href="#M"/><use transform="matrix(0.04938271604938272,0,0,0.04938271604938272,32.543209876543216,0)" xlink:href="#E"/></g><path fill="#333" d="M101-234c-31-9-42 10-38 44h38v23H63V0H32v-167H5v-23h27c-7-52 17-82 69-68v24" id="N"/><g id="f"><use transform="matrix(0.04938271604938272,0,0,0.04938271604938272,0,0)" xlink:href="#K"/><use transform="matrix(0.04938271604938272,0,0,0.04938271604938272,8.88888888888889,0)" xlink:href="#J"/><use transform="matrix(0.04938271604938272,0,0,0.04938271604938272,18.765432098765434,0)" xlink:href="#M"/><use transform="matrix(0.04938271604938272,0,0,0.04938271604938272,28.641975308641978,0)" xlink:href="#N"/><use transform="matrix(0.04938271604938272,0,0,0.04938271604938272,33.580246913580254,0)" xlink:href="#F"/><use transform="matrix(0.04938271604938272,0,0,0.04938271604938272,37.48148148148149,0)" xlink:href="#E"/></g><path fill="#333" d="M185-189c-5-48-123-54-124 2 14 75 158 14 163 119 3 78-121 87-175 55-17-10-28-26-33-46l33-7c5 56 141 63 141-1 0-78-155-14-162-118-5-82 145-84 179-34 5 7 8 16 11 25" id="O"/><g id="g"><use transform="matrix(0.04938271604938272,0,0,0.04938271604938272,0,0)" xlink:href="#O"/><use transform="matrix(0.04938271604938272,0,0,0.04938271604938272,11.851851851851853,0)" xlink:href="#D"/><use transform="matrix(0.04938271604938272,0,0,0.04938271604938272,16.790123456790127,0)" xlink:href="#C"/><use transform="matrix(0.04938271604938272,0,0,0.04938271604938272,26.666666666666668,0)" xlink:href="#A"/><use transform="matrix(0.04938271604938272,0,0,0.04938271604938272,32.543209876543216,0)" xlink:href="#D"/></g><path fill="#333" d="M115-194c55 1 70 41 70 98S169 2 115 4C84 4 66-9 55-30l1 105H24l-1-265h31l2 30c10-21 28-34 59-34zm-8 174c40 0 45-34 45-75s-6-73-45-74c-42 0-51 32-51 76 0 43 10 73 51 73" id="P"/><g id="h"><use transform="matrix(0.04938271604938272,0,0,0.04938271604938272,0,0)" xlink:href="#P"/><use transform="matrix(0.04938271604938272,0,0,0.04938271604938272,9.876543209876544,0)" xlink:href="#J"/><use transform="matrix(0.04938271604938272,0,0,0.04938271604938272,19.75308641975309,0)" xlink:href="#I"/><use transform="matrix(0.04938271604938272,0,0,0.04938271604938272,23.654320987654323,0)" xlink:href="#I"/><use transform="matrix(0.04938271604938272,0,0,0.04938271604938272,27.555555555555557,0)" xlink:href="#F"/><use transform="matrix(0.04938271604938272,0,0,0.04938271604938272,31.45679012345679,0)" xlink:href="#M"/><use transform="matrix(0.04938271604938272,0,0,0.04938271604938272,41.333333333333336,0)" xlink:href="#E"/></g><path fill="#333" d="M234-2c-28 10-62 0-77-18C117 19 8 12 13-65c3-43 29-61 60-76-25-40-17-114 47-108 35 3 59 15 59 50 0 44-40 53-71 69 14 26 32 50 51 72 14-21 24-43 30-72l26 8c-9 33-21 57-38 82 13 13 33 22 57 15v23zM97-151c25-10 52-18 56-48-1-18-13-29-33-29-42 0-39 50-23 77zM42-66c-3 51 71 58 98 28-20-24-41-51-56-80-23 10-40 24-42 52" id="Q"/><use transform="matrix(0.04938271604938272,0,0,0.04938271604938272,0,0)" xlink:href="#Q" id="i"/><path fill="#333" d="M106-169C34-169 62-67 57 0H25v-261h32l-1 103c12-21 28-36 61-36 89 0 53 116 60 194h-32v-121c2-32-8-49-39-48" id="R"/><g id="j"><use transform="matrix(0.04938271604938272,0,0,0.04938271604938272,0,0)" xlink:href="#K"/><use transform="matrix(0.04938271604938272,0,0,0.04938271604938272,8.88888888888889,0)" xlink:href="#C"/><use transform="matrix(0.04938271604938272,0,0,0.04938271604938272,18.765432098765434,0)" xlink:href="#K"/><use transform="matrix(0.04938271604938272,0,0,0.04938271604938272,27.654320987654323,0)" xlink:href="#R"/><use transform="matrix(0.04938271604938272,0,0,0.04938271604938272,37.53086419753087,0)" xlink:href="#F"/><use transform="matrix(0.04938271604938272,0,0,0.04938271604938272,41.4320987654321,0)" xlink:href="#M"/><use transform="matrix(0.04938271604938272,0,0,0.04938271604938272,51.308641975308646,0)" xlink:href="#E"/></g><g id="k"><use transform="matrix(0.04938271604938272,0,0,0.04938271604938272,0,0)" xlink:href="#G"/><use transform="matrix(0.04938271604938272,0,0,0.04938271604938272,8.88888888888889,0)" xlink:href="#D"/><use transform="matrix(0.04938271604938272,0,0,0.04938271604938272,13.827160493827162,0)" xlink:href="#J"/><use transform="matrix(0.04938271604938272,0,0,0.04938271604938272,23.703703703703706,0)" xlink:href="#A"/><use transform="matrix(0.04938271604938272,0,0,0.04938271604938272,29.58024691358025,0)" xlink:href="#B"/></g><path fill="#333" d="M87 75C49 33 22-17 22-94c0-76 28-126 65-167h31c-38 41-64 92-64 168S80 34 118 75H87" id="S"/><path fill="#333" d="M233-177c-1 41-23 64-60 70L243 0h-38l-65-103H63V0H30v-248c88 3 205-21 203 71zM63-129c60-2 137 13 137-47 0-61-80-42-137-45v92" id="T"/><path fill="#333" d="M33-261c38 41 65 92 65 168S71 34 33 75H2C39 34 66-17 66-93S39-220 2-261h31" id="U"/><g id="l"><use transform="matrix(0.04938271604938272,0,0,0.04938271604938272,0,0)" xlink:href="#S"/><use transform="matrix(0.04938271604938272,0,0,0.04938271604938272,5.8765432098765435,0)" xlink:href="#T"/><use transform="matrix(0.04938271604938272,0,0,0.04938271604938272,18.666666666666668,0)" xlink:href="#B"/><use transform="matrix(0.04938271604938272,0,0,0.04938271604938272,28.543209876543212,0)" xlink:href="#E"/><use transform="matrix(0.04938271604938272,0,0,0.04938271604938272,38.41975308641976,0)" xlink:href="#F"/><use transform="matrix(0.04938271604938272,0,0,0.04938271604938272,42.320987654320994,0)" xlink:href="#G"/><use transform="matrix(0.04938271604938272,0,0,0.04938271604938272,51.209876543209894,0)" xlink:href="#D"/><use transform="matrix(0.04938271604938272,0,0,0.04938271604938272,56.14814814814817,0)" xlink:href="#A"/><use transform="matrix(0.04938271604938272,0,0,0.04938271604938272,62.02469135802471,0)" xlink:href="#H"/><use transform="matrix(0.04938271604938272,0,0,0.04938271604938272,70.9135802469136,0)" xlink:href="#z"/><use transform="matrix(0.04938271604938272,0,0,0.04938271604938272,83.70370370370372,0)" xlink:href="#I"/><use transform="matrix(0.04938271604938272,0,0,0.04938271604938272,87.60493827160496,0)" xlink:href="#F"/><use transform="matrix(0.04938271604938272,0,0,0.04938271604938272,91.5061728395062,0)" xlink:href="#B"/><use transform="matrix(0.04938271604938272,0,0,0.04938271604938272,101.38271604938275,0)" xlink:href="#M"/><use transform="matrix(0.04938271604938272,0,0,0.04938271604938272,111.2592592592593,0)" xlink:href="#D"/><use transform="matrix(0.04938271604938272,0,0,0.04938271604938272,116.19753086419756,0)" xlink:href="#U"/></g><path fill="#333" d="M232-93c-1 65-40 97-104 97C67 4 28-28 28-90v-158h33c8 89-33 224 67 224 102 0 64-133 71-224h33v155" id="V"/><path fill="#333" d="M85-194c31 0 48 13 60 33l-1-100h32l1 261h-30c-2-10 0-23-3-31C134-8 116 4 85 4 32 4 16-35 15-94c0-66 23-100 70-100zm9 24c-40 0-46 34-46 75 0 40 6 74 45 74 42 0 51-32 51-76 0-42-9-74-50-73" id="W"/><g id="m"><use transform="matrix(0.04938271604938272,0,0,0.04938271604938272,0,0)" xlink:href="#V"/><use transform="matrix(0.04938271604938272,0,0,0.04938271604938272,12.790123456790125,0)" xlink:href="#P"/><use transform="matrix(0.04938271604938272,0,0,0.04938271604938272,22.66666666666667,0)" xlink:href="#W"/><use transform="matrix(0.04938271604938272,0,0,0.04938271604938272,32.543209876543216,0)" xlink:href="#C"/><use transform="matrix(0.04938271604938272,0,0,0.04938271604938272,42.41975308641976,0)" xlink:href="#D"/><use transform="matrix(0.04938271604938272,0,0,0.04938271604938272,47.35802469135803,0)" xlink:href="#B"/></g><path fill="#333" d="M115-194c53 0 69 39 70 98 0 66-23 100-70 100C84 3 66-7 56-30L54 0H23l1-261h32v101c10-23 28-34 59-34zm-8 174c40 0 45-34 45-75 0-40-5-75-45-74-42 0-51 32-51 76 0 43 10 73 51 73" id="X"/><g id="n"><use transform="matrix(0.04938271604938272,0,0,0.04938271604938272,0,0)" xlink:href="#X"/><use transform="matrix(0.04938271604938272,0,0,0.04938271604938272,9.876543209876544,0)" xlink:href="#H"/></g><g id="o"><use transform="matrix(0.04938271604938272,0,0,0.04938271604938272,0,0)" xlink:href="#P"/><use transform="matrix(0.04938271604938272,0,0,0.04938271604938272,9.876543209876544,0)" xlink:href="#J"/><use transform="matrix(0.04938271604938272,0,0,0.04938271604938272,19.75308641975309,0)" xlink:href="#I"/><use transform="matrix(0.04938271604938272,0,0,0.04938271604938272,23.654320987654323,0)" xlink:href="#I"/><use transform="matrix(0.04938271604938272,0,0,0.04938271604938272,27.555555555555557,0)" xlink:href="#F"/><use transform="matrix(0.04938271604938272,0,0,0.04938271604938272,31.45679012345679,0)" xlink:href="#M"/><use transform="matrix(0.04938271604938272,0,0,0.04938271604938272,41.333333333333336,0)" xlink:href="#E"/></g><g id="p"><use transform="matrix(0.04938271604938272,0,0,0.04938271604938272,0,0)" xlink:href="#T"/><use transform="matrix(0.04938271604938272,0,0,0.04938271604938272,12.790123456790125,0)" xlink:href="#B"/><use transform="matrix(0.04938271604938272,0,0,0.04938271604938272,22.66666666666667,0)" xlink:href="#E"/><use transform="matrix(0.04938271604938272,0,0,0.04938271604938272,32.543209876543216,0)" xlink:href="#F"/><use transform="matrix(0.04938271604938272,0,0,0.04938271604938272,36.44444444444445,0)" xlink:href="#G"/><use transform="matrix(0.04938271604938272,0,0,0.04938271604938272,45.33333333333334,0)" xlink:href="#D"/><use transform="matrix(0.04938271604938272,0,0,0.04938271604938272,50.271604938271615,0)" xlink:href="#A"/><use transform="matrix(0.04938271604938272,0,0,0.04938271604938272,56.14814814814817,0)" xlink:href="#H"/><use transform="matrix(0.04938271604938272,0,0,0.04938271604938272,65.03703703703705,0)" xlink:href="#z"/><use transform="matrix(0.04938271604938272,0,0,0.04938271604938272,77.82716049382718,0)" xlink:href="#C"/><use transform="matrix(0.04938271604938272,0,0,0.04938271604938272,87.70370370370372,0)" xlink:href="#M"/><use transform="matrix(0.04938271604938272,0,0,0.04938271604938272,97.58024691358027,0)" xlink:href="#F"/><use transform="matrix(0.04938271604938272,0,0,0.04938271604938272,101.48148148148151,0)" xlink:href="#G"/><use transform="matrix(0.04938271604938272,0,0,0.04938271604938272,110.3703703703704,0)" xlink:href="#D"/><use transform="matrix(0.04938271604938272,0,0,0.04938271604938272,115.30864197530865,0)" xlink:href="#B"/><use transform="matrix(0.04938271604938272,0,0,0.04938271604938272,125.18518518518519,0)" xlink:href="#A"/></g><g id="q"><use transform="matrix(0.04938271604938272,0,0,0.04938271604938272,0,0)" xlink:href="#O"/><use transform="matrix(0.04938271604938272,0,0,0.04938271604938272,11.851851851851853,0)" xlink:href="#I"/><use transform="matrix(0.04938271604938272,0,0,0.04938271604938272,15.753086419753087,0)" xlink:href="#B"/><use transform="matrix(0.04938271604938272,0,0,0.04938271604938272,25.629629629629633,0)" xlink:href="#B"/><use transform="matrix(0.04938271604938272,0,0,0.04938271604938272,35.50617283950618,0)" xlink:href="#P"/></g><g id="r"><use transform="matrix(0.04938271604938272,0,0,0.04938271604938272,0,0)" xlink:href="#N"/><use transform="matrix(0.04938271604938272,0,0,0.04938271604938272,4.938271604938272,0)" xlink:href="#J"/><use transform="matrix(0.04938271604938272,0,0,0.04938271604938272,14.814814814814817,0)" xlink:href="#A"/></g><path fill="#333" d="M-5 72V49h209v23H-5" id="Y"/><g id="s"><use transform="matrix(0.04938271604938272,0,0,0.04938271604938272,0,0)" xlink:href="#P"/><use transform="matrix(0.04938271604938272,0,0,0.04938271604938272,9.876543209876544,0)" xlink:href="#J"/><use transform="matrix(0.04938271604938272,0,0,0.04938271604938272,19.75308641975309,0)" xlink:href="#I"/><use transform="matrix(0.04938271604938272,0,0,0.04938271604938272,23.654320987654323,0)" xlink:href="#I"/><use transform="matrix(0.04938271604938272,0,0,0.04938271604938272,27.555555555555557,0)" xlink:href="#Y"/><use transform="matrix(0.04938271604938272,0,0,0.04938271604938272,37.4320987654321,0)" xlink:href="#W"/><use transform="matrix(0.04938271604938272,0,0,0.04938271604938272,47.308641975308646,0)" xlink:href="#B"/><use transform="matrix(0.04938271604938272,0,0,0.04938271604938272,57.18518518518519,0)" xlink:href="#I"/><use transform="matrix(0.04938271604938272,0,0,0.04938271604938272,61.086419753086425,0)" xlink:href="#C"/><use transform="matrix(0.04938271604938272,0,0,0.04938271604938272,70.96296296296296,0)" xlink:href="#H"/></g><path fill="#333" d="M26 75v-336h71v23H56V52h41v23H26" id="Z"/><path fill="#333" d="M63-70H37l-4-178h34zM33 0v-35h34V0H33" id="aa"/><path fill="#333" d="M3 75V52h41v-290H3v-23h71V75H3" id="ab"/><g id="t"><use transform="matrix(0.05,0,0,0.05,0,0)" xlink:href="#Z"/><use transform="matrix(0.05,0,0,0.05,5,0)" xlink:href="#aa"/><use transform="matrix(0.05,0,0,0.05,10,0)" xlink:href="#K"/><use transform="matrix(0.05,0,0,0.05,19,0)" xlink:href="#C"/><use transform="matrix(0.05,0,0,0.05,29,0)" xlink:href="#M"/><use transform="matrix(0.05,0,0,0.05,39,0)" xlink:href="#K"/><use transform="matrix(0.05,0,0,0.05,48,0)" xlink:href="#B"/><use transform="matrix(0.05,0,0,0.05,58,0)" xlink:href="#I"/><use transform="matrix(0.05,0,0,0.05,61.95,0)" xlink:href="#I"/><use transform="matrix(0.05,0,0,0.05,65.9,0)" xlink:href="#B"/><use transform="matrix(0.05,0,0,0.05,75.9,0)" xlink:href="#W"/><use transform="matrix(0.05,0,0,0.05,85.9,0)" xlink:href="#ab"/></g><path fill="#333" d="M33 0v-248h34V0H33" id="ac"/><g id="u"><use transform="matrix(0.04938271604938272,0,0,0.04938271604938272,0,0)" xlink:href="#ac"/><use transform="matrix(0.04938271604938272,0,0,0.04938271604938272,4.938271604938272,0)" xlink:href="#M"/><use transform="matrix(0.04938271604938272,0,0,0.04938271604938272,14.814814814814817,0)" xlink:href="#F"/><use transform="matrix(0.04938271604938272,0,0,0.04938271604938272,18.71604938271605,0)" xlink:href="#D"/></g><path fill="#333" d="M206 0h-36l-40-164L89 0H53L-1-190h32L70-26l43-164h34l41 164 42-164h31" id="ad"/><g id="v"><use transform="matrix(0.04938271604938272,0,0,0.04938271604938272,0,0)" xlink:href="#ad"/><use transform="matrix(0.04938271604938272,0,0,0.04938271604938272,12.790123456790125,0)" xlink:href="#F"/><use transform="matrix(0.04938271604938272,0,0,0.04938271604938272,16.69135802469136,0)" xlink:href="#D"/><use transform="matrix(0.04938271604938272,0,0,0.04938271604938272,21.629629629629633,0)" xlink:href="#R"/></g><g id="w"><use transform="matrix(0.04938271604938272,0,0,0.04938271604938272,0,0)" xlink:href="#T"/><use transform="matrix(0.04938271604938272,0,0,0.04938271604938272,12.790123456790125,0)" xlink:href="#B"/><use transform="matrix(0.04938271604938272,0,0,0.04938271604938272,22.66666666666667,0)" xlink:href="#E"/><use transform="matrix(0.04938271604938272,0,0,0.04938271604938272,32.543209876543216,0)" xlink:href="#F"/><use transform="matrix(0.04938271604938272,0,0,0.04938271604938272,36.44444444444445,0)" xlink:href="#G"/><use transform="matrix(0.04938271604938272,0,0,0.04938271604938272,45.33333333333334,0)" xlink:href="#D"/><use transform="matrix(0.04938271604938272,0,0,0.04938271604938272,50.271604938271615,0)" xlink:href="#A"/><use transform="matrix(0.04938271604938272,0,0,0.04938271604938272,56.14814814814817,0)" xlink:href="#H"/><use transform="matrix(0.04938271604938272,0,0,0.04938271604938272,65.03703703703705,0)" xlink:href="#z"/><use transform="matrix(0.04938271604938272,0,0,0.04938271604938272,77.82716049382718,0)" xlink:href="#C"/><use transform="matrix(0.04938271604938272,0,0,0.04938271604938272,87.70370370370372,0)" xlink:href="#M"/><use transform="matrix(0.04938271604938272,0,0,0.04938271604938272,97.58024691358027,0)" xlink:href="#F"/><use transform="matrix(0.04938271604938272,0,0,0.04938271604938272,101.48148148148151,0)" xlink:href="#G"/><use transform="matrix(0.04938271604938272,0,0,0.04938271604938272,110.3703703703704,0)" xlink:href="#D"/><use transform="matrix(0.04938271604938272,0,0,0.04938271604938272,115.30864197530865,0)" xlink:href="#B"/><use transform="matrix(0.04938271604938272,0,0,0.04938271604938272,125.18518518518519,0)" xlink:href="#A"/></g><g id="x"><use transform="matrix(0.04938271604938272,0,0,0.04938271604938272,0,0)" xlink:href="#K"/><use transform="matrix(0.04938271604938272,0,0,0.04938271604938272,8.88888888888889,0)" xlink:href="#R"/><use transform="matrix(0.04938271604938272,0,0,0.04938271604938272,18.765432098765434,0)" xlink:href="#C"/><use transform="matrix(0.04938271604938272,0,0,0.04938271604938272,28.641975308641978,0)" xlink:href="#M"/><use transform="matrix(0.04938271604938272,0,0,0.04938271604938272,38.51851851851852,0)" xlink:href="#E"/><use transform="matrix(0.04938271604938272,0,0,0.04938271604938272,48.39506172839506,0)" xlink:href="#B"/><use transform="matrix(0.04938271604938272,0,0,0.04938271604938272,58.27160493827161,0)" xlink:href="#I"/><use transform="matrix(0.04938271604938272,0,0,0.04938271604938272,62.17283950617284,0)" xlink:href="#J"/><use transform="matrix(0.04938271604938272,0,0,0.04938271604938272,72.0493827160494,0)" xlink:href="#E"/></g><path fill="#333" d="M210-169c-67 3-38 105-44 169h-31v-121c0-29-5-50-35-48C34-165 62-65 56 0H25l-1-190h30c1 10-1 24 2 32 10-44 99-50 107 0 11-21 27-35 58-36 85-2 47 119 55 194h-31v-121c0-29-5-49-35-48" id="ae"/><g id="y"><use transform="matrix(0.05,0,0,0.05,0,0)" xlink:href="#Z"/><use transform="matrix(0.05,0,0,0.05,5,0)" xlink:href="#B"/><use transform="matrix(0.05,0,0,0.05,15,0)" xlink:href="#ae"/><use transform="matrix(0.05,0,0,0.05,29.950000000000003,0)" xlink:href="#P"/><use transform="matrix(0.05,0,0,0.05,39.95,0)" xlink:href="#D"/><use transform="matrix(0.05,0,0,0.05,44.95,0)" xlink:href="#H"/><use transform="matrix(0.05,0,0,0.05,53.95,0)" xlink:href="#ab"/></g></defs></g></svg>