<svg xmlns="http://www.w3.org/2000/svg" xmlns:xlink="http://www.w3.org/1999/xlink" xmlns:lucid="lucid" width="979.21" height="1494.19"><g transform="translate(896 1414)" lucid:page-tab-id="-9xVqQ9tbKUy"><path d="M-876-691.43c0-4.42 3.58-8 8-8h144c4.42 0 8 3.58 8 8v8.15c0 4.4-3.58 8-8 8h-144c-4.42 0-8-3.6-8-8z" stroke="#fff" fill="#fff"/><path d="M-592.38-1394c-11.5 0-20.83 9.33-20.83 20.83v62.5c0 11.5 9.32 20.82 20.82 20.82h126.55c11.5 0 20.83-9.33 20.83-20.83v-62.5c0-11.5-9.33-20.82-20.83-20.82z" stroke="#282c33" fill="#fff"/><use xlink:href="#a" transform="matrix(1,0,0,1,-605.2094352042959,-1386) translate(32.154320987654316 48.05555555555555)"/><use xlink:href="#b" transform="matrix(1,0,0,1,-605.2094352042959,-1386) translate(79.51234567901236 48.05555555555555)"/><path d="M-424.17-1210.87c-11.5 0-20.83 9.33-20.83 20.83v62.5c0 11.5 9.33 20.82 20.83 20.82h126.55c11.5 0 20.83-9.32 20.83-20.83v-62.5c0-11.5-9.32-20.82-20.82-20.82z" stroke="#282c33" fill="#fff"/><use xlink:href="#c" transform="matrix(1,0,0,1,-437,-1202.8661246174001) translate(1.0185185185185048 37.388888888888886)"/><use xlink:href="#d" transform="matrix(1,0,0,1,-437,-1202.8661246174001) translate(34.59876543209876 37.388888888888886)"/><use xlink:href="#e" transform="matrix(1,0,0,1,-437,-1202.8661246174001) translate(116.52469135802468 37.388888888888886)"/><use xlink:href="#f" transform="matrix(1,0,0,1,-437,-1202.8661246174001) translate(23.759259259259252 58.72222222222222)"/><use xlink:href="#g" transform="matrix(1,0,0,1,-437,-1202.8661246174001) translate(71.11728395061728 58.72222222222222)"/><path d="M-783.67-1210.87c-11.5 0-20.83 9.33-20.83 20.83v62.5c0 11.5 9.33 20.82 20.83 20.82h126.55c11.5 0 20.83-9.32 20.83-20.83v-62.5c0-11.5-9.32-20.82-20.82-20.82z" stroke="#282c33" fill="#fff"/><use xlink:href="#h" transform="matrix(1,0,0,1,-796.4999999152787,-1202.8661246174001) translate(7.907407407407405 48.05555555555555)"/><use xlink:href="#i" transform="matrix(1,0,0,1,-796.4999999152787,-1202.8661246174001) translate(68.10493827160494 48.05555555555555)"/><path d="M-675.73-1249.86h-32.63l-3.02.4-2.75 1.14-2.4 1.83-1.83 2.4-1.14 2.76-.4 3v10.6h-1v-10.65l.43-3.2 1.24-3 2-2.6 2.6-2 3-1.24 3.2-.42h32.7zm147.13-12.47l-.43 3.22-1.24 3-2 2.58-2.6 2-3 1.24-3.2.42h-77.7v-1h77.63l3.02-.4 2.75-1.14 2.4-1.83 1.83-2.4 1.14-2.74.4-3.02v-26.45h1z" stroke="#333" stroke-width=".05" fill="#333"/><path d="M-528.6-1288.84h-1v-.5h1z" fill="#333"/><path d="M-528.58-1288.8h-1.05v-.58h1.05zm-1-.53v.47h.95v-.47z" stroke="#333" stroke-width=".05" fill="#333"/><path d="M-720.4-1212.98l-4.63-14.27h9.27z" fill="#333"/><path d="M-720.4-1211.37l-5.32-16.38h10.65zm-3.94-15.38l3.94 12.15 3.95-12.15z" stroke="#333" stroke-width=".05" fill="#333"/><use xlink:href="#j" transform="matrix(1,0,0,1,-675.7250246642735,-1261.1584418087) translate(0.004999999999999005 14.4)"/><path d="M-372.86-1250.86l3.2.42 3 1.25 2.6 2 2 2.6 1.24 3 .42 3.2v10.65h-1v-10.58l-.4-3-1.13-2.77-1.84-2.4-2.4-1.82-2.74-1.14-3.03-.4h-45.6v-1zm-155.35-8.5l1.13 2.74 1.84 2.4 2.4 1.82 2.74 1.15 3.03.4h45.6v1h-45.67l-3.2-.43-3-1.24-2.6-2-2-2.6-1.24-3-.42-3.2v-26.53h1v26.46z" stroke="#333" stroke-width=".05" fill="#333"/><path d="M-528.6-1288.84h-1v-.5h1z" fill="#333"/><path d="M-528.58-1288.8h-1.05v-.58h1.05zm-1-.53v.47h.95v-.47z" stroke="#333" stroke-width=".05" fill="#333"/><path d="M-360.9-1212.98l-4.63-14.27h9.27z" fill="#333"/><path d="M-360.9-1211.37l-5.32-16.38h10.65zm-3.94-15.38l3.94 12.15 3.95-12.15z" stroke="#333" stroke-width=".05" fill="#333"/><use xlink:href="#k" transform="matrix(1,0,0,1,-471.4749999576393,-1261.1584418087) translate(0.004999999999999005 14.4)"/><path d="M-780.5-1027.73c-13.25 0-24 10.74-24 24v72c0 13.25 10.75 24 24 24h120.2c13.26 0 24-10.75 24-24v-72c0-13.26-10.74-24-24-24z" stroke="#282c33" fill="#fff"/><use xlink:href="#c" transform="matrix(1,0,0,1,-796.5,-1019.7322492348003) translate(6.9691358024691255 14.222222222222223)"/><use xlink:href="#f" transform="matrix(1,0,0,1,-796.5,-1019.7322492348003) translate(40.54938271604938 14.222222222222223)"/><use xlink:href="#l" transform="matrix(1,0,0,1,-796.5,-1019.7322492348003) translate(87.9074074074074 14.222222222222223)"/><use xlink:href="#m" transform="matrix(1,0,0,1,-796.5,-1019.7322492348003) translate(23.709876543209873 35.55555555555556)"/><use xlink:href="#n" transform="matrix(1,0,0,1,-796.5,-1019.7322492348003) translate(90.77160493827161 35.55555555555556)"/><use xlink:href="#o" transform="matrix(1,0,0,1,-796.5,-1019.7322492348003) translate(10.598765432098759 56.88888888888889)"/><use xlink:href="#p" transform="matrix(1,0,0,1,-796.5,-1019.7322492348003) translate(62.50000000000001 56.88888888888889)"/><use xlink:href="#q" transform="matrix(1,0,0,1,-796.5,-1019.7322492348003) translate(82.25308641975309 56.88888888888889)"/><use xlink:href="#r" transform="matrix(1,0,0,1,-796.5,-1019.7322492348003) translate(17.78395061728395 78.22222222222223)"/><use xlink:href="#s" transform="matrix(1,0,0,1,-796.5,-1019.7322492348003) translate(58.2283950617284 78.22222222222223)"/><use xlink:href="#t" transform="matrix(1,0,0,1,-796.5,-1019.7322492348003) translate(76.94444444444446 78.22222222222223)"/><use xlink:href="#u" transform="matrix(1,0,0,1,-796.5,-1019.7322492348003) translate(3.2901234567901128 99.55555555555557)"/><use xlink:href="#v" transform="matrix(1,0,0,1,-796.5,-1019.7322492348003) translate(51.19135802469135 99.55555555555557)"/><use xlink:href="#g" transform="matrix(1,0,0,1,-796.5,-1019.7322492348003) translate(91.58641975308642 99.55555555555557)"/><path d="M-284.17-1027.73c-11.5 0-20.83 9.32-20.83 20.83v62.5c0 11.5 9.33 20.82 20.83 20.82h126.55c11.5 0 20.83-9.33 20.83-20.83v-62.5c0-11.5-9.32-20.83-20.82-20.83z" stroke="#282c33" fill="#fff"/><use xlink:href="#c" transform="matrix(1,0,0,1,-297,-1019.7322492348003) translate(11.413580246913568 26.72222222222222)"/><use xlink:href="#w" transform="matrix(1,0,0,1,-297,-1019.7322492348003) translate(44.99382716049382 26.72222222222222)"/><use xlink:href="#v" transform="matrix(1,0,0,1,-297,-1019.7322492348003) translate(35.09259259259259 48.05555555555556)"/><use xlink:href="#x" transform="matrix(1,0,0,1,-297,-1019.7322492348003) translate(75.48765432098766 48.05555555555556)"/><use xlink:href="#y" transform="matrix(1,0,0,1,-297,-1019.7322492348003) translate(3.4876543209876445 69.3888888888889)"/><use xlink:href="#z" transform="matrix(1,0,0,1,-297,-1019.7322492348003) translate(99.24074074074073 69.3888888888889)"/><path d="M-594.26-1066.72h-114.1l-3.02.4-2.75 1.13-2.4 1.85-1.83 2.4-1.14 2.74-.4 3v10.58h-1v-10.64l.43-3.2 1.24-3 2-2.6 2.6-2 3-1.24 3.2-.42h114.17zm233.86-12.47l-.42 3.22-1.24 3-2 2.6-2.6 2-3 1.23-3.2.43H-537.3v-1h164.37l3.02-.4 2.74-1.14 2.4-1.84 1.83-2.4 1.14-2.74.4-3.02v-26.46h1z" stroke="#333" stroke-width=".05" fill="#333"/><path d="M-360.4-1105.7h-1v-.52h1z" fill="#333"/><path d="M-360.37-1105.68h-1.05v-.56h1.05zm-1-.5v.45h.95v-.46z" stroke="#333" stroke-width=".05" fill="#333"/><path d="M-720.4-1029.85l-4.63-14.27h9.27z" fill="#333"/><path d="M-720.4-1028.23l-5.32-16.4h10.65zm-3.94-15.4l3.94 12.16 3.95-12.15z" stroke="#333" stroke-width=".05" fill="#333"/><use xlink:href="#j" transform="matrix(1,0,0,1,-594.2635802661282,-1078.0245664261001) translate(0.004999999999999005 14.4)"/><path d="M-232.86-1067.72l3.2.42 3 1.24 2.6 2 2 2.6 1.24 3 .42 3.2v10.64h-1v-10.57l-.4-3-1.13-2.76-1.84-2.4-2.4-1.83-2.74-1.13-3.03-.4h-31.5v-1zm-127.14-8.52l1.14 2.75 1.84 2.4 2.4 1.84 2.74 1.14 3.02.4h31.5v1h-31.57l-3.2-.43-3-1.24-2.6-1.98-2-2.6-1.24-3-.43-3.2v-26.54h1v26.46z" stroke="#333" stroke-width=".05" fill="#333"/><path d="M-360.4-1105.7h-1v-.52h1z" fill="#333"/><path d="M-360.37-1105.68h-1.05v-.56h1.05zm-1-.5v.45h.95v-.46z" stroke="#333" stroke-width=".05" fill="#333"/><path d="M-220.9-1029.85l-4.63-14.27h9.27z" fill="#333"/><path d="M-220.9-1028.23l-5.32-16.4h10.65zm-3.94-15.4l3.94 12.16 3.95-12.15z" stroke="#333" stroke-width=".05" fill="#333"/><use xlink:href="#k" transform="matrix(1,0,0,1,-317.37028239785195,-1078.0245664261001) translate(0.004999999999999005 14.4)"/><path d="M-720.4-1105.72v61.1" stroke="#333" fill="none"/><path d="M-719.9-1105.7h-1v-.52h1z" stroke="#333" stroke-width=".05" fill="#333"/><path d="M-720.4-1029.85l-4.63-14.27h9.27z" stroke="#333" fill="#333"/><path d="M-684-1341.93h53.9" stroke="#333" fill="none"/><path d="M-684-1341.43h-.56l.06-.47-.02-.53h.53z" stroke="#333" stroke-width=".05" fill="#333"/><path d="M-615.33-1341.93l-14.26 4.64v-9.26z" stroke="#333" fill="#333"/><path d="M-783.67-867.73c-11.5 0-20.83 9.32-20.83 20.83v62.5c0 11.5 9.33 20.82 20.83 20.82h126.55c11.5 0 20.83-9.33 20.83-20.83v-62.5c0-11.5-9.32-20.83-20.82-20.83z" stroke="#282c33" fill="#fff"/><use xlink:href="#A" transform="matrix(1,0,0,1,-796.5,-859.7322492348003) translate(45.88271604938271 26.72222222222222)"/><use xlink:href="#B" transform="matrix(1,0,0,1,-796.5,-859.7322492348003) translate(91.80864197530863 26.72222222222222)"/><use xlink:href="#C" transform="matrix(1,0,0,1,-796.5,-859.7322492348003) translate(18.006172839506164 48.05555555555556)"/><use xlink:href="#D" transform="matrix(1,0,0,1,-796.5,-859.7322492348003) translate(24.450617283950606 69.3888888888889)"/><use xlink:href="#E" transform="matrix(1,0,0,1,-796.5,-859.7322492348003) translate(79.3641975308642 69.3888888888889)"/><path d="M-720.4-906.73v22.1" stroke="#333" fill="none"/><path d="M-719.9-906.72h-1v-.5h1z" stroke="#333" stroke-width=".05" fill="#333"/><path d="M-720.4-869.85l-4.63-14.27h9.27z" stroke="#333" fill="#333"/><path d="M-844.5 28.16l.4 3.02 1.14 2.75 1.83 2.4 2.4 1.83 2.75 1.14 3 .4h317.25v1h-317.3l-3.2-.43-3-1.24-2.6-2-2-2.6-1.25-3-.42-3.2v-728.27h1zm39-843.32h-27.47l-3 .4-2.77 1.14-2.4 1.83-1.82 2.4-1.14 2.76-.4 3v82h-1v-82.05l.42-3.2 1.24-3 2-2.6 2.6-2 3-1.24 3.2-.42h27.54z" stroke="#333" stroke-width=".05" fill="#333"/><path d="M-805-815.16h-.5v-1h.5z" fill="#333"/><path d="M-804.98-815.13h-.56v-1.05h.56zm-.5-1v.95h.46v-.95z" stroke="#333" stroke-width=".05" fill="#333"/><path d="M-500.96 40.2l-14.27 4.63v-9.27z" fill="#333"/><path d="M-499.34 40.2l-16.4 5.32V34.87zm-15.4 3.94l12.16-3.95-12.15-3.95z" stroke="#333" stroke-width=".05" fill="#333"/><use xlink:href="#k" transform="matrix(1,0,0,1,-871.475,-721.6416048435168) translate(0.004999999999999005 14.4)"/><path d="M-548.27-803.58c-11.5 0-20.83 9.32-20.83 20.83v62.5c0 11.5 9.32 20.82 20.83 20.82h126.54c11.5 0 20.83-9.33 20.83-20.83v-62.5c0-11.5-9.32-20.82-20.83-20.82z" stroke="#282c33" fill="#fff"/><use xlink:href="#F" transform="matrix(1,0,0,1,-561.1047175597878,-795.5830086366618) translate(19.783950617283942 16.05555555555555)"/><use xlink:href="#G" transform="matrix(1,0,0,1,-561.1047175597878,-795.5830086366618) translate(103.58641975308643 16.05555555555555)"/><use xlink:href="#H" transform="matrix(1,0,0,1,-561.1047175597878,-795.5830086366618) translate(31.635802469135797 37.388888888888886)"/><use xlink:href="#I" transform="matrix(1,0,0,1,-561.1047175597878,-795.5830086366618) translate(88.82098765432099 37.388888888888886)"/><use xlink:href="#J" transform="matrix(1,0,0,1,-561.1047175597878,-795.5830086366618) translate(18.03086419753086 58.72222222222222)"/><use xlink:href="#K" transform="matrix(1,0,0,1,-561.1047175597878,-795.5830086366618) translate(84.69753086419753 58.72222222222222)"/><use xlink:href="#L" transform="matrix(1,0,0,1,-561.1047175597878,-795.5830086366618) translate(23.191358024691354 80.05555555555556)"/><use xlink:href="#M" transform="matrix(1,0,0,1,-561.1047175597878,-795.5830086366618) translate(67.6358024691358 80.05555555555556)"/><path d="M-783.67-656.1c-11.5 0-20.83 9.3-20.83 20.82v62.5c0 11.5 9.33 20.82 20.83 20.82h126.55c11.5 0 20.83-9.33 20.83-20.83v-62.48c0-11.5-9.32-20.83-20.82-20.83z" stroke="#282c33" fill="#fff"/><use xlink:href="#N" transform="matrix(1,0,0,1,-796.5,-648.1118161141635) translate(6.993827160493822 26.72222222222222)"/><use xlink:href="#O" transform="matrix(1,0,0,1,-796.5,-648.1118161141635) translate(62.25308641975308 26.72222222222222)"/><use xlink:href="#L" transform="matrix(1,0,0,1,-796.5,-648.1118161141635) translate(76.03086419753086 26.72222222222222)"/><use xlink:href="#P" transform="matrix(1,0,0,1,-796.5,-648.1118161141635) translate(120.47530864197532 26.72222222222222)"/><use xlink:href="#Q" transform="matrix(1,0,0,1,-796.5,-648.1118161141635) translate(22.203703703703695 48.05555555555556)"/><use xlink:href="#p" transform="matrix(1,0,0,1,-796.5,-648.1118161141635) translate(57.70987654320987 48.05555555555556)"/><use xlink:href="#R" transform="matrix(1,0,0,1,-796.5,-648.1118161141635) translate(77.46296296296296 48.05555555555556)"/><use xlink:href="#S" transform="matrix(1,0,0,1,-796.5,-648.1118161141635) translate(32.154320987654316 69.3888888888889)"/><use xlink:href="#b" transform="matrix(1,0,0,1,-796.5,-648.1118161141635) translate(79.51234567901236 69.3888888888889)"/><path d="M-635.3-815.66h20.6c6.63 0 12 5.37 12 12v40.15c0 6.62 5.37 12 12 12h4.7" stroke="#333" fill="none"/><path d="M-635.28-815.16h-.5v-1h.5z" stroke="#333" stroke-width=".05" fill="#333"/><path d="M-571.22-751.5l-14.27 4.63v-9.27z" stroke="#333" fill="#333"/><use xlink:href="#T" transform="matrix(1,0,0,1,-624.5677519349238,-840.2862849437466) translate(0.0049999999999954525 14.4)"/><use xlink:href="#U" transform="matrix(1,0,0,1,-624.5677519349238,-840.2862849437466) translate(47.905 14.4)"/><use xlink:href="#V" transform="matrix(1,0,0,1,-624.5677519349238,-840.2862849437466) translate(106.905 14.4)"/><path d="M-719.9-673h-1v-26.05h1zm0-47.65h-1v-41.93h1z" stroke="#333" stroke-width=".05" fill="#333"/><path d="M-719.9-762.57h-1v-.5h1z" fill="#333"/><path d="M-719.87-762.55h-1.05v-.56h1.05zm-1-.5v.45h.95v-.46z" stroke="#333" stroke-width=".05" fill="#333"/><path d="M-720.4-658.23l-4.63-14.27h9.27z" fill="#333"/><path d="M-720.4-656.6l-5.32-16.4h10.65zm-3.94-15.4l3.94 12.15 3.95-12.15z" stroke="#333" stroke-width=".05" fill="#333"/><use xlink:href="#W" transform="matrix(1,0,0,1,-775.7452823554913,-720.6474121744818) translate(0.005000000000002558 14.4)"/><path d="M-525-639.73c0-4.42 3.58-8 8-8h64c4.42 0 8 3.58 8 8v64c0 4.42-3.58 8-8 8h-64c-4.42 0-8-3.58-8-8z" fill="none"/><path d="M-517-639.73l64 64m0-64l-64 64" stroke="#333" stroke-width="8" fill="none"/><path d="M-284.17-751.88c-11.5 0-20.83 9.32-20.83 20.83v62.5c0 11.5 9.33 20.82 20.83 20.82h126.55c11.5 0 20.83-9.33 20.83-20.83v-62.5c0-11.5-9.32-20.82-20.82-20.82z" stroke="#282c33" fill="#fff"/><use xlink:href="#F" transform="matrix(1,0,0,1,-297.00000008472125,-743.8814898329388) translate(10.450617283950606 26.72222222222222)"/><use xlink:href="#X" transform="matrix(1,0,0,1,-297.00000008472125,-743.8814898329388) translate(94.25308641975309 26.72222222222222)"/><use xlink:href="#Y" transform="matrix(1,0,0,1,-297.00000008472125,-743.8814898329388) translate(19.290123456790113 48.05555555555556)"/><use xlink:href="#Z" transform="matrix(1,0,0,1,-297.00000008472125,-743.8814898329388) translate(75.53703703703704 48.05555555555556)"/><use xlink:href="#aa" transform="matrix(1,0,0,1,-297.00000008472125,-743.8814898329388) translate(46.89506172839506 69.3888888888889)"/><path d="M-284.17-611.88c-11.5 0-20.83 9.32-20.83 20.83v62.5c0 11.5 9.33 20.82 20.83 20.82h126.55c11.5 0 20.83-9.33 20.83-20.83v-62.5c0-11.5-9.32-20.82-20.82-20.82z" stroke="#282c33" fill="#fff"/><use xlink:href="#ab" transform="matrix(1,0,0,1,-297.00000008472125,-603.8814898329388) translate(18.30246913580247 26.72222222222222)"/><use xlink:href="#ac" transform="matrix(1,0,0,1,-297.00000008472125,-603.8814898329388) translate(69.56172839506172 26.72222222222222)"/><use xlink:href="#ad" transform="matrix(1,0,0,1,-297.00000008472125,-603.8814898329388) translate(26.27777777777777 48.05555555555556)"/><use xlink:href="#ae" transform="matrix(1,0,0,1,-297.00000008472125,-603.8814898329388) translate(73.53703703703704 48.05555555555556)"/><use xlink:href="#af" transform="matrix(1,0,0,1,-297.00000008472125,-603.8814898329388) translate(51.339506172839506 69.3888888888889)"/><path d="M-220.9-646.73v17.96" stroke="#333" fill="none"/><path d="M-220.4-646.72h-1v-.5h1z" stroke="#333" stroke-width=".05" fill="#333"/><path d="M-220.9-614l-4.63-14.27h9.27z" stroke="#333" fill="#333"/><path d="M-220.4-768.77h-1v-19.06h1zm0-40.66h-1v-113.15h1z" stroke="#333" stroke-width=".05" fill="#333"/><path d="M-220.4-922.57h-1v-.5h1z" fill="#333"/><path d="M-220.37-922.55h-1.05v-.56h1.05zm-1-.5v.45h.95v-.46z" stroke="#333" stroke-width=".05" fill="#333"/><path d="M-220.9-754l-4.63-14.27h9.27z" fill="#333"/><path d="M-220.9-752.38l-5.32-16.4h10.65zm-3.94-15.4l3.94 12.16 3.95-12.15z" stroke="#333" stroke-width=".05" fill="#333"/><use xlink:href="#ag" transform="matrix(1,0,0,1,-311.79528244021265,-809.4255102112829) translate(0.0049999999999954525 14.4)"/><use xlink:href="#ah" transform="matrix(1,0,0,1,-311.79528244021265,-809.4255102112829) translate(107.80499999999999 14.4)"/><path d="M-20.4-134.4h-1v-652.54h1zm-200-769.5l.4 3 1.14 2.76 1.84 2.4 2.4 1.82 2.74 1.14 3.02.4h176l3.2.42 3 1.24 2.6 2 2 2.6 1.24 3 .42 3.2v71.38h-1v-71.3l-.4-3.02-1.13-2.76-1.84-2.4-2.4-1.82-2.74-1.15-3.03-.38h-176l-3.2-.42-3-1.25-2.6-2-2-2.6-1.24-3-.43-3.2v-18.73h1z" stroke="#333" stroke-width=".05" fill="#333"/><path d="M-220.4-922.57h-1v-.5h1z" fill="#333"/><path d="M-220.37-922.55h-1.05v-.56h1.05zm-1-.5v.45h.95v-.46z" stroke="#333" stroke-width=".05" fill="#333"/><path d="M-20.9-119.65l-4.63-14.26h9.27z" fill="#333"/><path d="M-20.9-118.03l-5.32-16.38h10.65zm-3.94-15.38l3.94 12.13 3.95-12.14z" stroke="#333" stroke-width=".05" fill="#333"/><use xlink:href="#ai" transform="matrix(1,0,0,1,-83.82028235549132,-808.5411716559366) translate(0.005000000000002558 14.4)"/><use xlink:href="#aj" transform="matrix(1,0,0,1,-83.82028235549132,-808.5411716559366) translate(53.955000000000005 14.4)"/><path d="M-783.67-272.38c-11.5 0-20.83 9.32-20.83 20.83v62.5c0 11.5 9.33 20.82 20.83 20.82h126.55c11.5 0 20.83-9.33 20.83-20.83v-62.5c0-11.5-9.32-20.82-20.82-20.82z" stroke="#282c33" fill="#fff"/><use xlink:href="#ak" transform="matrix(1,0,0,1,-796.4999999152787,-264.3814902348002) translate(4.993827160493822 26.72222222222222)"/><use xlink:href="#al" transform="matrix(1,0,0,1,-796.4999999152787,-264.3814902348002) translate(46.47530864197531 26.72222222222222)"/><use xlink:href="#am" transform="matrix(1,0,0,1,-796.4999999152787,-264.3814902348002) translate(108.5493827160494 26.72222222222222)"/><use xlink:href="#an" transform="matrix(1,0,0,1,-796.4999999152787,-264.3814902348002) translate(1.9814814814814667 48.05555555555556)"/><use xlink:href="#ao" transform="matrix(1,0,0,1,-796.4999999152787,-264.3814902348002) translate(59.216049382716044 48.05555555555556)"/><use xlink:href="#ap" transform="matrix(1,0,0,1,-796.4999999152787,-264.3814902348002) translate(112.5 48.05555555555556)"/><use xlink:href="#aq" transform="matrix(1,0,0,1,-796.4999999152787,-264.3814902348002) translate(39.16666666666666 69.3888888888889)"/><use xlink:href="#ar" transform="matrix(1,0,0,1,-796.4999999152787,-264.3814902348002) translate(73.73456790123456 69.3888888888889)"/><path d="M-719.9-289.27h-1v-96.87h1zm0-118.47h-1v-143.22h1z" stroke="#333" stroke-width=".05" fill="#333"/><path d="M-719.9-550.95h-1v-.5h1z" fill="#333"/><path d="M-719.87-550.92h-1.05v-.57h1.05zm-1-.52v.47h.95v-.47z" stroke="#333" stroke-width=".05" fill="#333"/><path d="M-720.4-274.5l-4.63-14.27h9.27z" fill="#333"/><path d="M-720.4-272.88l-5.32-16.4h10.65zm-3.94-15.4l3.94 12.16 3.95-12.15z" stroke="#333" stroke-width=".05" fill="#333"/><g><use xlink:href="#as" transform="matrix(1,0,0,1,-744.3702823554912,-407.73630491635873) translate(0.004999999999999005 14.4)"/></g><path d="M-485-698.43v68.67" stroke="#333" fill="none"/><path d="M-484.5-698.42h-1v-.5h1z" stroke="#333" stroke-width=".05" fill="#333"/><path d="M-485-615l-4.64-14.27h9.28z" stroke="#333" fill="#333"/><path d="M-542.02-458.52c-11.5 0-20.83 9.32-20.83 20.83v62.5c0 11.5 9.32 20.82 20.83 20.82h126.55c11.5 0 20.83-9.32 20.83-20.82v-62.5c0-11.5-9.33-20.82-20.83-20.82z" stroke="#282c33" fill="#fff"/><g><use xlink:href="#c" transform="matrix(1,0,0,1,-554.8522154884058,-450.52426544892234) translate(11.413580246913568 37.388888888888886)"/><use xlink:href="#w" transform="matrix(1,0,0,1,-554.8522154884058,-450.52426544892234) translate(44.99382716049382 37.388888888888886)"/><use xlink:href="#v" transform="matrix(1,0,0,1,-554.8522154884058,-450.52426544892234) translate(35.80864197530863 58.72222222222222)"/><use xlink:href="#at" transform="matrix(1,0,0,1,-554.8522154884058,-450.52426544892234) translate(76.2037037037037 58.72222222222222)"/></g><path d="M-490.7-505.74l3.2.42 3 1.24 2.6 2 2 2.6 1.23 3 .42 3.2v17.87h-1v-17.8l-.4-3.03-1.13-2.75-1.84-2.4-2.4-1.83-2.74-1.15-3.02-.4h-88.32v-1zm-228.8-8.52l1.14 2.76 1.84 2.4 2.4 1.82 2.74 1.14 3.02.4h88.3v1h-88.37l-3.2-.42-3-1.25-2.6-2-2-2.6-1.24-3-.43-3.2v-33.76h1v33.68z" stroke="#333" stroke-width=".05" fill="#333"/><path d="M-719.9-550.95h-1v-.5h1z" fill="#333"/><path d="M-719.87-550.92h-1.05v-.57h1.05zm-1-.52v.47h.95v-.47z" stroke="#333" stroke-width=".05" fill="#333"/><path d="M-478.75-460.64l-4.63-14.27h9.27z" fill="#333"/><path d="M-478.75-459.02l-5.32-16.4h10.65zm-3.94-15.4l3.95 12.16 3.95-12.15z" stroke="#333" stroke-width=".05" fill="#333"/><g><use xlink:href="#au" transform="matrix(1,0,0,1,-620.0463901420549,-516.0434202815429) translate(0.004999999999999005 14.4)"/></g><path d="M-84.17-117.53c-11.5 0-20.83 9.33-20.83 20.83v62.5c0 11.5 9.33 20.82 20.83 20.82H42.38c11.5 0 20.83-9.33 20.83-20.83v-62.5c0-11.5-9.32-20.83-20.82-20.83z" stroke="#282c33" fill="#fff"/><g><use xlink:href="#av" transform="matrix(1,0,0,1,-97,-109.53073163666207) translate(4.203703703703695 48.05555555555555)"/><use xlink:href="#aw" transform="matrix(1,0,0,1,-97,-109.53073163666207) translate(86.12962962962962 48.05555555555555)"/><use xlink:href="#ax" transform="matrix(1,0,0,1,-97,-109.53073163666207) translate(106.37654320987653 48.05555555555555)"/></g><path d="M-284.17-117.03c-11.5 0-20.83 9.33-20.83 20.83v62.5c0 11.5 9.33 20.82 20.83 20.82h126.55c11.5 0 20.83-9.33 20.83-20.83v-62.5c0-11.5-9.32-20.83-20.82-20.83z" stroke="#282c33" fill="#fff"/><g><use xlink:href="#ay" transform="matrix(1,0,0,1,-297.00000008472125,-109.03073123480047) translate(6.919753086419746 48.05555555555555)"/><use xlink:href="#i" transform="matrix(1,0,0,1,-297.00000008472125,-109.03073123480047) translate(69.0925925925926 48.05555555555555)"/></g><path d="M-260.9-438.45c0-4.42 3.6-8 8-8h64c4.42 0 8 3.58 8 8v64c0 4.42-3.58 8-8 8h-64c-4.4 0-8-3.58-8-8z" fill="none"/><path d="M-252.9-438.45l64 64m0-64l-64 64" stroke="#333" stroke-width="8" fill="none"/><path d="M-220.9-506.73V-428.5" stroke="#333" fill="none"/><path d="M-220.4-506.72h-1v-.5h1z" stroke="#333" stroke-width=".05" fill="#333"/><path d="M-220.9-413.73l-4.63-14.26h9.27z" stroke="#333" fill="#333"/><path d="M-229.65-837.8l3 1.23 2.6 2 2 2.6 1.23 3 .42 3.2v16.34h-1v-16.27l-.4-3.02-1.13-2.75-1.84-2.4-2.4-1.83-2.74-1.14-3.03-.4h-90.04l-3 .4-2.77 1.14-2.4 1.84-1.82 2.4-1.14 2.74-.4 3.02v407.28l-.42 3.2-1.24 3-2 2.6-2.6 2-3 1.25-3.2.42h-46.68v-1h46.6l3.02-.4 2.76-1.14 2.4-1.82 1.82-2.4 1.14-2.75.4-3v-407.3l.42-3.2 1.24-3 2-2.6 2.6-2 3-1.24 3.2-.43h90.18zm9.25 69.03h-1v-19.06h1z" stroke="#333" stroke-width=".05" fill="#333"/><path d="M-393.63-405.95h-.5v-1h.5z" fill="#333"/><path d="M-393.6-405.92h-.57v-1.05h.57zm-.52-1v.95h.47v-.95z" stroke="#333" stroke-width=".05" fill="#333"/><path d="M-220.9-754l-4.63-14.27h9.27z" fill="#333"/><path d="M-220.9-752.38l-5.32-16.4h10.65zm-3.94-15.4l3.94 12.16 3.95-12.15z" stroke="#333" stroke-width=".05" fill="#333"/><path d="M-783.67-117.03c-11.5 0-20.83 9.33-20.83 20.83v62.5c0 11.5 9.33 20.82 20.83 20.82h126.55c11.5 0 20.83-9.33 20.83-20.83v-62.5c0-11.5-9.32-20.83-20.82-20.83z" stroke="#282c33" fill="#fff"/><g><use xlink:href="#av" transform="matrix(1,0,0,1,-796.4999999152787,-109.03073123480024) translate(4.203703703703695 48.05555555555555)"/><use xlink:href="#aw" transform="matrix(1,0,0,1,-796.4999999152787,-109.03073123480024) translate(86.12962962962962 48.05555555555555)"/><use xlink:href="#ax" transform="matrix(1,0,0,1,-796.4999999152787,-109.03073123480024) translate(106.37654320987653 48.05555555555555)"/></g><path d="M-542.02-272.38c-11.5 0-20.83 9.32-20.83 20.83v62.5c0 11.5 9.32 20.82 20.83 20.82h126.55c11.5 0 20.83-9.33 20.83-20.83v-62.5c0-11.5-9.33-20.82-20.83-20.82z" stroke="#282c33" fill="#fff"/><g><use xlink:href="#az" transform="matrix(1,0,0,1,-554.8522154884058,-264.3814902348002) translate(10.944444444444443 37.388888888888886)"/><use xlink:href="#aA" transform="matrix(1,0,0,1,-554.8522154884058,-264.3814902348002) translate(72.12962962962965 37.388888888888886)"/><use xlink:href="#aB" transform="matrix(1,0,0,1,-554.8522154884058,-264.3814902348002) translate(129.26543209876544 37.388888888888886)"/><use xlink:href="#aC" transform="matrix(1,0,0,1,-554.8522154884058,-264.3814902348002) translate(46.919753086419746 58.72222222222222)"/></g><path d="M-284.17-272.38c-11.5 0-20.83 9.32-20.83 20.83v62.5c0 11.5 9.33 20.82 20.83 20.82h126.55c11.5 0 20.83-9.33 20.83-20.83v-62.5c0-11.5-9.32-20.82-20.82-20.82z" stroke="#282c33" fill="#fff"/><g><use xlink:href="#N" transform="matrix(1,0,0,1,-297.00000008472125,-264.3814902348004) translate(9.932098765432087 26.72222222222222)"/><use xlink:href="#aD" transform="matrix(1,0,0,1,-297.00000008472125,-264.3814902348004) translate(65.19135802469134 26.72222222222222)"/><use xlink:href="#aE" transform="matrix(1,0,0,1,-297.00000008472125,-264.3814902348004) translate(128.2530864197531 26.72222222222222)"/><use xlink:href="#aF" transform="matrix(1,0,0,1,-297.00000008472125,-264.3814902348004) translate(16.327160493827158 48.05555555555556)"/><use xlink:href="#aG" transform="matrix(1,0,0,1,-297.00000008472125,-264.3814902348004) translate(91.29012345679013 48.05555555555556)"/><use xlink:href="#aH" transform="matrix(1,0,0,1,-297.00000008472125,-264.3814902348004) translate(17.31481481481481 69.3888888888889)"/><use xlink:href="#aI" transform="matrix(1,0,0,1,-297.00000008472125,-264.3814902348004) translate(70.5493827160494 69.3888888888889)"/></g><path d="M-478.25-289.27h-1v-13.3h1zm0-34.9h-1v-29.2h1z" stroke="#333" stroke-width=".05" fill="#333"/><path d="M-478.25-353.36h-1v-.52h1z" fill="#333"/><path d="M-478.22-353.34h-1.05v-.56h1.05zm-1-.5v.45h.95v-.45z" stroke="#333" stroke-width=".05" fill="#333"/><path d="M-478.75-274.5l-4.63-14.27h9.27z" fill="#333"/><path d="M-478.75-272.88l-5.32-16.4h10.65zm-3.94-15.4l3.95 12.16 3.95-12.15z" stroke="#333" stroke-width=".05" fill="#333"/><g><use xlink:href="#ai" transform="matrix(1,0,0,1,-541.6724978438972,-324.1782573418613) translate(0.005000000000002558 14.4)"/><use xlink:href="#aj" transform="matrix(1,0,0,1,-541.6724978438972,-324.1782573418613) translate(53.955000000000005 14.4)"/></g><path d="M-393.64-220.3h71.76" stroke="#333" fill="none"/><path d="M-393.63-219.8h-.5v-1h.5z" stroke="#333" stroke-width=".05" fill="#333"/><path d="M-307.12-220.3l-14.26 4.63v-9.27z" stroke="#333" fill="#333"/><path d="M-220.9-167.23v33.32" stroke="#333" fill="none"/><path d="M-220.4-167.22h-1v-.5h1z" stroke="#333" stroke-width=".05" fill="#333"/><path d="M-220.9-119.15l-4.63-14.26h9.27z" stroke="#333" fill="#333"/><path d="M-720.4-167.23v33.32" stroke="#333" fill="none"/><path d="M-719.9-167.22h-1v-.5h1z" stroke="#333" stroke-width=".05" fill="#333"/><path d="M-720.4-119.15l-4.63-14.26h9.27z" stroke="#333" fill="#333"/><path d="M-720.4-11.88V28.2c0 6.62 5.38 12 12 12h192.67" stroke="#333" fill="none"/><path d="M-719.9-11.87h-1v-.5h1z" stroke="#333" stroke-width=".05" fill="#333"/><path d="M-500.96 40.2l-14.27 4.63v-9.27z" stroke="#333" fill="#333"/><path d="M-220.9-11.88V28.2c0 6.62-5.37 12-12 12h-208.86" stroke="#333" fill="none"/><path d="M-220.4-11.87h-1v-.5h1z" stroke="#333" stroke-width=".05" fill="#333"/><path d="M-456.52 40.2l14.26-4.64v9.27z" stroke="#333" fill="#333"/><path d="M-20.9-12.38V28.2c0 6.62-5.37 12-12 12h-408.86" stroke="#333" fill="none"/><path d="M-20.4-12.37h-1v-.5h1z" stroke="#333" stroke-width=".05" fill="#333"/><path d="M-456.52 40.2l14.26-4.64v9.27z" stroke="#333" fill="#333"/><path d="M-685-1341.93c0 11.05-8.95 20-20 20s-20-8.95-20-20c0-11.04 8.95-20 20-20s20 8.96 20 20z" stroke="#333" fill="#29abe2" fill-opacity=".7"/><path d="M-458.74 40.2c0 11.04-8.96 20-20 20-11.05 0-20-8.96-20-20 0-11.05 8.95-20 20-20 11.04 0 20 8.95 20 20z" stroke="#333" stroke-width="1.2" fill="#fff"/><path d="M-466.14 39.94c0 6.96-5.64 12.6-12.6 12.6s-12.6-5.64-12.6-12.6 5.64-12.6 12.6-12.6 12.6 5.64 12.6 12.6z" stroke="#333" fill="#29abe2" fill-opacity=".7"/><defs><path fill="#333" d="M233-177c-1 41-23 64-60 70L243 0h-38l-65-103H63V0H30v-248c88 3 205-21 203 71zM63-129c60-2 137 13 137-47 0-61-80-42-137-45v92" id="aJ"/><path fill="#333" d="M100-194c63 0 86 42 84 106H49c0 40 14 67 53 68 26 1 43-12 49-29l28 8c-11 28-37 45-77 45C44 4 14-33 15-96c1-61 26-98 85-98zm52 81c6-60-76-77-97-28-3 7-6 17-6 28h103" id="aK"/><path fill="#333" d="M141-36C126-15 110 5 73 4 37 3 15-17 15-53c-1-64 63-63 125-63 3-35-9-54-41-54-24 1-41 7-42 31l-33-3c5-37 33-52 76-52 45 0 72 20 72 64v82c-1 20 7 32 28 27v20c-31 9-61-2-59-35zM48-53c0 20 12 33 32 33 41-3 63-29 60-74-43 2-92-5-92 41" id="aL"/><path fill="#333" d="M85-194c31 0 48 13 60 33l-1-100h32l1 261h-30c-2-10 0-23-3-31C134-8 116 4 85 4 32 4 16-35 15-94c0-66 23-100 70-100zm9 24c-40 0-46 34-46 75 0 40 6 74 45 74 42 0 51-32 51-76 0-42-9-74-50-73" id="aM"/><g id="a"><use transform="matrix(0.04938271604938272,0,0,0.04938271604938272,0,0)" xlink:href="#aJ"/><use transform="matrix(0.04938271604938272,0,0,0.04938271604938272,12.790123456790125,0)" xlink:href="#aK"/><use transform="matrix(0.04938271604938272,0,0,0.04938271604938272,22.66666666666667,0)" xlink:href="#aL"/><use transform="matrix(0.04938271604938272,0,0,0.04938271604938272,32.543209876543216,0)" xlink:href="#aM"/></g><path fill="#333" d="M24 0v-261h32V0H24" id="aN"/><path fill="#333" d="M212-179c-10-28-35-45-73-45-59 0-87 40-87 99 0 60 29 101 89 101 43 0 62-24 78-52l27 14C228-24 195 4 139 4 59 4 22-46 18-125c-6-104 99-153 187-111 19 9 31 26 39 46" id="aO"/><path fill="#333" d="M232-93c-1 65-40 97-104 97C67 4 28-28 28-90v-158h33c8 89-33 224 67 224 102 0 64-133 71-224h33v155" id="aP"/><path fill="#333" d="M30-248c87 1 191-15 191 75 0 78-77 80-158 76V0H30v-248zm33 125c57 0 124 11 124-50 0-59-68-47-124-48v98" id="aQ"/><g id="b"><use transform="matrix(0.04938271604938272,0,0,0.04938271604938272,0,0)" xlink:href="#aN"/><use transform="matrix(0.04938271604938272,0,0,0.04938271604938272,3.901234567901235,0)" xlink:href="#aO"/><use transform="matrix(0.04938271604938272,0,0,0.04938271604938272,16.69135802469136,0)" xlink:href="#aP"/><use transform="matrix(0.04938271604938272,0,0,0.04938271604938272,29.481481481481488,0)" xlink:href="#aQ"/></g><path fill="#333" d="M143 4C61 4 22-44 18-125c-5-107 100-154 193-111 17 8 29 25 37 43l-32 9c-13-25-37-40-76-40-61 0-88 39-88 99 0 61 29 100 91 101 35 0 62-11 79-27v-45h-74v-28h105v86C228-13 192 4 143 4" id="aR"/><path fill="#333" d="M59-47c-2 24 18 29 38 22v24C64 9 27 4 27-40v-127H5v-23h24l9-43h21v43h35v23H59v120" id="aS"/><g id="c"><use transform="matrix(0.04938271604938272,0,0,0.04938271604938272,0,0)" xlink:href="#aR"/><use transform="matrix(0.04938271604938272,0,0,0.04938271604938272,13.827160493827162,0)" xlink:href="#aK"/><use transform="matrix(0.04938271604938272,0,0,0.04938271604938272,23.703703703703706,0)" xlink:href="#aS"/></g><path fill="#333" d="M135-143c-3-34-86-38-87 0 15 53 115 12 119 90S17 21 10-45l28-5c4 36 97 45 98 0-10-56-113-15-118-90-4-57 82-63 122-42 12 7 21 19 24 35" id="aT"/><path fill="#333" d="M84 4C-5 8 30-112 23-190h32v120c0 31 7 50 39 49 72-2 45-101 50-169h31l1 190h-30c-1-10 1-25-2-33-11 22-28 36-60 37" id="aU"/><path fill="#333" d="M115-194c53 0 69 39 70 98 0 66-23 100-70 100C84 3 66-7 56-30L54 0H23l1-261h32v101c10-23 28-34 59-34zm-8 174c40 0 45-34 45-75 0-40-5-75-45-74-42 0-51 32-51 76 0 43 10 73 51 73" id="aV"/><path fill="#333" d="M117-194c89-4 53 116 60 194h-32v-121c0-31-8-49-39-48C34-167 62-67 57 0H25l-1-190h30c1 10-1 24 2 32 11-22 29-35 61-36" id="aW"/><path fill="#333" d="M-5 72V49h209v23H-5" id="aX"/><path fill="#333" d="M24-231v-30h32v30H24zM24 0v-190h32V0H24" id="aY"/><g id="d"><use transform="matrix(0.04938271604938272,0,0,0.04938271604938272,0,0)" xlink:href="#aT"/><use transform="matrix(0.04938271604938272,0,0,0.04938271604938272,8.88888888888889,0)" xlink:href="#aU"/><use transform="matrix(0.04938271604938272,0,0,0.04938271604938272,18.765432098765434,0)" xlink:href="#aV"/><use transform="matrix(0.04938271604938272,0,0,0.04938271604938272,28.641975308641978,0)" xlink:href="#aW"/><use transform="matrix(0.04938271604938272,0,0,0.04938271604938272,38.51851851851852,0)" xlink:href="#aK"/><use transform="matrix(0.04938271604938272,0,0,0.04938271604938272,48.39506172839506,0)" xlink:href="#aS"/><use transform="matrix(0.04938271604938272,0,0,0.04938271604938272,53.333333333333336,0)" xlink:href="#aX"/><use transform="matrix(0.04938271604938272,0,0,0.04938271604938272,63.20987654320988,0)" xlink:href="#aY"/><use transform="matrix(0.04938271604938272,0,0,0.04938271604938272,67.11111111111111,0)" xlink:href="#aM"/></g><path fill="#333" d="M101-234c-31-9-42 10-38 44h38v23H63V0H32v-167H5v-23h27c-7-52 17-82 69-68v24" id="aZ"/><path fill="#333" d="M114-163C36-179 61-72 57 0H25l-1-190h30c1 12-1 29 2 39 6-27 23-49 58-41v29" id="ba"/><path fill="#333" d="M100-194c62-1 85 37 85 99 1 63-27 99-86 99S16-35 15-95c0-66 28-99 85-99zM99-20c44 1 53-31 53-75 0-43-8-75-51-75s-53 32-53 75 10 74 51 75" id="bb"/><path fill="#333" d="M210-169c-67 3-38 105-44 169h-31v-121c0-29-5-50-35-48C34-165 62-65 56 0H25l-1-190h30c1 10-1 24 2 32 10-44 99-50 107 0 11-21 27-35 58-36 85-2 47 119 55 194h-31v-121c0-29-5-49-35-48" id="bc"/><g id="e"><use transform="matrix(0.04938271604938272,0,0,0.04938271604938272,0,0)" xlink:href="#aZ"/><use transform="matrix(0.04938271604938272,0,0,0.04938271604938272,4.938271604938272,0)" xlink:href="#ba"/><use transform="matrix(0.04938271604938272,0,0,0.04938271604938272,10.814814814814817,0)" xlink:href="#bb"/><use transform="matrix(0.04938271604938272,0,0,0.04938271604938272,20.69135802469136,0)" xlink:href="#bc"/></g><g id="f"><use transform="matrix(0.04938271604938272,0,0,0.04938271604938272,0,0)" xlink:href="#aN"/><use transform="matrix(0.04938271604938272,0,0,0.04938271604938272,3.901234567901235,0)" xlink:href="#aL"/><use transform="matrix(0.04938271604938272,0,0,0.04938271604938272,13.777777777777779,0)" xlink:href="#aS"/><use transform="matrix(0.04938271604938272,0,0,0.04938271604938272,18.71604938271605,0)" xlink:href="#aK"/><use transform="matrix(0.04938271604938272,0,0,0.04938271604938272,28.592592592592595,0)" xlink:href="#aT"/><use transform="matrix(0.04938271604938272,0,0,0.04938271604938272,37.48148148148148,0)" xlink:href="#aS"/></g><path fill="#333" d="M177-190C167-65 218 103 67 71c-23-6-38-20-44-43l32-5c15 47 100 32 89-28v-30C133-14 115 1 83 1 29 1 15-40 15-95c0-56 16-97 71-98 29-1 48 16 59 35 1-10 0-23 2-32h30zM94-22c36 0 50-32 50-73 0-42-14-75-50-75-39 0-46 34-46 75s6 73 46 73" id="bd"/><path fill="#333" d="M179-190L93 31C79 59 56 82 12 73V49c39 6 53-20 64-50L1-190h34L92-34l54-156h33" id="be"/><g id="g"><use transform="matrix(0.04938271604938272,0,0,0.04938271604938272,0,0)" xlink:href="#ba"/><use transform="matrix(0.04938271604938272,0,0,0.04938271604938272,5.8765432098765435,0)" xlink:href="#aK"/><use transform="matrix(0.04938271604938272,0,0,0.04938271604938272,15.753086419753087,0)" xlink:href="#bd"/><use transform="matrix(0.04938271604938272,0,0,0.04938271604938272,25.629629629629633,0)" xlink:href="#aY"/><use transform="matrix(0.04938271604938272,0,0,0.04938271604938272,29.530864197530867,0)" xlink:href="#aT"/><use transform="matrix(0.04938271604938272,0,0,0.04938271604938272,38.41975308641976,0)" xlink:href="#aS"/><use transform="matrix(0.04938271604938272,0,0,0.04938271604938272,43.35802469135803,0)" xlink:href="#ba"/><use transform="matrix(0.04938271604938272,0,0,0.04938271604938272,49.23456790123458,0)" xlink:href="#be"/></g><path fill="#333" d="M30 0v-248h187v28H63v79h144v27H63v87h162V0H30" id="bf"/><path fill="#333" d="M141 0L90-78 38 0H4l68-98-65-92h35l48 74 47-74h35l-64 92 68 98h-35" id="bg"/><path fill="#333" d="M96-169c-40 0-48 33-48 73s9 75 48 75c24 0 41-14 43-38l32 2c-6 37-31 61-74 61-59 0-76-41-82-99-10-93 101-131 147-64 4 7 5 14 7 22l-32 3c-4-21-16-35-41-35" id="bh"/><g id="h"><use transform="matrix(0.04938271604938272,0,0,0.04938271604938272,0,0)" xlink:href="#bf"/><use transform="matrix(0.04938271604938272,0,0,0.04938271604938272,11.851851851851853,0)" xlink:href="#bg"/><use transform="matrix(0.04938271604938272,0,0,0.04938271604938272,20.74074074074074,0)" xlink:href="#aS"/><use transform="matrix(0.04938271604938272,0,0,0.04938271604938272,25.679012345679016,0)" xlink:href="#ba"/><use transform="matrix(0.04938271604938272,0,0,0.04938271604938272,31.555555555555557,0)" xlink:href="#aL"/><use transform="matrix(0.04938271604938272,0,0,0.04938271604938272,41.4320987654321,0)" xlink:href="#bh"/><use transform="matrix(0.04938271604938272,0,0,0.04938271604938272,50.32098765432099,0)" xlink:href="#aS"/></g><g id="i"><use transform="matrix(0.04938271604938272,0,0,0.04938271604938272,0,0)" xlink:href="#aT"/><use transform="matrix(0.04938271604938272,0,0,0.04938271604938272,8.88888888888889,0)" xlink:href="#aU"/><use transform="matrix(0.04938271604938272,0,0,0.04938271604938272,18.765432098765434,0)" xlink:href="#aV"/><use transform="matrix(0.04938271604938272,0,0,0.04938271604938272,28.641975308641978,0)" xlink:href="#aW"/><use transform="matrix(0.04938271604938272,0,0,0.04938271604938272,38.51851851851852,0)" xlink:href="#aK"/><use transform="matrix(0.04938271604938272,0,0,0.04938271604938272,48.39506172839506,0)" xlink:href="#aS"/><use transform="matrix(0.04938271604938272,0,0,0.04938271604938272,53.333333333333336,0)" xlink:href="#aX"/><use transform="matrix(0.04938271604938272,0,0,0.04938271604938272,63.20987654320988,0)" xlink:href="#aY"/><use transform="matrix(0.04938271604938272,0,0,0.04938271604938272,67.11111111111111,0)" xlink:href="#aM"/></g><path fill="#333" d="M26 75v-336h71v23H56V52h41v23H26" id="bi"/><path fill="#333" d="M185-189c-5-48-123-54-124 2 14 75 158 14 163 119 3 78-121 87-175 55-17-10-28-26-33-46l33-7c5 56 141 63 141-1 0-78-155-14-162-118-5-82 145-84 179-34 5 7 8 16 11 25" id="bj"/><path fill="#333" d="M3 75V52h41v-290H3v-23h71V75H3" id="bk"/><g id="j"><use transform="matrix(0.05,0,0,0.05,0,0)" xlink:href="#bi"/><use transform="matrix(0.05,0,0,0.05,5,0)" xlink:href="#bj"/><use transform="matrix(0.05,0,0,0.05,17,0)" xlink:href="#bb"/><use transform="matrix(0.05,0,0,0.05,27,0)" xlink:href="#bc"/><use transform="matrix(0.05,0,0,0.05,41.95,0)" xlink:href="#aK"/><use transform="matrix(0.05,0,0,0.05,51.95,0)" xlink:href="#bk"/></g><path fill="#333" d="M190 0L58-211 59 0H30v-248h39L202-35l-2-213h31V0h-41" id="bl"/><g id="k"><use transform="matrix(0.05,0,0,0.05,0,0)" xlink:href="#bi"/><use transform="matrix(0.05,0,0,0.05,5,0)" xlink:href="#bl"/><use transform="matrix(0.05,0,0,0.05,17.950000000000003,0)" xlink:href="#bb"/><use transform="matrix(0.05,0,0,0.05,27.950000000000003,0)" xlink:href="#aW"/><use transform="matrix(0.05,0,0,0.05,37.95,0)" xlink:href="#aK"/><use transform="matrix(0.05,0,0,0.05,47.95,0)" xlink:href="#bk"/></g><g id="l"><use transform="matrix(0.04938271604938272,0,0,0.04938271604938272,0,0)" xlink:href="#ba"/><use transform="matrix(0.04938271604938272,0,0,0.04938271604938272,5.8765432098765435,0)" xlink:href="#aK"/><use transform="matrix(0.04938271604938272,0,0,0.04938271604938272,15.753086419753087,0)" xlink:href="#bd"/><use transform="matrix(0.04938271604938272,0,0,0.04938271604938272,25.629629629629633,0)" xlink:href="#aY"/><use transform="matrix(0.04938271604938272,0,0,0.04938271604938272,29.530864197530867,0)" xlink:href="#aT"/><use transform="matrix(0.04938271604938272,0,0,0.04938271604938272,38.41975308641976,0)" xlink:href="#aS"/><use transform="matrix(0.04938271604938272,0,0,0.04938271604938272,43.35802469135803,0)" xlink:href="#ba"/><use transform="matrix(0.04938271604938272,0,0,0.04938271604938272,49.23456790123458,0)" xlink:href="#be"/></g><path fill="#333" d="M108 0H70L1-190h34L89-25l56-165h34" id="bm"/><path fill="#333" d="M68-38c1 34 0 65-14 84H32c9-13 17-26 17-46H33v-38h35" id="bn"/><g id="m"><use transform="matrix(0.04938271604938272,0,0,0.04938271604938272,0,0)" xlink:href="#bm"/><use transform="matrix(0.04938271604938272,0,0,0.04938271604938272,8.88888888888889,0)" xlink:href="#aK"/><use transform="matrix(0.04938271604938272,0,0,0.04938271604938272,18.765432098765434,0)" xlink:href="#ba"/><use transform="matrix(0.04938271604938272,0,0,0.04938271604938272,24.641975308641978,0)" xlink:href="#aT"/><use transform="matrix(0.04938271604938272,0,0,0.04938271604938272,33.53086419753087,0)" xlink:href="#aY"/><use transform="matrix(0.04938271604938272,0,0,0.04938271604938272,37.4320987654321,0)" xlink:href="#bb"/><use transform="matrix(0.04938271604938272,0,0,0.04938271604938272,47.308641975308646,0)" xlink:href="#aW"/><use transform="matrix(0.04938271604938272,0,0,0.04938271604938272,57.18518518518519,0)" xlink:href="#bn"/></g><path fill="#333" d="M106-169C34-169 62-67 57 0H25v-261h32l-1 103c12-21 28-36 61-36 89 0 53 116 60 194h-32v-121c2-32-8-49-39-48" id="bo"/><g id="n"><use transform="matrix(0.04938271604938272,0,0,0.04938271604938272,0,0)" xlink:href="#aZ"/><use transform="matrix(0.04938271604938272,0,0,0.04938271604938272,4.938271604938272,0)" xlink:href="#aK"/><use transform="matrix(0.04938271604938272,0,0,0.04938271604938272,14.814814814814817,0)" xlink:href="#aS"/><use transform="matrix(0.04938271604938272,0,0,0.04938271604938272,19.75308641975309,0)" xlink:href="#bh"/><use transform="matrix(0.04938271604938272,0,0,0.04938271604938272,28.641975308641978,0)" xlink:href="#bo"/></g><path fill="#333" d="M115-194c55 1 70 41 70 98S169 2 115 4C84 4 66-9 55-30l1 105H24l-1-265h31l2 30c10-21 28-34 59-34zm-8 174c40 0 45-34 45-75s-6-73-45-74c-42 0-51 32-51 76 0 43 10 73 51 73" id="bp"/><g id="o"><use transform="matrix(0.04938271604938272,0,0,0.04938271604938272,0,0)" xlink:href="#bp"/><use transform="matrix(0.04938271604938272,0,0,0.04938271604938272,9.876543209876544,0)" xlink:href="#aO"/><use transform="matrix(0.04938271604938272,0,0,0.04938271604938272,22.66666666666667,0)" xlink:href="#aP"/><use transform="matrix(0.04938271604938272,0,0,0.04938271604938272,35.4567901234568,0)" xlink:href="#aQ"/></g><g id="p"><use transform="matrix(0.04938271604938272,0,0,0.04938271604938272,0,0)" xlink:href="#bb"/><use transform="matrix(0.04938271604938272,0,0,0.04938271604938272,9.876543209876544,0)" xlink:href="#aZ"/></g><g id="q"><use transform="matrix(0.04938271604938272,0,0,0.04938271604938272,0,0)" xlink:href="#ba"/><use transform="matrix(0.04938271604938272,0,0,0.04938271604938272,5.8765432098765435,0)" xlink:href="#aL"/><use transform="matrix(0.04938271604938272,0,0,0.04938271604938272,15.753086419753087,0)" xlink:href="#aW"/><use transform="matrix(0.04938271604938272,0,0,0.04938271604938272,25.629629629629633,0)" xlink:href="#aM"/><use transform="matrix(0.04938271604938272,0,0,0.04938271604938272,35.50617283950618,0)" xlink:href="#bb"/><use transform="matrix(0.04938271604938272,0,0,0.04938271604938272,45.38271604938272,0)" xlink:href="#bc"/></g><g id="r"><use transform="matrix(0.04938271604938272,0,0,0.04938271604938272,0,0)" xlink:href="#bp"/><use transform="matrix(0.04938271604938272,0,0,0.04938271604938272,9.876543209876544,0)" xlink:href="#aK"/><use transform="matrix(0.04938271604938272,0,0,0.04938271604938272,19.75308641975309,0)" xlink:href="#aK"/><use transform="matrix(0.04938271604938272,0,0,0.04938271604938272,29.629629629629633,0)" xlink:href="#ba"/></g><g id="s"><use transform="matrix(0.04938271604938272,0,0,0.04938271604938272,0,0)" xlink:href="#aY"/><use transform="matrix(0.04938271604938272,0,0,0.04938271604938272,3.901234567901235,0)" xlink:href="#aW"/></g><g id="t"><use transform="matrix(0.04938271604938272,0,0,0.04938271604938272,0,0)" xlink:href="#aT"/><use transform="matrix(0.04938271604938272,0,0,0.04938271604938272,8.88888888888889,0)" xlink:href="#aU"/><use transform="matrix(0.04938271604938272,0,0,0.04938271604938272,18.765432098765434,0)" xlink:href="#aV"/><use transform="matrix(0.04938271604938272,0,0,0.04938271604938272,28.641975308641978,0)" xlink:href="#aW"/><use transform="matrix(0.04938271604938272,0,0,0.04938271604938272,38.51851851851852,0)" xlink:href="#aK"/><use transform="matrix(0.04938271604938272,0,0,0.04938271604938272,48.39506172839506,0)" xlink:href="#aS"/><use transform="matrix(0.04938271604938272,0,0,0.04938271604938272,53.333333333333336,0)" xlink:href="#bn"/></g><g id="u"><use transform="matrix(0.04938271604938272,0,0,0.04938271604938272,0,0)" xlink:href="#ba"/><use transform="matrix(0.04938271604938272,0,0,0.04938271604938272,5.8765432098765435,0)" xlink:href="#aO"/><use transform="matrix(0.04938271604938272,0,0,0.04938271604938272,18.666666666666668,0)" xlink:href="#aP"/><use transform="matrix(0.04938271604938272,0,0,0.04938271604938272,31.45679012345679,0)" xlink:href="#aQ"/></g><g id="v"><use transform="matrix(0.04938271604938272,0,0,0.04938271604938272,0,0)" xlink:href="#aZ"/><use transform="matrix(0.04938271604938272,0,0,0.04938271604938272,4.938271604938272,0)" xlink:href="#ba"/><use transform="matrix(0.04938271604938272,0,0,0.04938271604938272,10.814814814814817,0)" xlink:href="#bb"/><use transform="matrix(0.04938271604938272,0,0,0.04938271604938272,20.69135802469136,0)" xlink:href="#bc"/></g><g id="w"><use transform="matrix(0.04938271604938272,0,0,0.04938271604938272,0,0)" xlink:href="#ba"/><use transform="matrix(0.04938271604938272,0,0,0.04938271604938272,5.8765432098765435,0)" xlink:href="#aK"/><use transform="matrix(0.04938271604938272,0,0,0.04938271604938272,15.753086419753087,0)" xlink:href="#bp"/><use transform="matrix(0.04938271604938272,0,0,0.04938271604938272,25.629629629629633,0)" xlink:href="#aN"/><use transform="matrix(0.04938271604938272,0,0,0.04938271604938272,29.530864197530867,0)" xlink:href="#aX"/><use transform="matrix(0.04938271604938272,0,0,0.04938271604938272,39.40740740740741,0)" xlink:href="#bm"/><use transform="matrix(0.04938271604938272,0,0,0.04938271604938272,48.296296296296305,0)" xlink:href="#aK"/><use transform="matrix(0.04938271604938272,0,0,0.04938271604938272,58.17283950617284,0)" xlink:href="#ba"/><use transform="matrix(0.04938271604938272,0,0,0.04938271604938272,64.0493827160494,0)" xlink:href="#aT"/><use transform="matrix(0.04938271604938272,0,0,0.04938271604938272,72.93827160493828,0)" xlink:href="#aY"/><use transform="matrix(0.04938271604938272,0,0,0.04938271604938272,76.83950617283952,0)" xlink:href="#bb"/><use transform="matrix(0.04938271604938272,0,0,0.04938271604938272,86.71604938271606,0)" xlink:href="#aW"/></g><g id="x"><use transform="matrix(0.04938271604938272,0,0,0.04938271604938272,0,0)" xlink:href="#aN"/><use transform="matrix(0.04938271604938272,0,0,0.04938271604938272,3.901234567901235,0)" xlink:href="#aL"/><use transform="matrix(0.04938271604938272,0,0,0.04938271604938272,13.777777777777779,0)" xlink:href="#aS"/><use transform="matrix(0.04938271604938272,0,0,0.04938271604938272,18.71604938271605,0)" xlink:href="#aK"/><use transform="matrix(0.04938271604938272,0,0,0.04938271604938272,28.592592592592595,0)" xlink:href="#aT"/><use transform="matrix(0.04938271604938272,0,0,0.04938271604938272,37.48148148148148,0)" xlink:href="#aS"/></g><g id="y"><use transform="matrix(0.04938271604938272,0,0,0.04938271604938272,0,0)" xlink:href="#aU"/><use transform="matrix(0.04938271604938272,0,0,0.04938271604938272,9.876543209876544,0)" xlink:href="#aW"/><use transform="matrix(0.04938271604938272,0,0,0.04938271604938272,19.75308641975309,0)" xlink:href="#aL"/><use transform="matrix(0.04938271604938272,0,0,0.04938271604938272,29.629629629629633,0)" xlink:href="#aT"/><use transform="matrix(0.04938271604938272,0,0,0.04938271604938272,38.51851851851852,0)" xlink:href="#aT"/><use transform="matrix(0.04938271604938272,0,0,0.04938271604938272,47.407407407407405,0)" xlink:href="#aY"/><use transform="matrix(0.04938271604938272,0,0,0.04938271604938272,51.30864197530863,0)" xlink:href="#bd"/><use transform="matrix(0.04938271604938272,0,0,0.04938271604938272,61.185185185185176,0)" xlink:href="#aW"/><use transform="matrix(0.04938271604938272,0,0,0.04938271604938272,71.06172839506172,0)" xlink:href="#aK"/><use transform="matrix(0.04938271604938272,0,0,0.04938271604938272,80.93827160493827,0)" xlink:href="#aM"/></g><g id="z"><use transform="matrix(0.04938271604938272,0,0,0.04938271604938272,0,0)" xlink:href="#ba"/><use transform="matrix(0.04938271604938272,0,0,0.04938271604938272,5.8765432098765435,0)" xlink:href="#aK"/><use transform="matrix(0.04938271604938272,0,0,0.04938271604938272,15.753086419753087,0)" xlink:href="#bh"/><use transform="matrix(0.04938271604938272,0,0,0.04938271604938272,24.641975308641978,0)" xlink:href="#bb"/><use transform="matrix(0.04938271604938272,0,0,0.04938271604938272,34.51851851851852,0)" xlink:href="#ba"/><use transform="matrix(0.04938271604938272,0,0,0.04938271604938272,40.39506172839506,0)" xlink:href="#aM"/></g><g id="A"><use transform="matrix(0.04938271604938272,0,0,0.04938271604938272,0,0)" xlink:href="#aN"/><use transform="matrix(0.04938271604938272,0,0,0.04938271604938272,3.901234567901235,0)" xlink:href="#aO"/><use transform="matrix(0.04938271604938272,0,0,0.04938271604938272,16.69135802469136,0)" xlink:href="#aP"/><use transform="matrix(0.04938271604938272,0,0,0.04938271604938272,29.481481481481488,0)" xlink:href="#aQ"/></g><path fill="#333" d="M33-154v-36h34v36H33zM33 0v-36h34V0H33" id="bq"/><path fill="#333" d="M18-150v-26h174v26H18zm0 90v-26h174v26H18" id="br"/><g id="B"><use transform="matrix(0.04938271604938272,0,0,0.04938271604938272,0,0)" xlink:href="#bq"/><use transform="matrix(0.04938271604938272,0,0,0.04938271604938272,4.938271604938272,0)" xlink:href="#br"/></g><path fill="#333" d="M87 75C49 33 22-17 22-94c0-76 28-126 65-167h31c-38 41-64 92-64 168S80 34 118 75H87" id="bs"/><g id="C"><use transform="matrix(0.04938271604938272,0,0,0.04938271604938272,0,0)" xlink:href="#bo"/><use transform="matrix(0.04938271604938272,0,0,0.04938271604938272,9.876543209876544,0)" xlink:href="#aK"/><use transform="matrix(0.04938271604938272,0,0,0.04938271604938272,19.75308641975309,0)" xlink:href="#aY"/><use transform="matrix(0.04938271604938272,0,0,0.04938271604938272,23.654320987654323,0)" xlink:href="#bd"/><use transform="matrix(0.04938271604938272,0,0,0.04938271604938272,33.53086419753087,0)" xlink:href="#bo"/><use transform="matrix(0.04938271604938272,0,0,0.04938271604938272,43.40740740740741,0)" xlink:href="#aK"/><use transform="matrix(0.04938271604938272,0,0,0.04938271604938272,53.283950617283956,0)" xlink:href="#aT"/><use transform="matrix(0.04938271604938272,0,0,0.04938271604938272,62.17283950617284,0)" xlink:href="#aS"/><use transform="matrix(0.04938271604938272,0,0,0.04938271604938272,67.11111111111111,0)" xlink:href="#bs"/><use transform="matrix(0.04938271604938272,0,0,0.04938271604938272,72.98765432098766,0)" xlink:href="#aN"/><use transform="matrix(0.04938271604938272,0,0,0.04938271604938272,76.8888888888889,0)" xlink:href="#aO"/><use transform="matrix(0.04938271604938272,0,0,0.04938271604938272,89.67901234567903,0)" xlink:href="#aP"/><use transform="matrix(0.04938271604938272,0,0,0.04938271604938272,102.46913580246914,0)" xlink:href="#aQ"/><use transform="matrix(0.04938271604938272,0,0,0.04938271604938272,112.0493827160494,0)" xlink:href="#bn"/></g><g id="D"><use transform="matrix(0.04938271604938272,0,0,0.04938271604938272,0,0)" xlink:href="#bp"/><use transform="matrix(0.04938271604938272,0,0,0.04938271604938272,9.876543209876544,0)" xlink:href="#aO"/><use transform="matrix(0.04938271604938272,0,0,0.04938271604938272,22.66666666666667,0)" xlink:href="#aP"/><use transform="matrix(0.04938271604938272,0,0,0.04938271604938272,35.4567901234568,0)" xlink:href="#aQ"/><use transform="matrix(0.04938271604938272,0,0,0.04938271604938272,45.037037037037045,0)" xlink:href="#bn"/></g><path fill="#333" d="M33-261c38 41 65 92 65 168S71 34 33 75H2C39 34 66-17 66-93S39-220 2-261h31" id="bt"/><g id="E"><use transform="matrix(0.04938271604938272,0,0,0.04938271604938272,0,0)" xlink:href="#ba"/><use transform="matrix(0.04938271604938272,0,0,0.04938271604938272,5.8765432098765435,0)" xlink:href="#aO"/><use transform="matrix(0.04938271604938272,0,0,0.04938271604938272,18.666666666666668,0)" xlink:href="#aP"/><use transform="matrix(0.04938271604938272,0,0,0.04938271604938272,31.45679012345679,0)" xlink:href="#aQ"/><use transform="matrix(0.04938271604938272,0,0,0.04938271604938272,43.308641975308646,0)" xlink:href="#bt"/></g><path fill="#333" d="M30-248c118-7 216 8 213 122C240-48 200 0 122 0H30v-248zM63-27c89 8 146-16 146-99s-60-101-146-95v194" id="bu"/><path fill="#333" d="M206 0h-36l-40-164L89 0H53L-1-190h32L70-26l43-164h34l41 164 42-164h31" id="bv"/><g id="F"><use transform="matrix(0.04938271604938272,0,0,0.04938271604938272,0,0)" xlink:href="#bu"/><use transform="matrix(0.04938271604938272,0,0,0.04938271604938272,12.790123456790125,0)" xlink:href="#bb"/><use transform="matrix(0.04938271604938272,0,0,0.04938271604938272,22.66666666666667,0)" xlink:href="#bv"/><use transform="matrix(0.04938271604938272,0,0,0.04938271604938272,35.4567901234568,0)" xlink:href="#aW"/><use transform="matrix(0.04938271604938272,0,0,0.04938271604938272,45.33333333333334,0)" xlink:href="#aN"/><use transform="matrix(0.04938271604938272,0,0,0.04938271604938272,49.23456790123458,0)" xlink:href="#bb"/><use transform="matrix(0.04938271604938272,0,0,0.04938271604938272,59.111111111111114,0)" xlink:href="#aL"/><use transform="matrix(0.04938271604938272,0,0,0.04938271604938272,68.98765432098767,0)" xlink:href="#aM"/></g><g id="G"><use transform="matrix(0.04938271604938272,0,0,0.04938271604938272,0,0)" xlink:href="#aL"/><use transform="matrix(0.04938271604938272,0,0,0.04938271604938272,9.876543209876544,0)" xlink:href="#aW"/><use transform="matrix(0.04938271604938272,0,0,0.04938271604938272,19.75308641975309,0)" xlink:href="#aM"/></g><g id="H"><use transform="matrix(0.04938271604938272,0,0,0.04938271604938272,0,0)" xlink:href="#bp"/><use transform="matrix(0.04938271604938272,0,0,0.04938271604938272,9.876543209876544,0)" xlink:href="#aK"/><use transform="matrix(0.04938271604938272,0,0,0.04938271604938272,19.75308641975309,0)" xlink:href="#ba"/><use transform="matrix(0.04938271604938272,0,0,0.04938271604938272,25.629629629629633,0)" xlink:href="#aT"/><use transform="matrix(0.04938271604938272,0,0,0.04938271604938272,34.51851851851852,0)" xlink:href="#aY"/><use transform="matrix(0.04938271604938272,0,0,0.04938271604938272,38.41975308641975,0)" xlink:href="#aT"/><use transform="matrix(0.04938271604938272,0,0,0.04938271604938272,47.308641975308646,0)" xlink:href="#aS"/></g><g id="I"><use transform="matrix(0.04938271604938272,0,0,0.04938271604938272,0,0)" xlink:href="#aW"/><use transform="matrix(0.04938271604938272,0,0,0.04938271604938272,9.876543209876544,0)" xlink:href="#aK"/><use transform="matrix(0.04938271604938272,0,0,0.04938271604938272,19.75308641975309,0)" xlink:href="#bv"/></g><g id="J"><use transform="matrix(0.04938271604938272,0,0,0.04938271604938272,0,0)" xlink:href="#ba"/><use transform="matrix(0.04938271604938272,0,0,0.04938271604938272,5.8765432098765435,0)" xlink:href="#aK"/><use transform="matrix(0.04938271604938272,0,0,0.04938271604938272,15.753086419753087,0)" xlink:href="#bd"/><use transform="matrix(0.04938271604938272,0,0,0.04938271604938272,25.629629629629633,0)" xlink:href="#aY"/><use transform="matrix(0.04938271604938272,0,0,0.04938271604938272,29.530864197530867,0)" xlink:href="#aT"/><use transform="matrix(0.04938271604938272,0,0,0.04938271604938272,38.41975308641976,0)" xlink:href="#aS"/><use transform="matrix(0.04938271604938272,0,0,0.04938271604938272,43.35802469135803,0)" xlink:href="#ba"/><use transform="matrix(0.04938271604938272,0,0,0.04938271604938272,49.23456790123458,0)" xlink:href="#be"/><use transform="matrix(0.04938271604938272,0,0,0.04938271604938272,56.79012345679013,0)" xlink:href="#bn"/></g><g id="K"><use transform="matrix(0.04938271604938272,0,0,0.04938271604938272,0,0)" xlink:href="#ba"/><use transform="matrix(0.04938271604938272,0,0,0.04938271604938272,5.8765432098765435,0)" xlink:href="#aK"/><use transform="matrix(0.04938271604938272,0,0,0.04938271604938272,15.753086419753087,0)" xlink:href="#aT"/><use transform="matrix(0.04938271604938272,0,0,0.04938271604938272,24.641975308641978,0)" xlink:href="#aS"/><use transform="matrix(0.04938271604938272,0,0,0.04938271604938272,29.58024691358025,0)" xlink:href="#aL"/><use transform="matrix(0.04938271604938272,0,0,0.04938271604938272,39.4567901234568,0)" xlink:href="#ba"/><use transform="matrix(0.04938271604938272,0,0,0.04938271604938272,45.33333333333334,0)" xlink:href="#aS"/></g><g id="L"><use transform="matrix(0.04938271604938272,0,0,0.04938271604938272,0,0)" xlink:href="#aW"/><use transform="matrix(0.04938271604938272,0,0,0.04938271604938272,9.876543209876544,0)" xlink:href="#bb"/><use transform="matrix(0.04938271604938272,0,0,0.04938271604938272,19.75308641975309,0)" xlink:href="#aM"/><use transform="matrix(0.04938271604938272,0,0,0.04938271604938272,29.629629629629633,0)" xlink:href="#aK"/></g><g id="M"><use transform="matrix(0.04938271604938272,0,0,0.04938271604938272,0,0)" xlink:href="#bp"/><use transform="matrix(0.04938271604938272,0,0,0.04938271604938272,9.876543209876544,0)" xlink:href="#ba"/><use transform="matrix(0.04938271604938272,0,0,0.04938271604938272,15.753086419753087,0)" xlink:href="#bb"/><use transform="matrix(0.04938271604938272,0,0,0.04938271604938272,25.629629629629633,0)" xlink:href="#bh"/><use transform="matrix(0.04938271604938272,0,0,0.04938271604938272,34.51851851851852,0)" xlink:href="#aK"/><use transform="matrix(0.04938271604938272,0,0,0.04938271604938272,44.39506172839506,0)" xlink:href="#aT"/><use transform="matrix(0.04938271604938272,0,0,0.04938271604938272,53.28395061728394,0)" xlink:href="#aT"/></g><path fill="#333" d="M143 0L79-87 56-68V0H24v-261h32v163l83-92h37l-77 82L181 0h-38" id="bw"/><g id="N"><use transform="matrix(0.04938271604938272,0,0,0.04938271604938272,0,0)" xlink:href="#aO"/><use transform="matrix(0.04938271604938272,0,0,0.04938271604938272,12.790123456790125,0)" xlink:href="#bo"/><use transform="matrix(0.04938271604938272,0,0,0.04938271604938272,22.66666666666667,0)" xlink:href="#aK"/><use transform="matrix(0.04938271604938272,0,0,0.04938271604938272,32.543209876543216,0)" xlink:href="#bh"/><use transform="matrix(0.04938271604938272,0,0,0.04938271604938272,41.4320987654321,0)" xlink:href="#bw"/></g><g id="O"><use transform="matrix(0.04938271604938272,0,0,0.04938271604938272,0,0)" xlink:href="#aY"/><use transform="matrix(0.04938271604938272,0,0,0.04938271604938272,3.901234567901235,0)" xlink:href="#aZ"/></g><g id="P"><use transform="matrix(0.04938271604938272,0,0,0.04938271604938272,0,0)" xlink:href="#aT"/><use transform="matrix(0.04938271604938272,0,0,0.04938271604938272,8.88888888888889,0)" xlink:href="#aS"/><use transform="matrix(0.04938271604938272,0,0,0.04938271604938272,13.827160493827162,0)" xlink:href="#aY"/><use transform="matrix(0.04938271604938272,0,0,0.04938271604938272,17.728395061728396,0)" xlink:href="#aN"/><use transform="matrix(0.04938271604938272,0,0,0.04938271604938272,21.62962962962963,0)" xlink:href="#aN"/></g><g id="Q"><use transform="matrix(0.04938271604938272,0,0,0.04938271604938272,0,0)" xlink:href="#bp"/><use transform="matrix(0.04938271604938272,0,0,0.04938271604938272,9.876543209876544,0)" xlink:href="#aL"/><use transform="matrix(0.04938271604938272,0,0,0.04938271604938272,19.75308641975309,0)" xlink:href="#ba"/><use transform="matrix(0.04938271604938272,0,0,0.04938271604938272,25.629629629629633,0)" xlink:href="#aS"/></g><g id="R"><use transform="matrix(0.04938271604938272,0,0,0.04938271604938272,0,0)" xlink:href="#aT"/><use transform="matrix(0.04938271604938272,0,0,0.04938271604938272,8.88888888888889,0)" xlink:href="#aU"/><use transform="matrix(0.04938271604938272,0,0,0.04938271604938272,18.765432098765434,0)" xlink:href="#aV"/><use transform="matrix(0.04938271604938272,0,0,0.04938271604938272,28.641975308641978,0)" xlink:href="#aW"/><use transform="matrix(0.04938271604938272,0,0,0.04938271604938272,38.51851851851852,0)" xlink:href="#aK"/><use transform="matrix(0.04938271604938272,0,0,0.04938271604938272,48.39506172839506,0)" xlink:href="#aS"/></g><g id="S"><use transform="matrix(0.04938271604938272,0,0,0.04938271604938272,0,0)" xlink:href="#aU"/><use transform="matrix(0.04938271604938272,0,0,0.04938271604938272,9.876543209876544,0)" xlink:href="#aT"/><use transform="matrix(0.04938271604938272,0,0,0.04938271604938272,18.765432098765434,0)" xlink:href="#aY"/><use transform="matrix(0.04938271604938272,0,0,0.04938271604938272,22.666666666666668,0)" xlink:href="#aW"/><use transform="matrix(0.04938271604938272,0,0,0.04938271604938272,32.543209876543216,0)" xlink:href="#bd"/></g><g id="T"><use transform="matrix(0.05,0,0,0.05,0,0)" xlink:href="#bi"/><use transform="matrix(0.05,0,0,0.05,5,0)" xlink:href="#bl"/><use transform="matrix(0.05,0,0,0.05,17.950000000000003,0)" xlink:href="#bl"/><use transform="matrix(0.05,0,0,0.05,30.900000000000006,0)" xlink:href="#bj"/></g><g id="U"><use transform="matrix(0.05,0,0,0.05,0,0)" xlink:href="#aT"/><use transform="matrix(0.05,0,0,0.05,9,0)" xlink:href="#aU"/><use transform="matrix(0.05,0,0,0.05,19,0)" xlink:href="#aV"/><use transform="matrix(0.05,0,0,0.05,29,0)" xlink:href="#aW"/><use transform="matrix(0.05,0,0,0.05,39,0)" xlink:href="#aK"/><use transform="matrix(0.05,0,0,0.05,49,0)" xlink:href="#aS"/></g><g id="V"><use transform="matrix(0.05,0,0,0.05,0,0)" xlink:href="#ba"/><use transform="matrix(0.05,0,0,0.05,5.95,0)" xlink:href="#aK"/><use transform="matrix(0.05,0,0,0.05,15.949999999999998,0)" xlink:href="#bh"/><use transform="matrix(0.05,0,0,0.05,24.95,0)" xlink:href="#bb"/><use transform="matrix(0.05,0,0,0.05,34.95,0)" xlink:href="#bm"/><use transform="matrix(0.05,0,0,0.05,43.95,0)" xlink:href="#aK"/><use transform="matrix(0.05,0,0,0.05,53.95,0)" xlink:href="#ba"/><use transform="matrix(0.05,0,0,0.05,59.900000000000006,0)" xlink:href="#be"/><use transform="matrix(0.05,0,0,0.05,68.9,0)" xlink:href="#bk"/></g><g id="W"><use transform="matrix(0.05,0,0,0.05,0,0)" xlink:href="#bi"/><use transform="matrix(0.05,0,0,0.05,5,0)" xlink:href="#bj"/><use transform="matrix(0.05,0,0,0.05,17,0)" xlink:href="#bb"/><use transform="matrix(0.05,0,0,0.05,27,0)" xlink:href="#bc"/><use transform="matrix(0.05,0,0,0.05,41.95,0)" xlink:href="#aK"/><use transform="matrix(0.05,0,0,0.05,51.95,0)" xlink:href="#bs"/><use transform="matrix(0.05,0,0,0.05,57.900000000000006,0)" xlink:href="#aN"/><use transform="matrix(0.05,0,0,0.05,61.85,0)" xlink:href="#aO"/><use transform="matrix(0.05,0,0,0.05,74.80000000000001,0)" xlink:href="#aP"/><use transform="matrix(0.05,0,0,0.05,87.75000000000001,0)" xlink:href="#aQ"/><use transform="matrix(0.05,0,0,0.05,99.75000000000001,0)" xlink:href="#bt"/><use transform="matrix(0.05,0,0,0.05,105.7,0)" xlink:href="#bk"/></g><g id="X"><use transform="matrix(0.04938271604938272,0,0,0.04938271604938272,0,0)" xlink:href="#aY"/><use transform="matrix(0.04938271604938272,0,0,0.04938271604938272,3.901234567901235,0)" xlink:href="#bc"/><use transform="matrix(0.04938271604938272,0,0,0.04938271604938272,18.666666666666668,0)" xlink:href="#aL"/><use transform="matrix(0.04938271604938272,0,0,0.04938271604938272,28.543209876543212,0)" xlink:href="#bd"/><use transform="matrix(0.04938271604938272,0,0,0.04938271604938272,38.41975308641976,0)" xlink:href="#aK"/></g><g id="Y"><use transform="matrix(0.04938271604938272,0,0,0.04938271604938272,0,0)" xlink:href="#aU"/><use transform="matrix(0.04938271604938272,0,0,0.04938271604938272,9.876543209876544,0)" xlink:href="#aW"/><use transform="matrix(0.04938271604938272,0,0,0.04938271604938272,19.75308641975309,0)" xlink:href="#aN"/><use transform="matrix(0.04938271604938272,0,0,0.04938271604938272,23.654320987654323,0)" xlink:href="#aK"/><use transform="matrix(0.04938271604938272,0,0,0.04938271604938272,33.53086419753087,0)" xlink:href="#aT"/><use transform="matrix(0.04938271604938272,0,0,0.04938271604938272,42.41975308641976,0)" xlink:href="#aT"/></g><g id="Z"><use transform="matrix(0.04938271604938272,0,0,0.04938271604938272,0,0)" xlink:href="#aL"/><use transform="matrix(0.04938271604938272,0,0,0.04938271604938272,9.876543209876544,0)" xlink:href="#aN"/><use transform="matrix(0.04938271604938272,0,0,0.04938271604938272,13.777777777777779,0)" xlink:href="#ba"/><use transform="matrix(0.04938271604938272,0,0,0.04938271604938272,19.654320987654323,0)" xlink:href="#aK"/><use transform="matrix(0.04938271604938272,0,0,0.04938271604938272,29.530864197530867,0)" xlink:href="#aL"/><use transform="matrix(0.04938271604938272,0,0,0.04938271604938272,39.40740740740741,0)" xlink:href="#aM"/><use transform="matrix(0.04938271604938272,0,0,0.04938271604938272,49.283950617283956,0)" xlink:href="#be"/></g><g id="aa"><use transform="matrix(0.04938271604938272,0,0,0.04938271604938272,0,0)" xlink:href="#bp"/><use transform="matrix(0.04938271604938272,0,0,0.04938271604938272,9.876543209876544,0)" xlink:href="#ba"/><use transform="matrix(0.04938271604938272,0,0,0.04938271604938272,15.753086419753087,0)" xlink:href="#aK"/><use transform="matrix(0.04938271604938272,0,0,0.04938271604938272,25.629629629629633,0)" xlink:href="#aT"/><use transform="matrix(0.04938271604938272,0,0,0.04938271604938272,34.51851851851852,0)" xlink:href="#aK"/><use transform="matrix(0.04938271604938272,0,0,0.04938271604938272,44.39506172839506,0)" xlink:href="#aW"/><use transform="matrix(0.04938271604938272,0,0,0.04938271604938272,54.27160493827161,0)" xlink:href="#aS"/></g><path fill="#333" d="M33 0v-248h34V0H33" id="bx"/><g id="ab"><use transform="matrix(0.04938271604938272,0,0,0.04938271604938272,0,0)" xlink:href="#bx"/><use transform="matrix(0.04938271604938272,0,0,0.04938271604938272,4.938271604938272,0)" xlink:href="#aW"/><use transform="matrix(0.04938271604938272,0,0,0.04938271604938272,14.814814814814817,0)" xlink:href="#aT"/><use transform="matrix(0.04938271604938272,0,0,0.04938271604938272,23.703703703703706,0)" xlink:href="#aS"/><use transform="matrix(0.04938271604938272,0,0,0.04938271604938272,28.641975308641978,0)" xlink:href="#aL"/><use transform="matrix(0.04938271604938272,0,0,0.04938271604938272,38.51851851851852,0)" xlink:href="#aN"/><use transform="matrix(0.04938271604938272,0,0,0.04938271604938272,42.41975308641975,0)" xlink:href="#aN"/></g><g id="ac"><use transform="matrix(0.04938271604938272,0,0,0.04938271604938272,0,0)" xlink:href="#aU"/><use transform="matrix(0.04938271604938272,0,0,0.04938271604938272,9.876543209876544,0)" xlink:href="#bp"/><use transform="matrix(0.04938271604938272,0,0,0.04938271604938272,19.75308641975309,0)" xlink:href="#bd"/><use transform="matrix(0.04938271604938272,0,0,0.04938271604938272,29.629629629629633,0)" xlink:href="#ba"/><use transform="matrix(0.04938271604938272,0,0,0.04938271604938272,35.50617283950618,0)" xlink:href="#aL"/><use transform="matrix(0.04938271604938272,0,0,0.04938271604938272,45.38271604938272,0)" xlink:href="#aM"/><use transform="matrix(0.04938271604938272,0,0,0.04938271604938272,55.25925925925927,0)" xlink:href="#aK"/></g><g id="ad"><use transform="matrix(0.04938271604938272,0,0,0.04938271604938272,0,0)" xlink:href="#bs"/><use transform="matrix(0.04938271604938272,0,0,0.04938271604938272,5.8765432098765435,0)" xlink:href="#aT"/><use transform="matrix(0.04938271604938272,0,0,0.04938271604938272,14.765432098765434,0)" xlink:href="#bo"/><use transform="matrix(0.04938271604938272,0,0,0.04938271604938272,24.641975308641978,0)" xlink:href="#aK"/><use transform="matrix(0.04938271604938272,0,0,0.04938271604938272,34.51851851851852,0)" xlink:href="#aN"/><use transform="matrix(0.04938271604938272,0,0,0.04938271604938272,38.41975308641975,0)" xlink:href="#aN"/></g><g id="ae"><use transform="matrix(0.04938271604938272,0,0,0.04938271604938272,0,0)" xlink:href="#aT"/><use transform="matrix(0.04938271604938272,0,0,0.04938271604938272,8.88888888888889,0)" xlink:href="#bh"/><use transform="matrix(0.04938271604938272,0,0,0.04938271604938272,17.77777777777778,0)" xlink:href="#ba"/><use transform="matrix(0.04938271604938272,0,0,0.04938271604938272,23.654320987654323,0)" xlink:href="#aY"/><use transform="matrix(0.04938271604938272,0,0,0.04938271604938272,27.555555555555557,0)" xlink:href="#bp"/><use transform="matrix(0.04938271604938272,0,0,0.04938271604938272,37.4320987654321,0)" xlink:href="#aS"/><use transform="matrix(0.04938271604938272,0,0,0.04938271604938272,42.370370370370374,0)" xlink:href="#bt"/><use transform="matrix(0.04938271604938272,0,0,0.04938271604938272,48.24691358024692,0)" xlink:href="#bn"/></g><g id="af"><use transform="matrix(0.04938271604938272,0,0,0.04938271604938272,0,0)" xlink:href="#ba"/><use transform="matrix(0.04938271604938272,0,0,0.04938271604938272,5.8765432098765435,0)" xlink:href="#aK"/><use transform="matrix(0.04938271604938272,0,0,0.04938271604938272,15.753086419753087,0)" xlink:href="#aV"/><use transform="matrix(0.04938271604938272,0,0,0.04938271604938272,25.629629629629633,0)" xlink:href="#bb"/><use transform="matrix(0.04938271604938272,0,0,0.04938271604938272,35.50617283950618,0)" xlink:href="#bb"/><use transform="matrix(0.04938271604938272,0,0,0.04938271604938272,45.38271604938272,0)" xlink:href="#aS"/></g><g id="ag"><use transform="matrix(0.05,0,0,0.05,0,0)" xlink:href="#bi"/><use transform="matrix(0.05,0,0,0.05,5,0)" xlink:href="#ba"/><use transform="matrix(0.05,0,0,0.05,10.95,0)" xlink:href="#aK"/><use transform="matrix(0.05,0,0,0.05,20.95,0)" xlink:href="#bp"/><use transform="matrix(0.05,0,0,0.05,30.950000000000003,0)" xlink:href="#aN"/><use transform="matrix(0.05,0,0,0.05,34.9,0)" xlink:href="#aX"/><use transform="matrix(0.05,0,0,0.05,44.9,0)" xlink:href="#bm"/><use transform="matrix(0.05,0,0,0.05,53.900000000000006,0)" xlink:href="#aK"/><use transform="matrix(0.05,0,0,0.05,63.900000000000006,0)" xlink:href="#ba"/><use transform="matrix(0.05,0,0,0.05,69.85,0)" xlink:href="#aT"/><use transform="matrix(0.05,0,0,0.05,78.85,0)" xlink:href="#aY"/><use transform="matrix(0.05,0,0,0.05,82.8,0)" xlink:href="#bb"/><use transform="matrix(0.05,0,0,0.05,92.8,0)" xlink:href="#aW"/></g><g id="ah"><use transform="matrix(0.05,0,0,0.05,0,0)" xlink:href="#bh"/><use transform="matrix(0.05,0,0,0.05,9,0)" xlink:href="#bo"/><use transform="matrix(0.05,0,0,0.05,19,0)" xlink:href="#aL"/><use transform="matrix(0.05,0,0,0.05,29,0)" xlink:href="#aW"/><use transform="matrix(0.05,0,0,0.05,39,0)" xlink:href="#bd"/><use transform="matrix(0.05,0,0,0.05,49,0)" xlink:href="#aK"/><use transform="matrix(0.05,0,0,0.05,59,0)" xlink:href="#aM"/><use transform="matrix(0.05,0,0,0.05,69,0)" xlink:href="#bk"/></g><path fill="#333" d="M145-31C134-9 116 4 85 4 32 4 16-35 15-94c0-59 17-99 70-100 32-1 48 14 60 33 0-11-1-24 2-32h30l-1 268h-32zM93-21c41 0 51-33 51-76s-8-73-50-73c-40 0-46 35-46 75s5 74 45 74" id="by"/><g id="ai"><use transform="matrix(0.05,0,0,0.05,0,0)" xlink:href="#bi"/><use transform="matrix(0.05,0,0,0.05,5,0)" xlink:href="#aK"/><use transform="matrix(0.05,0,0,0.05,15,0)" xlink:href="#by"/><use transform="matrix(0.05,0,0,0.05,25,0)" xlink:href="#aU"/><use transform="matrix(0.05,0,0,0.05,35,0)" xlink:href="#aL"/><use transform="matrix(0.05,0,0,0.05,45,0)" xlink:href="#aN"/></g><g id="aj"><use transform="matrix(0.05,0,0,0.05,0,0)" xlink:href="#bm"/><use transform="matrix(0.05,0,0,0.05,9,0)" xlink:href="#aK"/><use transform="matrix(0.05,0,0,0.05,19,0)" xlink:href="#ba"/><use transform="matrix(0.05,0,0,0.05,24.95,0)" xlink:href="#aT"/><use transform="matrix(0.05,0,0,0.05,33.95,0)" xlink:href="#aY"/><use transform="matrix(0.05,0,0,0.05,37.900000000000006,0)" xlink:href="#bb"/><use transform="matrix(0.05,0,0,0.05,47.900000000000006,0)" xlink:href="#aW"/><use transform="matrix(0.05,0,0,0.05,57.900000000000006,0)" xlink:href="#aT"/><use transform="matrix(0.05,0,0,0.05,66.9,0)" xlink:href="#bk"/></g><g id="ak"><use transform="matrix(0.04938271604938272,0,0,0.04938271604938272,0,0)" xlink:href="#bj"/><use transform="matrix(0.04938271604938272,0,0,0.04938271604938272,11.851851851851853,0)" xlink:href="#aS"/><use transform="matrix(0.04938271604938272,0,0,0.04938271604938272,16.790123456790127,0)" xlink:href="#bb"/><use transform="matrix(0.04938271604938272,0,0,0.04938271604938272,26.666666666666668,0)" xlink:href="#bp"/></g><g id="al"><use transform="matrix(0.04938271604938272,0,0,0.04938271604938272,0,0)" xlink:href="#ba"/><use transform="matrix(0.04938271604938272,0,0,0.04938271604938272,5.8765432098765435,0)" xlink:href="#aK"/><use transform="matrix(0.04938271604938272,0,0,0.04938271604938272,15.753086419753087,0)" xlink:href="#bp"/><use transform="matrix(0.04938271604938272,0,0,0.04938271604938272,25.629629629629633,0)" xlink:href="#aN"/><use transform="matrix(0.04938271604938272,0,0,0.04938271604938272,29.530864197530867,0)" xlink:href="#aY"/><use transform="matrix(0.04938271604938272,0,0,0.04938271604938272,33.4320987654321,0)" xlink:href="#bh"/><use transform="matrix(0.04938271604938272,0,0,0.04938271604938272,42.32098765432099,0)" xlink:href="#aL"/><use transform="matrix(0.04938271604938272,0,0,0.04938271604938272,52.19753086419754,0)" xlink:href="#bn"/></g><g id="am"><use transform="matrix(0.04938271604938272,0,0,0.04938271604938272,0,0)" xlink:href="#ba"/><use transform="matrix(0.04938271604938272,0,0,0.04938271604938272,5.8765432098765435,0)" xlink:href="#aK"/><use transform="matrix(0.04938271604938272,0,0,0.04938271604938272,15.753086419753087,0)" xlink:href="#aT"/><use transform="matrix(0.04938271604938272,0,0,0.04938271604938272,24.641975308641978,0)" xlink:href="#aK"/><use transform="matrix(0.04938271604938272,0,0,0.04938271604938272,34.51851851851852,0)" xlink:href="#aS"/></g><g id="an"><use transform="matrix(0.04938271604938272,0,0,0.04938271604938272,0,0)" xlink:href="#bh"/><use transform="matrix(0.04938271604938272,0,0,0.04938271604938272,8.88888888888889,0)" xlink:href="#bb"/><use transform="matrix(0.04938271604938272,0,0,0.04938271604938272,18.765432098765434,0)" xlink:href="#aW"/><use transform="matrix(0.04938271604938272,0,0,0.04938271604938272,28.641975308641978,0)" xlink:href="#aZ"/><use transform="matrix(0.04938271604938272,0,0,0.04938271604938272,33.580246913580254,0)" xlink:href="#aY"/><use transform="matrix(0.04938271604938272,0,0,0.04938271604938272,37.48148148148149,0)" xlink:href="#bd"/><use transform="matrix(0.04938271604938272,0,0,0.04938271604938272,47.35802469135803,0)" xlink:href="#bn"/></g><g id="ao"><use transform="matrix(0.04938271604938272,0,0,0.04938271604938272,0,0)" xlink:href="#aM"/><use transform="matrix(0.04938271604938272,0,0,0.04938271604938272,9.876543209876544,0)" xlink:href="#aK"/><use transform="matrix(0.04938271604938272,0,0,0.04938271604938272,19.75308641975309,0)" xlink:href="#aN"/><use transform="matrix(0.04938271604938272,0,0,0.04938271604938272,23.654320987654323,0)" xlink:href="#aK"/><use transform="matrix(0.04938271604938272,0,0,0.04938271604938272,33.53086419753087,0)" xlink:href="#aS"/><use transform="matrix(0.04938271604938272,0,0,0.04938271604938272,38.46913580246914,0)" xlink:href="#aK"/></g><g id="ap"><use transform="matrix(0.04938271604938272,0,0,0.04938271604938272,0,0)" xlink:href="#aT"/><use transform="matrix(0.04938271604938272,0,0,0.04938271604938272,8.88888888888889,0)" xlink:href="#aS"/><use transform="matrix(0.04938271604938272,0,0,0.04938271604938272,13.827160493827162,0)" xlink:href="#aL"/><use transform="matrix(0.04938271604938272,0,0,0.04938271604938272,23.703703703703706,0)" xlink:href="#aS"/><use transform="matrix(0.04938271604938272,0,0,0.04938271604938272,28.641975308641978,0)" xlink:href="#aK"/></g><g id="aq"><use transform="matrix(0.04938271604938272,0,0,0.04938271604938272,0,0)" xlink:href="#aL"/><use transform="matrix(0.04938271604938272,0,0,0.04938271604938272,9.876543209876544,0)" xlink:href="#aW"/><use transform="matrix(0.04938271604938272,0,0,0.04938271604938272,19.75308641975309,0)" xlink:href="#aM"/></g><g id="ar"><use transform="matrix(0.04938271604938272,0,0,0.04938271604938272,0,0)" xlink:href="#aO"/><use transform="matrix(0.04938271604938272,0,0,0.04938271604938272,12.790123456790125,0)" xlink:href="#aP"/><use transform="matrix(0.04938271604938272,0,0,0.04938271604938272,25.58024691358025,0)" xlink:href="#aQ"/><use transform="matrix(0.04938271604938272,0,0,0.04938271604938272,35.1604938271605,0)" xlink:href="#bn"/></g><g id="as"><use transform="matrix(0.05,0,0,0.05,0,0)" xlink:href="#bi"/><use transform="matrix(0.05,0,0,0.05,5,0)" xlink:href="#aZ"/><use transform="matrix(0.05,0,0,0.05,10,0)" xlink:href="#aL"/><use transform="matrix(0.05,0,0,0.05,20,0)" xlink:href="#aN"/><use transform="matrix(0.05,0,0,0.05,23.95,0)" xlink:href="#aT"/><use transform="matrix(0.05,0,0,0.05,32.95,0)" xlink:href="#aK"/><use transform="matrix(0.05,0,0,0.05,42.95,0)" xlink:href="#bk"/></g><g id="at"><use transform="matrix(0.04938271604938272,0,0,0.04938271604938272,0,0)" xlink:href="#aN"/><use transform="matrix(0.04938271604938272,0,0,0.04938271604938272,3.901234567901235,0)" xlink:href="#aO"/><use transform="matrix(0.04938271604938272,0,0,0.04938271604938272,16.69135802469136,0)" xlink:href="#aP"/><use transform="matrix(0.04938271604938272,0,0,0.04938271604938272,29.481481481481488,0)" xlink:href="#aQ"/></g><g id="au"><use transform="matrix(0.05,0,0,0.05,0,0)" xlink:href="#bi"/><use transform="matrix(0.05,0,0,0.05,5,0)" xlink:href="#aS"/><use transform="matrix(0.05,0,0,0.05,10,0)" xlink:href="#ba"/><use transform="matrix(0.05,0,0,0.05,15.949999999999998,0)" xlink:href="#aU"/><use transform="matrix(0.05,0,0,0.05,25.950000000000003,0)" xlink:href="#aK"/><use transform="matrix(0.05,0,0,0.05,35.95,0)" xlink:href="#bk"/></g><g id="av"><use transform="matrix(0.04938271604938272,0,0,0.04938271604938272,0,0)" xlink:href="#aT"/><use transform="matrix(0.04938271604938272,0,0,0.04938271604938272,8.88888888888889,0)" xlink:href="#aU"/><use transform="matrix(0.04938271604938272,0,0,0.04938271604938272,18.765432098765434,0)" xlink:href="#aV"/><use transform="matrix(0.04938271604938272,0,0,0.04938271604938272,28.641975308641978,0)" xlink:href="#aW"/><use transform="matrix(0.04938271604938272,0,0,0.04938271604938272,38.51851851851852,0)" xlink:href="#aK"/><use transform="matrix(0.04938271604938272,0,0,0.04938271604938272,48.39506172839506,0)" xlink:href="#aS"/><use transform="matrix(0.04938271604938272,0,0,0.04938271604938272,53.333333333333336,0)" xlink:href="#aX"/><use transform="matrix(0.04938271604938272,0,0,0.04938271604938272,63.20987654320988,0)" xlink:href="#aY"/><use transform="matrix(0.04938271604938272,0,0,0.04938271604938272,67.11111111111111,0)" xlink:href="#aM"/></g><g id="aw"><use transform="matrix(0.04938271604938272,0,0,0.04938271604938272,0,0)" xlink:href="#bq"/><use transform="matrix(0.04938271604938272,0,0,0.04938271604938272,4.938271604938272,0)" xlink:href="#br"/></g><g id="ax"><use transform="matrix(0.04938271604938272,0,0,0.04938271604938272,0,0)" xlink:href="#bl"/><use transform="matrix(0.04938271604938272,0,0,0.04938271604938272,12.790123456790125,0)" xlink:href="#bb"/><use transform="matrix(0.04938271604938272,0,0,0.04938271604938272,22.66666666666667,0)" xlink:href="#aW"/><use transform="matrix(0.04938271604938272,0,0,0.04938271604938272,32.543209876543216,0)" xlink:href="#aK"/></g><g id="ay"><use transform="matrix(0.04938271604938272,0,0,0.04938271604938272,0,0)" xlink:href="#aP"/><use transform="matrix(0.04938271604938272,0,0,0.04938271604938272,12.790123456790125,0)" xlink:href="#bp"/><use transform="matrix(0.04938271604938272,0,0,0.04938271604938272,22.66666666666667,0)" xlink:href="#aM"/><use transform="matrix(0.04938271604938272,0,0,0.04938271604938272,32.543209876543216,0)" xlink:href="#aL"/><use transform="matrix(0.04938271604938272,0,0,0.04938271604938272,42.41975308641976,0)" xlink:href="#aS"/><use transform="matrix(0.04938271604938272,0,0,0.04938271604938272,47.35802469135803,0)" xlink:href="#aK"/></g><g id="az"><use transform="matrix(0.04938271604938272,0,0,0.04938271604938272,0,0)" xlink:href="#bf"/><use transform="matrix(0.04938271604938272,0,0,0.04938271604938272,11.851851851851853,0)" xlink:href="#aW"/><use transform="matrix(0.04938271604938272,0,0,0.04938271604938272,21.7283950617284,0)" xlink:href="#aT"/><use transform="matrix(0.04938271604938272,0,0,0.04938271604938272,30.617283950617285,0)" xlink:href="#aU"/><use transform="matrix(0.04938271604938272,0,0,0.04938271604938272,40.49382716049384,0)" xlink:href="#ba"/><use transform="matrix(0.04938271604938272,0,0,0.04938271604938272,46.37037037037038,0)" xlink:href="#aK"/></g><g id="aA"><use transform="matrix(0.04938271604938272,0,0,0.04938271604938272,0,0)" xlink:href="#ba"/><use transform="matrix(0.04938271604938272,0,0,0.04938271604938272,5.8765432098765435,0)" xlink:href="#aK"/><use transform="matrix(0.04938271604938272,0,0,0.04938271604938272,15.753086419753087,0)" xlink:href="#bp"/><use transform="matrix(0.04938271604938272,0,0,0.04938271604938272,25.629629629629633,0)" xlink:href="#aN"/><use transform="matrix(0.04938271604938272,0,0,0.04938271604938272,29.530864197530867,0)" xlink:href="#aY"/><use transform="matrix(0.04938271604938272,0,0,0.04938271604938272,33.4320987654321,0)" xlink:href="#bh"/><use transform="matrix(0.04938271604938272,0,0,0.04938271604938272,42.32098765432099,0)" xlink:href="#aL"/></g><g id="aB"><use transform="matrix(0.04938271604938272,0,0,0.04938271604938272,0,0)" xlink:href="#aY"/><use transform="matrix(0.04938271604938272,0,0,0.04938271604938272,3.901234567901235,0)" xlink:href="#aT"/></g><g id="aC"><use transform="matrix(0.04938271604938272,0,0,0.04938271604938272,0,0)" xlink:href="#ba"/><use transform="matrix(0.04938271604938272,0,0,0.04938271604938272,5.8765432098765435,0)" xlink:href="#aU"/><use transform="matrix(0.04938271604938272,0,0,0.04938271604938272,15.753086419753087,0)" xlink:href="#aW"/><use transform="matrix(0.04938271604938272,0,0,0.04938271604938272,25.629629629629633,0)" xlink:href="#aW"/><use transform="matrix(0.04938271604938272,0,0,0.04938271604938272,35.50617283950618,0)" xlink:href="#aY"/><use transform="matrix(0.04938271604938272,0,0,0.04938271604938272,39.40740740740741,0)" xlink:href="#aW"/><use transform="matrix(0.04938271604938272,0,0,0.04938271604938272,49.283950617283956,0)" xlink:href="#bd"/></g><g id="aD"><use transform="matrix(0.04938271604938272,0,0,0.04938271604938272,0,0)" xlink:href="#ba"/><use transform="matrix(0.04938271604938272,0,0,0.04938271604938272,5.8765432098765435,0)" xlink:href="#aK"/><use transform="matrix(0.04938271604938272,0,0,0.04938271604938272,15.753086419753087,0)" xlink:href="#bd"/><use transform="matrix(0.04938271604938272,0,0,0.04938271604938272,25.629629629629633,0)" xlink:href="#aY"/><use transform="matrix(0.04938271604938272,0,0,0.04938271604938272,29.530864197530867,0)" xlink:href="#aT"/><use transform="matrix(0.04938271604938272,0,0,0.04938271604938272,38.41975308641976,0)" xlink:href="#aS"/><use transform="matrix(0.04938271604938272,0,0,0.04938271604938272,43.35802469135803,0)" xlink:href="#ba"/><use transform="matrix(0.04938271604938272,0,0,0.04938271604938272,49.23456790123458,0)" xlink:href="#be"/></g><g id="aE"><use transform="matrix(0.04938271604938272,0,0,0.04938271604938272,0,0)" xlink:href="#aS"/><use transform="matrix(0.04938271604938272,0,0,0.04938271604938272,4.938271604938272,0)" xlink:href="#bb"/></g><path fill="#333" d="M16-82v-28h88v28H16" id="bz"/><g id="aF"><use transform="matrix(0.04938271604938272,0,0,0.04938271604938272,0,0)" xlink:href="#bp"/><use transform="matrix(0.04938271604938272,0,0,0.04938271604938272,9.876543209876544,0)" xlink:href="#ba"/><use transform="matrix(0.04938271604938272,0,0,0.04938271604938272,15.753086419753087,0)" xlink:href="#aK"/><use transform="matrix(0.04938271604938272,0,0,0.04938271604938272,25.629629629629633,0)" xlink:href="#bz"/><use transform="matrix(0.04938271604938272,0,0,0.04938271604938272,31.506172839506174,0)" xlink:href="#aZ"/><use transform="matrix(0.04938271604938272,0,0,0.04938271604938272,36.44444444444445,0)" xlink:href="#aK"/><use transform="matrix(0.04938271604938272,0,0,0.04938271604938272,46.320987654320994,0)" xlink:href="#aS"/><use transform="matrix(0.04938271604938272,0,0,0.04938271604938272,51.25925925925927,0)" xlink:href="#bh"/><use transform="matrix(0.04938271604938272,0,0,0.04938271604938272,60.14814814814815,0)" xlink:href="#bo"/></g><g id="aG"><use transform="matrix(0.04938271604938272,0,0,0.04938271604938272,0,0)" xlink:href="#aZ"/><use transform="matrix(0.04938271604938272,0,0,0.04938271604938272,4.938271604938272,0)" xlink:href="#aU"/><use transform="matrix(0.04938271604938272,0,0,0.04938271604938272,14.814814814814817,0)" xlink:href="#aS"/><use transform="matrix(0.04938271604938272,0,0,0.04938271604938272,19.75308641975309,0)" xlink:href="#aU"/><use transform="matrix(0.04938271604938272,0,0,0.04938271604938272,29.629629629629633,0)" xlink:href="#ba"/><use transform="matrix(0.04938271604938272,0,0,0.04938271604938272,35.50617283950618,0)" xlink:href="#aK"/></g><g id="aH"><use transform="matrix(0.04938271604938272,0,0,0.04938271604938272,0,0)" xlink:href="#aY"/><use transform="matrix(0.04938271604938272,0,0,0.04938271604938272,3.901234567901235,0)" xlink:href="#bc"/><use transform="matrix(0.04938271604938272,0,0,0.04938271604938272,18.666666666666668,0)" xlink:href="#aL"/><use transform="matrix(0.04938271604938272,0,0,0.04938271604938272,28.543209876543212,0)" xlink:href="#bd"/><use transform="matrix(0.04938271604938272,0,0,0.04938271604938272,38.41975308641976,0)" xlink:href="#aK"/></g><g id="aI"><use transform="matrix(0.04938271604938272,0,0,0.04938271604938272,0,0)" xlink:href="#aU"/><use transform="matrix(0.04938271604938272,0,0,0.04938271604938272,9.876543209876544,0)" xlink:href="#bp"/><use transform="matrix(0.04938271604938272,0,0,0.04938271604938272,19.75308641975309,0)" xlink:href="#bd"/><use transform="matrix(0.04938271604938272,0,0,0.04938271604938272,29.629629629629633,0)" xlink:href="#ba"/><use transform="matrix(0.04938271604938272,0,0,0.04938271604938272,35.50617283950618,0)" xlink:href="#aL"/><use transform="matrix(0.04938271604938272,0,0,0.04938271604938272,45.38271604938272,0)" xlink:href="#aM"/><use transform="matrix(0.04938271604938272,0,0,0.04938271604938272,55.25925925925927,0)" xlink:href="#aK"/></g></defs></g></svg>