<svg width="228" height="49" viewBox="0 0 228 49" fill="none" xmlns="http://www.w3.org/2000/svg">
<rect x="0.5" y="0.5" width="227" height="48" rx="3.5" fill="#28282C" stroke="url(#paint0_linear_1810_346)"/>
<path d="M51.3703 12C48.4634 12 45.2947 13.5165 41.9454 16.5037C40.3565 17.9191 38.9842 19.4357 37.9551 20.6489C37.9551 20.6489 37.9551 20.6489 37.9641 20.6581V20.6489C37.9641 20.6489 39.5891 22.4504 41.3856 24.3805C42.3516 23.2133 43.7419 21.6232 45.3398 20.1894C48.319 17.5331 50.2599 16.9724 51.3703 16.9724C55.5502 16.9724 58.9446 20.3456 58.9446 24.4908C58.9446 28.6085 55.5412 31.9816 51.3703 32.0092C51.1808 32.0092 50.937 31.9816 50.6301 31.9173C51.8488 32.4504 53.1578 32.8364 54.4037 32.8364C62.0592 32.8364 63.5578 27.7537 63.6571 27.3861C63.8828 26.4577 64.0002 25.4835 64.0002 24.4816C64.0002 17.6066 58.3307 12 51.3703 12Z" fill="url(#paint1_linear_1810_346)"/>
<path d="M24.6298 36.9999C27.5368 36.9999 30.7055 35.4834 34.0548 32.4962C35.6437 31.0808 37.0159 29.5642 38.0451 28.351C38.0451 28.351 38.0451 28.351 38.0361 28.3418V28.351C38.0361 28.351 36.4111 26.5495 34.6145 24.6194C33.6486 25.7867 32.2583 27.3767 30.6604 28.8106C27.6812 31.4668 25.7403 32.0275 24.6298 32.0275C20.45 32.0183 17.0555 28.6451 17.0555 24.4999C17.0555 20.3822 20.459 17.0091 24.6298 16.9815C24.8194 16.9815 25.0632 17.0091 25.3701 17.0734C24.1514 16.5403 22.8423 16.1543 21.5965 16.1543C13.941 16.1543 12.4514 21.237 12.3431 21.5955C12.1174 22.533 12 23.4981 12 24.4999C12 31.3933 17.6694 36.9999 24.6298 36.9999Z" fill="url(#paint2_linear_1810_346)"/>
<path d="M54.3856 32.7261C50.4675 32.625 46.396 29.4816 45.5654 28.7004C43.4168 26.6783 38.4606 21.2096 38.0724 20.7776C34.4432 16.6324 29.5231 12 24.63 12H24.621H24.612C18.6717 12.0276 13.6794 16.1268 12.3433 21.5956C12.4426 21.2371 14.4016 16.0533 21.5877 16.2371C25.5057 16.3382 29.5953 19.5276 30.4349 20.3088C32.5835 22.3309 37.5398 27.7997 37.9279 28.2316C41.5571 32.3677 46.4772 37 51.3703 37H51.3793H51.3883C57.3286 36.9725 62.33 32.8732 63.6571 27.4044C63.5487 27.7629 61.5807 32.9008 54.3856 32.7261Z" fill="#29ABE2"/>
<path d="M73.0301 33.827C73.3063 33.827 73.5301 33.6032 73.5301 33.327V26.6622C73.5301 26.386 73.3063 26.1622 73.0301 26.1622H72.5C72.2239 26.1622 72 26.386 72 26.6622V33.327C72 33.6032 72.2239 33.827 72.5 33.827H73.0301Z" fill="white"/>
<path d="M83.2018 33.827C83.478 33.827 83.7018 33.6032 83.7018 33.327V26.6622C83.7018 26.386 83.478 26.1622 83.2018 26.1622H82.6936C82.4174 26.1622 82.1936 26.386 82.1936 26.6622V31.2324L79.264 26.6256C79.0805 26.337 78.7622 26.1622 78.4202 26.1622H77.5895C77.3133 26.1622 77.0895 26.386 77.0895 26.6622V33.327C77.0895 33.6032 77.3133 33.827 77.5895 33.827H78.0978C78.3739 33.827 78.5978 33.6032 78.5978 33.327V28.3892L81.9693 33.5987C82.0614 33.7411 82.2195 33.827 82.389 33.827H83.2018Z" fill="white"/>
<path d="M92.4535 27.5784C92.7297 27.5784 92.9535 27.3545 92.9535 27.0784V26.6622C92.9535 26.386 92.7297 26.1622 92.4535 26.1622H87.0379C86.7617 26.1622 86.5379 26.386 86.5379 26.6622V27.0784C86.5379 27.3545 86.7617 27.5784 87.0379 27.5784H88.9861V33.327C88.9861 33.6032 89.21 33.827 89.4861 33.827H90.0053C90.2814 33.827 90.5053 33.6032 90.5053 33.327V27.5784H92.4535Z" fill="white"/>
<path d="M100.138 33.827C100.415 33.827 100.638 33.6032 100.638 33.327V32.9216C100.638 32.6455 100.415 32.4216 100.138 32.4216H97.2941V30.6486H99.8215C100.098 30.6486 100.322 30.4248 100.322 30.1486V29.8189C100.322 29.5428 100.098 29.3189 99.8215 29.3189H97.2941V27.5676H100.138C100.415 27.5676 100.638 27.3437 100.638 27.0676V26.6622C100.638 26.386 100.415 26.1622 100.138 26.1622H96.2858C96.0096 26.1622 95.7858 26.386 95.7858 26.6622V33.327C95.7858 33.6032 96.0096 33.827 96.2858 33.827H100.138Z" fill="white"/>
<path d="M107.55 33.5559C107.635 33.7224 107.807 33.827 107.994 33.827H108.541C108.918 33.827 109.16 33.4259 108.983 33.0929L107.711 30.6919C108.727 30.4 109.361 29.5892 109.361 28.5189C109.361 27.1892 108.4 26.1622 106.891 26.1622H104.364C104.088 26.1622 103.864 26.386 103.864 26.6622V33.327C103.864 33.6032 104.088 33.827 104.364 33.827H104.883C105.159 33.827 105.383 33.6032 105.383 33.327V30.8757H106.17L107.55 33.5559ZM105.383 29.5892V27.4595H106.607C107.372 27.4595 107.82 27.8811 107.82 28.5297C107.82 29.1568 107.372 29.5892 106.607 29.5892H105.383Z" fill="white"/>
<path d="M118.609 33.827C118.885 33.827 119.109 33.6032 119.109 33.327V26.6622C119.109 26.386 118.885 26.1622 118.609 26.1622H118.101C117.825 26.1622 117.601 26.386 117.601 26.6622V31.2324L114.671 26.6256C114.488 26.337 114.17 26.1622 113.828 26.1622H112.997C112.721 26.1622 112.497 26.386 112.497 26.6622V33.327C112.497 33.6032 112.721 33.827 112.997 33.827H113.505C113.781 33.827 114.005 33.6032 114.005 33.327V28.3892L117.377 33.5987C117.469 33.7411 117.627 33.827 117.796 33.827H118.609Z" fill="white"/>
<path d="M127.03 33.827C127.306 33.827 127.53 33.6032 127.53 33.327V32.9216C127.53 32.6455 127.306 32.4216 127.03 32.4216H124.186V30.6486H126.713C126.989 30.6486 127.213 30.4248 127.213 30.1486V29.8189C127.213 29.5428 126.989 29.3189 126.713 29.3189H124.186V27.5676H127.03C127.306 27.5676 127.53 27.3437 127.53 27.0676V26.6622C127.53 26.386 127.306 26.1622 127.03 26.1622H123.178C122.901 26.1622 122.678 26.386 122.678 26.6622V33.327C122.678 33.6032 122.901 33.827 123.178 33.827H127.03Z" fill="white"/>
<path d="M135.939 27.5784C136.215 27.5784 136.439 27.3545 136.439 27.0784V26.6622C136.439 26.386 136.215 26.1622 135.939 26.1622H130.523C130.247 26.1622 130.023 26.386 130.023 26.6622V27.0784C130.023 27.3545 130.247 27.5784 130.523 27.5784H132.471V33.327C132.471 33.6032 132.695 33.827 132.971 33.827H133.491C133.767 33.827 133.991 33.6032 133.991 33.327V27.5784H135.939Z" fill="white"/>
<path d="M146.823 33.9892C148.998 33.9892 150.113 32.5622 150.408 31.3838L148.998 30.9622C148.79 31.6757 148.146 32.5297 146.823 32.5297C145.577 32.5297 144.419 31.6324 144.419 30C144.419 28.2595 145.643 27.4378 146.801 27.4378C148.146 27.4378 148.747 28.2486 148.932 28.9838L150.353 28.5405C150.047 27.2973 148.943 26 146.801 26C144.725 26 142.856 27.5568 142.856 30C142.856 32.4432 144.659 33.9892 146.823 33.9892Z" fill="white"/>
<path d="M154.428 29.9892C154.428 28.2595 155.653 27.4378 156.844 27.4378C158.046 27.4378 159.27 28.2595 159.27 29.9892C159.27 31.7189 158.046 32.5405 156.844 32.5405C155.653 32.5405 154.428 31.7189 154.428 29.9892ZM152.866 30C152.866 32.4649 154.745 33.9892 156.844 33.9892C158.953 33.9892 160.833 32.4649 160.833 30C160.833 27.5243 158.953 26 156.844 26C154.745 26 152.866 27.5243 152.866 30Z" fill="white"/>
<path d="M172.077 33.827C172.354 33.827 172.577 33.6032 172.577 33.327V26.6622C172.577 26.386 172.354 26.1622 172.077 26.1622H170.858C170.655 26.1622 170.472 26.2846 170.395 26.4722L168.249 31.6973L166.05 26.4683C165.972 26.2828 165.79 26.1622 165.589 26.1622H164.432C164.156 26.1622 163.932 26.386 163.932 26.6622V33.327C163.932 33.6032 164.156 33.827 164.432 33.827H164.875C165.151 33.827 165.375 33.6032 165.375 33.327V28.4973L167.476 33.52C167.554 33.706 167.736 33.827 167.937 33.827H168.528C168.73 33.827 168.912 33.7053 168.989 33.5187L171.091 28.4541V33.327C171.091 33.6032 171.315 33.827 171.591 33.827H172.077Z" fill="white"/>
<path d="M177.66 29.6541V27.4595H178.851C179.605 27.4595 180.065 27.8811 180.065 28.5622C180.065 29.2216 179.605 29.6541 178.851 29.6541H177.66ZM179.037 30.9405C180.567 30.9405 181.584 29.9459 181.584 28.5514C181.584 27.1676 180.567 26.1622 179.037 26.1622H176.641C176.365 26.1622 176.141 26.386 176.141 26.6622V33.327C176.141 33.6032 176.365 33.827 176.641 33.827H177.149C177.425 33.827 177.649 33.6032 177.649 33.327V30.9405H179.037Z" fill="white"/>
<path d="M187.414 34C189.076 34 190.398 32.9946 190.398 31.1135V26.6622C190.398 26.386 190.174 26.1622 189.898 26.1622H189.39C189.114 26.1622 188.89 26.386 188.89 26.6622V31.0054C188.89 32.0108 188.332 32.5405 187.414 32.5405C186.518 32.5405 185.95 32.0108 185.95 31.0054V26.6622C185.95 26.386 185.726 26.1622 185.45 26.1622H184.941C184.665 26.1622 184.441 26.386 184.441 26.6622V31.1135C184.441 32.9946 185.764 34 187.414 34Z" fill="white"/>
<path d="M199.081 27.5784C199.357 27.5784 199.581 27.3545 199.581 27.0784V26.6622C199.581 26.386 199.357 26.1622 199.081 26.1622H193.666C193.389 26.1622 193.166 26.386 193.166 26.6622V27.0784C193.166 27.3545 193.389 27.5784 193.666 27.5784H195.614V33.327C195.614 33.6032 195.838 33.827 196.114 33.827H196.633C196.909 33.827 197.133 33.6032 197.133 33.327V27.5784H199.081Z" fill="white"/>
<path d="M206.766 33.827C207.042 33.827 207.266 33.6032 207.266 33.327V32.9216C207.266 32.6455 207.042 32.4216 206.766 32.4216H203.922V30.6486H206.449C206.725 30.6486 206.949 30.4248 206.949 30.1486V29.8189C206.949 29.5428 206.725 29.3189 206.449 29.3189H203.922V27.5676H206.766C207.042 27.5676 207.266 27.3437 207.266 27.0676V26.6622C207.266 26.386 207.042 26.1622 206.766 26.1622H202.913C202.637 26.1622 202.413 26.386 202.413 26.6622V33.327C202.413 33.6032 202.637 33.827 202.913 33.827H206.766Z" fill="white"/>
<path d="M214.177 33.5559C214.263 33.7224 214.435 33.827 214.622 33.827H215.169C215.546 33.827 215.787 33.4259 215.611 33.0929L214.339 30.6919C215.355 30.4 215.989 29.5892 215.989 28.5189C215.989 27.1892 215.027 26.1622 213.519 26.1622H210.492V33.327C210.492 33.6032 210.715 33.827 210.992 33.827H211.511C211.787 33.827 212.011 33.6032 212.011 33.327V30.8757H212.798L214.177 33.5559ZM212.011 29.5892V27.4595H213.235C214 27.4595 214.448 27.8811 214.448 28.5297C214.448 29.1568 214 29.5892 213.235 29.5892H212.011Z" fill="white"/>
<path d="M73.002 21V17.634H76.423V16.787H73.002V14.048H76.764V13.201H72.078V21H73.002ZM81.2964 20.285V20.329C81.2964 20.593 81.3184 20.879 81.3514 21H82.1984C82.1654 20.791 82.1324 20.417 82.1324 20.01V15.731H81.2524V18.91C81.2524 19.746 80.7794 20.362 79.9104 20.362C78.9754 20.362 78.6124 19.669 78.6124 18.899V15.731H77.7324V19.042C77.7324 20.208 78.4364 21.154 79.7124 21.154C80.4054 21.154 81.0434 20.824 81.2964 20.285ZM84.7263 21V13.047H83.8463V21H84.7263ZM87.3259 21V13.047H86.4459V21H87.3259ZM90.3875 23.09L93.7645 15.731H92.8075L91.1685 19.46L89.4305 15.731H88.4185L90.6845 20.373L89.4085 23.09H90.3875ZM99.6047 15.577C98.0867 15.577 96.9647 16.743 96.9647 18.36C96.9647 19.988 98.0867 21.154 99.6047 21.154C101.123 21.154 102.245 19.988 102.245 18.36C102.245 16.743 101.123 15.577 99.6047 15.577ZM99.6047 16.369C100.551 16.369 101.365 17.084 101.365 18.36C101.365 19.647 100.551 20.362 99.6047 20.362C98.6587 20.362 97.8447 19.647 97.8447 18.36C97.8447 17.084 98.6587 16.369 99.6047 16.369ZM104.481 17.898C104.481 17.073 104.954 16.369 105.801 16.369C106.758 16.369 107.11 16.985 107.11 17.755V21H107.99V17.623C107.99 16.479 107.374 15.577 106.109 15.577C105.416 15.577 104.8 15.907 104.459 16.523V15.731H103.601V21H104.481V17.898ZM112.465 18.228V17.458H109.528V18.228H112.465ZM116.319 16.369C117.265 16.369 117.694 17.018 117.837 17.579L118.629 17.238C118.409 16.402 117.672 15.577 116.319 15.577C114.834 15.577 113.712 16.721 113.712 18.36C113.712 19.966 114.812 21.154 116.33 21.154C117.683 21.154 118.42 20.296 118.673 19.515L117.903 19.174C117.749 19.658 117.331 20.362 116.33 20.362C115.395 20.362 114.592 19.625 114.592 18.36C114.592 17.084 115.395 16.369 116.319 16.369ZM120.809 17.854C120.809 17.04 121.293 16.369 122.129 16.369C123.086 16.369 123.438 16.985 123.438 17.755V21H124.318V17.623C124.318 16.479 123.702 15.577 122.437 15.577C121.755 15.577 121.15 15.885 120.809 16.435V13.047H119.929V21H120.809V17.854ZM125.592 19.603C125.592 20.406 126.241 21.154 127.33 21.154C128.276 21.154 128.848 20.637 129.079 20.208C129.079 20.615 129.123 20.879 129.145 21H130.003C129.97 20.835 129.937 20.56 129.937 20.12V17.458C129.937 16.435 129.31 15.577 127.814 15.577C126.681 15.577 125.801 16.259 125.691 17.26L126.527 17.458C126.604 16.787 127.066 16.325 127.836 16.325C128.661 16.325 129.057 16.776 129.057 17.37C129.057 17.601 128.969 17.766 128.584 17.821L127.165 18.03C126.241 18.162 125.592 18.679 125.592 19.603ZM127.44 20.406C126.835 20.406 126.472 19.988 126.472 19.559C126.472 19.042 126.835 18.756 127.341 18.679L129.057 18.426V18.778C129.057 19.9 128.353 20.406 127.44 20.406ZM132.475 21V15.731H131.595V21H132.475ZM131.375 13.652C131.375 14.015 131.672 14.312 132.035 14.312C132.398 14.312 132.695 14.015 132.695 13.652C132.695 13.289 132.398 12.992 132.035 12.992C131.672 12.992 131.375 13.289 131.375 13.652ZM135.075 17.898C135.075 17.073 135.548 16.369 136.395 16.369C137.352 16.369 137.704 16.985 137.704 17.755V21H138.584V17.623C138.584 16.479 137.968 15.577 136.703 15.577C136.01 15.577 135.394 15.907 135.053 16.523V15.731H134.195V21H135.075V17.898Z" fill="white"/>
<defs>
<linearGradient id="paint0_linear_1810_346" x1="32.6912" y1="7.02574" x2="46.9757" y2="73.4926" gradientUnits="userSpaceOnUse">
<stop stop-color="#A1A2A7"/>
<stop offset="1" stop-color="#565861"/>
</linearGradient>
<linearGradient id="paint1_linear_1810_346" x1="44.7958" y1="13.6484" x2="62.2866" y2="31.4386" gradientUnits="userSpaceOnUse">
<stop offset="0.21" stop-color="#F15A24"/>
<stop offset="0.6841" stop-color="#FBB03B"/>
</linearGradient>
<linearGradient id="paint2_linear_1810_346" x1="31.2044" y1="35.3515" x2="13.7136" y2="17.5614" gradientUnits="userSpaceOnUse">
<stop offset="0.21" stop-color="#ED1E79"/>
<stop offset="0.8929" stop-color="#522785"/>
</linearGradient>
</defs>
</svg>
